<?xml version="1.0" encoding="UTF-8" standalone="no"?>
<svg
   xmlns:dc="http://purl.org/dc/elements/1.1/"
   xmlns:cc="http://creativecommons.org/ns#"
   xmlns:rdf="http://www.w3.org/1999/02/22-rdf-syntax-ns#"
   xmlns:svg="http://www.w3.org/2000/svg"
   xmlns="http://www.w3.org/2000/svg"
   xmlns:xlink="http://www.w3.org/1999/xlink"
   xmlns:sodipodi="http://sodipodi.sourceforge.net/DTD/sodipodi-0.dtd"
   xmlns:inkscape="http://www.inkscape.org/namespaces/inkscape"
   height="380"
   style="zoom: 8;"
   cursor="default"
   id="SvgjsSvg1006"
   sodipodi:docname="DelayedReaction.svg"
   inkscape:version="0.92.2 (5c3e80d, 2017-08-06)"
   width="450"
   version="1.1">
  <metadata
     id="metadata7215">
    <rdf:RDF>
      <cc:Work
         rdf:about="">
        <dc:format>image/svg+xml</dc:format>
        <dc:type
           rdf:resource="http://purl.org/dc/dcmitype/StillImage" />
        <dc:title />
      </cc:Work>
    </rdf:RDF>
  </metadata>
  <sodipodi:namedview
     borderopacity="1"
     inkscape:zoom="2.0868421"
     inkscape:cy="59.255685"
     gridtolerance="10"
     inkscape:cx="292.70451"
     inkscape:window-height="1057"
     inkscape:measure-start="21.6858,252.097"
     inkscape:pagecheckerboard="true"
     inkscape:window-width="1920"
     guidetolerance="10"
     id="namedview7213"
     showgrid="false"
     inkscape:pageopacity="0"
     inkscape:pageshadow="2"
     bordercolor="#666666"
     inkscape:current-layer="SvgjsSvg1006"
     inkscape:window-maximized="1"
     inkscape:window-y="-8"
     inkscape:measure-end="21.0081,301.907"
     objecttolerance="10"
     pagecolor="#ffffff"
     inkscape:window-x="-8"
     visibility="visible"
     showguides="false" />
  <defs
     id="SvgjsDefs1007">
    <linearGradient
       inkscape:collect="always"
       id="linearGradientInner">
      <stop
         style="stop-color:#2B1222;stop-opacity:1;"
         offset="0"
         id="stop1" />
      <stop
         style="stop-color:#190A11;stop-opacity:1;"
         offset="1"
         id="stop2" />
    </linearGradient>
    <linearGradient
       inkscape:collect="always"
       xlink:href="#linearGradientInner"
       id="linearGradientOuter"
       x1="0"
       y1="0"
       x2="450"
       y2="380"
       gradientUnits="userSpaceOnUse"
       gradientTransform="translate(-6,6)" />
    <style
       id="Routed Gothic">@import url(file://fonts/routed-gothic.ttf);</style>
  </defs>
  <path
     d="M 0,0 H 450 V 380 H 0 Z"
     id="SvgjsRect1008"
     style="visibility:visible;fill:url(#linearGradientOuter);fill-opacity:1;stroke:none;stroke-opacity:1"
     visibility="visible" />
  <g
     aria-label="DELAYED REACTION"
     style="font-size:16px;font-family:'Routed Gothic';text-anchor:middle;fill:#e8b923;stroke:none;stroke-width:1px;text-rendering:geometricPrecision"
     id="text5">
    <path
       d="m 154.29687,12.195313 q 0,1.585937 -0.69531,2.875 -0.6875,1.289062 -1.83594,1.999999 -0.79687,0.492188 -1.78125,0.710938 Q 149.00781,18 147.40625,18 h -2.9375 V 6.3671875 h 2.90625 q 1.70312,0 2.70312,0.25 1.00782,0.2421875 1.70313,0.671875 1.1875,0.7421875 1.85156,1.9765625 0.66406,1.234375 0.66406,2.929688 z m -1.61718,-0.02344 q 0,-1.367187 -0.47657,-2.3046875 -0.47656,-0.9375 -1.42187,-1.4765625 Q 150.09375,8 149.32031,7.8515625 q -0.77344,-0.15625 -1.85156,-0.15625 h -1.45313 v 8.9765625 h 1.45313 q 1.11719,0 1.94531,-0.164063 0.83594,-0.164062 1.53125,-0.609374 0.86719,-0.554688 1.29688,-1.460938 0.4375,-0.90625 0.4375,-2.265625 z"
       style="font-size:16px;font-family:'Routed Gothic';text-anchor:middle;fill:#e8b923;stroke:none;stroke-width:1px;text-rendering:geometricPrecision"
       id="path13650" />
    <path
       d="M 164.47656,18 H 156.8125 V 6.3671875 h 7.66406 v 1.375 h -6.11719 v 3.1875005 h 6.11719 v 1.375 h -6.11719 V 16.625 h 6.11719 z"
       style="font-size:16px;font-family:'Routed Gothic';text-anchor:middle;fill:#e8b923;stroke:none;stroke-width:1px;text-rendering:geometricPrecision"
       id="path13652" />
    <path
       d="M 174.29687,18 H 166.9375 V 6.3671875 h 1.54687 V 16.625 h 5.8125 z"
       style="font-size:16px;font-family:'Routed Gothic';text-anchor:middle;fill:#e8b923;stroke:none;stroke-width:1px;text-rendering:geometricPrecision"
       id="path13654" />
    <path
       d="m 185.01562,18 h -1.64843 l -1.14063,-3.242187 h -5.03125 L 176.05469,18 h -1.57032 l 4.23438,-11.6328125 h 2.0625 z M 181.75,13.429688 179.71094,7.71875 l -2.04688,5.710938 z"
       style="font-size:16px;font-family:'Routed Gothic';text-anchor:middle;fill:#e8b923;stroke:none;stroke-width:1px;text-rendering:geometricPrecision"
       id="path13656" />
    <path
       d="m 194.39062,6.3671875 -4.09375,6.5312505 V 18 H 188.75 v -4.9375 l -4.10938,-6.6953125 h 1.71094 l 3.17969,5.2031255 3.21094,-5.2031255 z"
       style="font-size:16px;font-family:'Routed Gothic';text-anchor:middle;fill:#e8b923;stroke:none;stroke-width:1px;text-rendering:geometricPrecision"
       id="path13658" />
    <path
       d="M 203.66406,18 H 196 V 6.3671875 h 7.66406 v 1.375 h -6.11719 v 3.1875005 h 6.11719 v 1.375 h -6.11719 V 16.625 h 6.11719 z"
       style="font-size:16px;font-family:'Routed Gothic';text-anchor:middle;fill:#e8b923;stroke:none;stroke-width:1px;text-rendering:geometricPrecision"
       id="path13660" />
    <path
       d="m 215.95312,12.195313 q 0,1.585937 -0.69531,2.875 -0.6875,1.289062 -1.83594,1.999999 Q 212.625,17.5625 211.64062,17.78125 210.66406,18 209.0625,18 H 206.125 V 6.3671875 h 2.90625 q 1.70312,0 2.70312,0.25 1.00782,0.2421875 1.70313,0.671875 1.1875,0.7421875 1.85156,1.9765625 0.66406,1.234375 0.66406,2.929688 z m -1.61718,-0.02344 q 0,-1.367187 -0.47657,-2.3046875 -0.47656,-0.9375 -1.42187,-1.4765625 Q 211.75,8 210.97656,7.8515625 q -0.77344,-0.15625 -1.85156,-0.15625 h -1.45313 v 8.9765625 h 1.45313 q 1.11719,0 1.94531,-0.164063 0.83594,-0.164062 1.53125,-0.609374 0.86719,-0.554688 1.29688,-1.460938 0.4375,-0.90625 0.4375,-2.265625 z"
       style="font-size:16px;font-family:'Routed Gothic';text-anchor:middle;fill:#e8b923;stroke:none;stroke-width:1px;text-rendering:geometricPrecision"
       id="path13662" />
    <path
       d="m 233.71875,18 h -2.00781 l -3.89063,-4.625 h -2.17969 V 18 h -1.54687 V 6.3671875 h 3.25781 q 1.05469,0 1.75781,0.140625 0.70313,0.1328125 1.26563,0.484375 Q 231.00781,7.390625 231.35937,8 q 0.35938,0.6015625 0.35938,1.53125 0,1.257813 -0.63281,2.109375 -0.63282,0.84375 -1.74219,1.273438 z m -3.61719,-8.359375 q 0,-0.5 -0.17969,-0.8828125 -0.17187,-0.390625 -0.57812,-0.65625 -0.33594,-0.2265625 -0.79688,-0.3125 -0.46093,-0.09375 -1.08593,-0.09375 h -1.82032 v 4.3906255 h 1.5625 q 0.73438,0 1.28125,-0.125 0.54688,-0.132813 0.92969,-0.484375 0.35156,-0.328125 0.51563,-0.75 0.17187,-0.429688 0.17187,-1.085938 z"
       style="font-size:16px;font-family:'Routed Gothic';text-anchor:middle;fill:#e8b923;stroke:none;stroke-width:1px;text-rendering:geometricPrecision"
       id="path13664" />
    <path
       d="m 242.88281,18 h -7.66406 V 6.3671875 h 7.66406 v 1.375 h -6.11719 v 3.1875005 h 6.11719 v 1.375 h -6.11719 V 16.625 h 6.11719 z"
       style="font-size:16px;font-family:'Routed Gothic';text-anchor:middle;fill:#e8b923;stroke:none;stroke-width:1px;text-rendering:geometricPrecision"
       id="path13666" />
    <path
       d="m 254.51562,18 h -1.64843 l -1.14063,-3.242187 h -5.03125 L 245.55469,18 h -1.57032 l 4.23438,-11.6328125 h 2.0625 z M 251.25,13.429688 249.21094,7.71875 l -2.04688,5.710938 z"
       style="font-size:16px;font-family:'Routed Gothic';text-anchor:middle;fill:#e8b923;stroke:none;stroke-width:1px;text-rendering:geometricPrecision"
       id="path13668" />
    <path
       d="m 265.26562,17.15625 q -0.42968,0.1875 -0.78125,0.351562 -0.34375,0.164063 -0.90625,0.34375 -0.47656,0.148438 -1.03906,0.25 -0.55469,0.109375 -1.22656,0.109375 -1.26563,0 -2.30469,-0.351562 Q 257.97656,17.5 257.21094,16.742187 256.46094,16 256.03906,14.859375 q -0.42187,-1.148437 -0.42187,-2.664062 0,-1.4375 0.40625,-2.570313 0.40625,-1.1328125 1.17187,-1.9140625 0.74219,-0.7578125 1.78906,-1.15625 1.05469,-0.3984375 2.33594,-0.3984375 0.9375,0 1.86719,0.2265625 0.9375,0.2265625 2.07812,0.796875 V 9.015625 h -0.11718 q -0.96094,-0.8046875 -1.90625,-1.171875 -0.94532,-0.3671875 -2.02344,-0.3671875 -0.88281,0 -1.59375,0.2890625 -0.70313,0.28125 -1.25781,0.8828125 -0.53907,0.5859375 -0.84375,1.4843755 -0.29688,0.890625 -0.29688,2.0625 0,1.226562 0.32813,2.109375 0.33593,0.882812 0.85937,1.4375 0.54688,0.578124 1.27344,0.859374 0.73437,0.273438 1.54687,0.273438 1.11719,0 2.09375,-0.382813 0.97657,-0.382812 1.82813,-1.148437 h 0.10937 z"
       style="font-size:16px;font-family:'Routed Gothic';text-anchor:middle;fill:#e8b923;stroke:none;stroke-width:1px;text-rendering:geometricPrecision"
       id="path13670" />
    <path
       d="m 275.76562,7.7421875 h -4.15625 V 18 H 270.0625 V 7.7421875 h -4.15625 v -1.375 h 9.85937 z"
       style="font-size:16px;font-family:'Routed Gothic';text-anchor:middle;fill:#e8b923;stroke:none;stroke-width:1px;text-rendering:geometricPrecision"
       id="path13672" />
    <path
       d="m 281.44531,18 h -4.59375 V 16.8125 H 278.375 V 7.5546875 h -1.52344 v -1.1875 h 4.59375 v 1.1875 h -1.52344 V 16.8125 h 1.52344 z"
       style="font-size:16px;font-family:'Routed Gothic';text-anchor:middle;fill:#e8b923;stroke:none;stroke-width:1px;text-rendering:geometricPrecision"
       id="path13674" />
    <path
       d="m 292.76562,7.703125 q 0.71094,0.78125 1.08594,1.9140625 0.38281,1.1328125 0.38281,2.5703125 0,1.4375 -0.39062,2.578125 -0.38281,1.132813 -1.07813,1.890625 -0.71875,0.789062 -1.70312,1.1875 -0.97656,0.398437 -2.23438,0.398437 -1.22656,0 -2.23437,-0.40625 -1,-0.40625 -1.70313,-1.179687 -0.70312,-0.773437 -1.08593,-1.898437 -0.375,-1.125 -0.375,-2.570313 0,-1.421875 0.375,-2.546875 0.375,-1.1328125 1.09375,-1.9375 0.6875,-0.765625 1.70312,-1.171875 1.02344,-0.40625 2.22656,-0.40625 1.25,0 2.24219,0.4140625 1,0.40625 1.69531,1.1640625 z M 292.625,12.1875 q 0,-2.265625 -1.01563,-3.4921875 -1.01562,-1.234375 -2.77343,-1.234375 -1.77344,0 -2.78907,1.234375 -1.00781,1.2265625 -1.00781,3.4921875 0,2.289063 1.03125,3.507813 1.03125,1.210937 2.76563,1.210937 1.73437,0 2.75781,-1.210937 1.03125,-1.21875 1.03125,-3.507813 z"
       style="font-size:16px;font-family:'Routed Gothic';text-anchor:middle;fill:#e8b923;stroke:none;stroke-width:1px;text-rendering:geometricPrecision"
       id="path13676" />
    <path
       d="m 305.5625,18 h -1.91406 L 298.13281,7.59375 V 18 H 296.6875 V 6.3671875 h 2.39844 l 5.03125,9.5000005 V 6.3671875 h 1.44531 z"
       style="font-size:16px;font-family:'Routed Gothic';text-anchor:middle;fill:#e8b923;stroke:none;stroke-width:1px;text-rendering:geometricPrecision"
       id="path13678" />
  </g>
  <g
     aria-label="MIX"
     style="font-size:8px;font-family:'Routed Gothic';text-anchor:middle;fill:#e8b923;stroke:none;stroke-width:1px;text-rendering:geometricPrecision"
     id="text70">
    <path
       d="m 257.15668,372 h -0.77344 v -5.01172 l -1.61719,3.41016 h -0.46094 l -1.60546,-3.41016 V 372 h -0.72266 v -5.81641 h 1.05469 l 1.55078,3.23828 1.5,-3.23828 h 1.07422 z"
       style="font-size:8px;font-family:'Routed Gothic';text-anchor:middle;fill:#e8b923;stroke:none;stroke-width:1px;text-rendering:geometricPrecision"
       id="path13681" />
    <path
       d="m 260.77777,372 h -2.29687 v -0.59375 h 0.76171 v -4.62891 h -0.76171 v -0.59375 h 2.29687 v 0.59375 h -0.76172 v 4.62891 h 0.76172 z"
       style="font-size:8px;font-family:'Routed Gothic';text-anchor:middle;fill:#e8b923;stroke:none;stroke-width:1px;text-rendering:geometricPrecision"
       id="path13683" />
    <path
       d="m 266.53949,366.18359 -2.00781,2.875 2.0039,2.94141 h -0.89453 l -1.58594,-2.39453 -1.625,2.39453 h -0.84375 l 2.02735,-2.90625 -1.98047,-2.91016 h 0.89062 l 1.56641,2.36328 1.60156,-2.36328 z"
       style="font-size:8px;font-family:'Routed Gothic';text-anchor:middle;fill:#e8b923;stroke:none;stroke-width:1px;text-rendering:geometricPrecision"
       id="path13685" />
  </g>
  <g
     aria-label="INPUT"
     style="font-size:8px;font-family:'Routed Gothic';text-anchor:middle;fill:#e8b923;stroke:none;stroke-width:1px;text-rendering:geometricPrecision"
     id="text106">
    <path
       d="M 332.29687,371.87891 H 330 v -0.59375 h 0.76172 v -4.62891 H 330 v -0.59375 h 2.29687 v 0.59375 h -0.76171 v 4.62891 h 0.76171 z"
       style="font-size:8px;font-family:'Routed Gothic';text-anchor:middle;fill:#e8b923;stroke:none;stroke-width:1px;text-rendering:geometricPrecision"
       id="path13688" />
    <path
       d="m 338.05859,371.87891 h -0.95703 l -2.75781,-5.20313 v 5.20313 h -0.72266 v -5.81641 h 1.19922 l 2.51563,4.75 v -4.75 h 0.72265 z"
       style="font-size:8px;font-family:'Routed Gothic';text-anchor:middle;fill:#e8b923;stroke:none;stroke-width:1px;text-rendering:geometricPrecision"
       id="path13690" />
    <path
       d="m 343.41016,367.82031 q 0,0.38672 -0.13672,0.71875 -0.13282,0.32813 -0.375,0.57031 -0.30078,0.30079 -0.71094,0.45313 -0.41016,0.14844 -1.03516,0.14844 h -0.77343 v 2.16797 h -0.77344 v -5.81641 h 1.57812 q 0.52344,0 0.88672,0.0898 0.36328,0.0859 0.64453,0.27344 0.33203,0.22266 0.51172,0.55469 0.1836,0.33203 0.1836,0.83984 z m -0.80469,0.0195 q 0,-0.30078 -0.10547,-0.52343 -0.10547,-0.22266 -0.32031,-0.36329 -0.1875,-0.12109 -0.42969,-0.17187 -0.23828,-0.0547 -0.60547,-0.0547 h -0.76562 v 2.32422 h 0.65234 q 0.46875,0 0.76172,-0.082 0.29297,-0.0859 0.47656,-0.26953 0.18359,-0.1875 0.25781,-0.39453 0.0781,-0.20703 0.0781,-0.46485 z"
       style="font-size:8px;font-family:'Routed Gothic';text-anchor:middle;fill:#e8b923;stroke:none;stroke-width:1px;text-rendering:geometricPrecision"
       id="path13692" />
    <path
       d="m 348.8125,369.54297 q 0,0.63281 -0.14063,1.10547 -0.13671,0.46875 -0.45312,0.78125 -0.30078,0.29687 -0.70313,0.43359 Q 347.11328,372 346.57812,372 q -0.54687,0 -0.95312,-0.14453 -0.40625,-0.14453 -0.68359,-0.42578 -0.31641,-0.32032 -0.45704,-0.77344 -0.13671,-0.45313 -0.13671,-1.11328 v -3.48047 h 0.77343 v 3.51953 q 0,0.47266 0.0625,0.74609 0.0664,0.27344 0.21875,0.4961 0.17188,0.2539 0.46485,0.38281 0.29687,0.12891 0.71093,0.12891 0.41797,0 0.71094,-0.125 0.29297,-0.12891 0.46875,-0.38672 0.15235,-0.22266 0.21485,-0.50781 0.0664,-0.28907 0.0664,-0.71485 v -3.53906 h 0.77344 z"
       style="font-size:8px;font-family:'Routed Gothic';text-anchor:middle;fill:#e8b923;stroke:none;stroke-width:1px;text-rendering:geometricPrecision"
       id="path13694" />
    <path
       d="m 354.44141,366.75 h -2.07813 v 5.12891 h -0.77344 V 366.75 h -2.07812 v -0.6875 h 4.92969 z"
       style="font-size:8px;font-family:'Routed Gothic';text-anchor:middle;fill:#e8b923;stroke:none;stroke-width:1px;text-rendering:geometricPrecision"
       id="path13696" />
  </g>
  <g
     aria-label="OUTPUT"
     style="font-size:8px;font-family:'Routed Gothic';text-anchor:middle;fill:#e8b923;stroke:none;stroke-width:1px;text-rendering:geometricPrecision"
     id="text108">
    <path
       d="m 398.66797,366.73047 q 0.35547,0.39062 0.54297,0.95703 0.1914,0.56641 0.1914,1.28516 0,0.71875 -0.19531,1.28906 -0.19141,0.5664 -0.53906,0.94531 -0.35938,0.39453 -0.85156,0.59375 Q 397.32812,372 396.69922,372 q -0.61328,0 -1.11719,-0.20313 -0.5,-0.20312 -0.85156,-0.58984 -0.35156,-0.38672 -0.54297,-0.94922 Q 394,369.69531 394,368.97266 q 0,-0.71094 0.1875,-1.27344 0.1875,-0.56641 0.54687,-0.96875 0.34375,-0.38281 0.85157,-0.58594 0.51172,-0.20312 1.11328,-0.20312 0.625,0 1.12109,0.20703 0.5,0.20312 0.84766,0.58203 z m -0.0703,2.24219 q 0,-1.13282 -0.50782,-1.7461 -0.50781,-0.61719 -1.38672,-0.61719 -0.88671,0 -1.39453,0.61719 -0.5039,0.61328 -0.5039,1.7461 0,1.14453 0.51562,1.7539 0.51563,0.60547 1.38281,0.60547 0.86719,0 1.37891,-0.60547 0.51563,-0.60937 0.51563,-1.7539 z"
       style="font-size:8px;font-family:'Routed Gothic';text-anchor:middle;fill:#e8b923;stroke:none;stroke-width:1px;text-rendering:geometricPrecision"
       id="path13699" />
    <path
       d="m 405.00781,369.54297 q 0,0.63281 -0.14062,1.10547 -0.13672,0.46875 -0.45313,0.78125 -0.30078,0.29687 -0.70312,0.43359 Q 403.30859,372 402.77344,372 q -0.54688,0 -0.95313,-0.14453 -0.40625,-0.14453 -0.68359,-0.42578 -0.31641,-0.32032 -0.45703,-0.77344 -0.13672,-0.45313 -0.13672,-1.11328 v -3.48047 h 0.77344 v 3.51953 q 0,0.47266 0.0625,0.74609 0.0664,0.27344 0.21875,0.4961 0.17187,0.2539 0.46484,0.38281 0.29687,0.12891 0.71094,0.12891 0.41797,0 0.71093,-0.125 0.29297,-0.12891 0.46875,-0.38672 0.15235,-0.22266 0.21485,-0.50781 0.0664,-0.28907 0.0664,-0.71485 v -3.53906 h 0.77344 z"
       style="font-size:8px;font-family:'Routed Gothic';text-anchor:middle;fill:#e8b923;stroke:none;stroke-width:1px;text-rendering:geometricPrecision"
       id="path13701" />
    <path
       d="m 410.63672,366.75 h -2.07813 v 5.12891 h -0.77343 V 366.75 h -2.07813 v -0.6875 h 4.92969 z"
       style="font-size:8px;font-family:'Routed Gothic';text-anchor:middle;fill:#e8b923;stroke:none;stroke-width:1px;text-rendering:geometricPrecision"
       id="path13703" />
    <path
       d="m 415.23047,367.82031 q 0,0.38672 -0.13672,0.71875 -0.13281,0.32813 -0.375,0.57031 -0.30078,0.30079 -0.71094,0.45313 -0.41015,0.14844 -1.03515,0.14844 h -0.77344 v 2.16797 h -0.77344 v -5.81641 h 1.57813 q 0.52343,0 0.88671,0.0898 0.36329,0.0859 0.64454,0.27344 0.33203,0.22266 0.51171,0.55469 0.1836,0.33203 0.1836,0.83984 z m -0.80469,0.0195 q 0,-0.30078 -0.10547,-0.52343 -0.10547,-0.22266 -0.32031,-0.36329 -0.1875,-0.12109 -0.42969,-0.17187 -0.23828,-0.0547 -0.60547,-0.0547 h -0.76562 v 2.32422 h 0.65234 q 0.46875,0 0.76172,-0.082 0.29297,-0.0859 0.47656,-0.26953 0.1836,-0.1875 0.25782,-0.39453 0.0781,-0.20703 0.0781,-0.46485 z"
       style="font-size:8px;font-family:'Routed Gothic';text-anchor:middle;fill:#e8b923;stroke:none;stroke-width:1px;text-rendering:geometricPrecision"
       id="path13705" />
    <path
       d="m 420.63281,369.54297 q 0,0.63281 -0.14062,1.10547 -0.13672,0.46875 -0.45313,0.78125 -0.30078,0.29687 -0.70312,0.43359 Q 418.93359,372 418.39844,372 q -0.54688,0 -0.95313,-0.14453 -0.40625,-0.14453 -0.68359,-0.42578 -0.31641,-0.32032 -0.45703,-0.77344 -0.13672,-0.45313 -0.13672,-1.11328 v -3.48047 h 0.77344 v 3.51953 q 0,0.47266 0.0625,0.74609 0.0664,0.27344 0.21875,0.4961 0.17187,0.2539 0.46484,0.38281 0.29687,0.12891 0.71094,0.12891 0.41797,0 0.71093,-0.125 0.29297,-0.12891 0.46875,-0.38672 0.15235,-0.22266 0.21485,-0.50781 0.0664,-0.28907 0.0664,-0.71485 v -3.53906 h 0.77344 z"
       style="font-size:8px;font-family:'Routed Gothic';text-anchor:middle;fill:#e8b923;stroke:none;stroke-width:1px;text-rendering:geometricPrecision"
       id="path13707" />
    <path
       d="m 426.26172,366.75 h -2.07813 v 5.12891 h -0.77343 V 366.75 h -2.07813 v -0.6875 h 4.92969 z"
       style="font-size:8px;font-family:'Routed Gothic';text-anchor:middle;fill:#e8b923;stroke:none;stroke-width:1px;text-rendering:geometricPrecision"
       id="path13709" />
  </g>
  <path
     style="stroke:#e8b923;stroke-width:0.75"
     d="M 276.50043,341 258.3139,351.5"
     id="SvgjsLine1312" />
  <path
     style="stroke:#e8b923;stroke-width:0.75"
     d="m 276.50043,341 -18.09653,8.51556"
     id="SvgjsLine1313" />
  <path
     style="stroke:#e8b923;stroke-width:0.75"
     d="m 276.50043,341 -18.74564,6.97144"
     id="SvgjsLine1314" />
  <path
     style="stroke:#e8b923;stroke-width:0.75"
     d="m 276.50043,341 -19.26325,5.37842"
     id="SvgjsLine1315" />
  <path
     style="stroke:#e8b923;stroke-width:0.75"
     d="m 276.50043,341 -19.64575,3.74762"
     id="SvgjsLine1316" />
  <path
     style="stroke:#e8b923;stroke-width:0.75"
     d="m 276.50043,341 -20.88494,2.1951"
     id="SvgjsLine1317" />
  <path
     style="stroke:#e8b923;stroke-width:0.75"
     d="m 276.50043,341 -19.99561,0.41885"
     id="SvgjsLine1318" />
  <path
     style="stroke:#e8b923;stroke-width:0.75"
     d="m 276.50043,341 -19.96054,-1.2558"
     id="SvgjsLine1319" />
  <path
     style="stroke:#e8b923;stroke-width:0.75"
     d="m 276.50043,341 -19.78546,-2.92166"
     id="SvgjsLine1320" />
  <path
     style="stroke:#e8b923;stroke-width:0.75"
     d="m 276.50043,341 -19.47159,-4.56702"
     id="SvgjsLine1321" />
  <path
     style="stroke:#e8b923;stroke-width:0.75"
     d="m 276.50043,341 -19.9722,-6.48935"
     id="SvgjsLine1322" />
  <path
     style="stroke:#e8b923;stroke-width:0.75"
     d="m 276.50043,341 -18.43726,-7.75031"
     id="SvgjsLine1323" />
  <path
     style="stroke:#e8b923;stroke-width:0.75"
     d="m 276.50043,341 -17.72406,-9.26593"
     id="SvgjsLine1324" />
  <path
     style="stroke:#e8b923;stroke-width:0.75"
     d="M 276.50043,341 259.61386,330.28345"
     id="SvgjsLine1325" />
  <path
     style="stroke:#e8b923;stroke-width:0.75"
     d="M 276.50043,341 260.56982,328.90802"
     id="SvgjsLine1326" />
  <path
     style="stroke:#e8b923;stroke-width:0.75"
     d="M 276.50043,341 260.89438,326.94824"
     id="SvgjsLine1327" />
  <path
     style="stroke:#e8b923;stroke-width:0.75"
     d="M 276.50043,341 262.80948,326.42062"
     id="SvgjsLine1328" />
  <path
     style="stroke:#e8b923;stroke-width:0.75"
     d="M 276.50043,341 264.07748,325.32611"
     id="SvgjsLine1329" />
  <path
     style="stroke:#e8b923;stroke-width:0.75"
     d="M 276.50043,341 265.43259,324.34155"
     id="SvgjsLine1330" />
  <path
     style="stroke:#e8b923;stroke-width:0.75"
     d="m 276.50043,341 -9.63507,-17.52612"
     id="SvgjsLine1331" />
  <path
     style="stroke:#e8b923;stroke-width:0.75"
     d="m 276.50043,341 -8.54148,-19.18445"
     id="SvgjsLine1332" />
  <path
     style="stroke:#e8b923;stroke-width:0.75"
     d="M 276.50043,341 269.9231,322.11249"
     id="SvgjsLine1333" />
  <path
     style="stroke:#e8b923;stroke-width:0.75"
     d="m 276.50043,341 -4.97379,-19.37164"
     id="SvgjsLine1334" />
  <path
     style="stroke:#e8b923;stroke-width:0.75"
     d="m 276.50043,341 -3.33539,-19.71991"
     id="SvgjsLine1335" />
  <path
     style="stroke:#e8b923;stroke-width:0.75"
     d="m 276.50043,341 -1.67356,-19.92987"
     id="SvgjsLine1336" />
  <path
     style="stroke:#e8b923;stroke-width:0.75"
     d="M 276.50043,341 V 320"
     id="SvgjsLine1337" />
  <path
     style="stroke:#e8b923;stroke-width:0.75"
     d="m 276.50043,341 1.67355,-19.92987"
     id="SvgjsLine1338" />
  <path
     style="stroke:#e8b923;stroke-width:0.75"
     d="m 276.50043,341 3.33539,-19.71991"
     id="SvgjsLine1339" />
  <path
     style="stroke:#e8b923;stroke-width:0.75"
     d="m 276.50043,341 4.97378,-19.37164"
     id="SvgjsLine1340" />
  <path
     style="stroke:#e8b923;stroke-width:0.75"
     d="m 276.50043,341 6.57733,-18.88751"
     id="SvgjsLine1341" />
  <path
     style="stroke:#e8b923;stroke-width:0.75"
     d="m 276.50043,341 8.54147,-19.18445"
     id="SvgjsLine1342" />
  <path
     style="stroke:#e8b923;stroke-width:0.75"
     d="m 276.50043,341 9.63507,-17.52612"
     id="SvgjsLine1343" />
  <path
     style="stroke:#e8b923;stroke-width:0.75"
     d="m 276.50043,341 11.06784,-16.65845"
     id="SvgjsLine1344" />
  <path
     style="stroke:#e8b923;stroke-width:0.75"
     d="m 276.50043,341 12.42294,-15.67389"
     id="SvgjsLine1345" />
  <path
     style="stroke:#e8b923;stroke-width:0.75"
     d="m 276.50043,341 13.69095,-14.57938"
     id="SvgjsLine1346" />
  <path
     style="stroke:#e8b923;stroke-width:0.75"
     d="m 276.50043,341 15.60605,-14.05176"
     id="SvgjsLine1347" />
  <path
     style="stroke:#e8b923;stroke-width:0.75"
     d="m 276.50043,341 15.9306,-12.09198"
     id="SvgjsLine1348" />
  <path
     style="stroke:#e8b923;stroke-width:0.75"
     d="m 276.50043,341 16.88656,-10.71655"
     id="SvgjsLine1349" />
  <path
     style="stroke:#e8b923;stroke-width:0.75"
     d="m 276.50043,341 17.72406,-9.26593"
     id="SvgjsLine1350" />
  <path
     style="stroke:#e8b923;stroke-width:0.75"
     d="m 276.50043,341 18.43725,-7.75031"
     id="SvgjsLine1351" />
  <path
     style="stroke:#e8b923;stroke-width:0.75"
     d="m 276.50043,341 19.9722,-6.48935"
     id="SvgjsLine1352" />
  <path
     style="stroke:#e8b923;stroke-width:0.75"
     d="m 276.50043,341 19.47159,-4.56702"
     id="SvgjsLine1353" />
  <path
     style="stroke:#e8b923;stroke-width:0.75"
     d="m 276.50043,341 19.78546,-2.92166"
     id="SvgjsLine1354" />
  <path
     style="stroke:#e8b923;stroke-width:0.75"
     d="m 276.50043,341 19.96054,-1.2558"
     id="SvgjsLine1355" />
  <path
     style="stroke:#e8b923;stroke-width:0.75"
     d="m 276.50043,341 19.9956,0.41885"
     id="SvgjsLine1356" />
  <path
     style="stroke:#e8b923;stroke-width:0.75"
     d="m 276.50043,341 20.88495,2.1951"
     id="SvgjsLine1357" />
  <path
     style="stroke:#e8b923;stroke-width:0.75"
     d="m 276.50043,341 19.64575,3.74762"
     id="SvgjsLine1358" />
  <path
     style="stroke:#e8b923;stroke-width:0.75"
     d="m 276.50043,341 19.26324,5.37842"
     id="SvgjsLine1359" />
  <path
     style="stroke:#e8b923;stroke-width:0.75"
     d="m 276.50043,341 18.74563,6.97144"
     id="SvgjsLine1360" />
  <path
     style="stroke:#e8b923;stroke-width:0.75"
     d="m 276.50043,341 18.09652,8.51556"
     id="SvgjsLine1361" />
  <path
     style="stroke:#e8b923;stroke-width:0.75"
     d="m 276.50043,341 18.18652,10.5"
     id="SvgjsLine1362" />
  <path
     style="fill:#988903;stroke:#583903;stroke-width:0.75"
     d="m 294.50043,341 a 18,18 0 0 1 -18,18 18,18 0 0 1 -18,-18 18,18 0 0 1 18,-18 18,18 0 0 1 18,18 z"
     id="SvgjsCircle1363" />
  <g
     aria-label="ATTENUATION"
     style="font-size:8px;font-family:'Routed Gothic';text-anchor:middle;fill:#e8b923;stroke:none;stroke-width:1px;text-rendering:geometricPrecision"
     id="text108-3">
    <path
       d="M 66.472359,33.878906 H 65.64814 L 65.077827,32.257812 H 62.562202 L 61.99189,33.878906 H 61.206734 L 63.323921,28.0625 h 1.03125 z M 64.839546,31.59375 63.820015,28.738281 62.796577,31.59375 Z"
       style="font-size:8px;font-family:'Routed Gothic';text-anchor:middle;fill:#e8b923;stroke:none;stroke-width:1px;text-rendering:geometricPrecision"
       id="path13764" />
    <path
       d="m 71.034859,28.75 h -2.078125 v 5.128906 H 68.183296 V 28.75 h -2.078125 v -0.6875 h 4.929688 z"
       style="font-size:8px;font-family:'Routed Gothic';text-anchor:middle;fill:#e8b923;stroke:none;stroke-width:1px;text-rendering:geometricPrecision"
       id="path13766" />
    <path
       d="m 75.706734,28.75 h -2.078125 v 5.128906 H 72.855171 V 28.75 h -2.078125 v -0.6875 h 4.929688 z"
       style="font-size:8px;font-family:'Routed Gothic';text-anchor:middle;fill:#e8b923;stroke:none;stroke-width:1px;text-rendering:geometricPrecision"
       id="path13768" />
    <path
       d="M 80.327827,33.878906 H 76.495796 V 28.0625 h 3.832031 V 28.75 h -3.058593 v 1.59375 h 3.058593 v 0.6875 h -3.058593 v 2.160156 h 3.058593 z"
       style="font-size:8px;font-family:'Routed Gothic';text-anchor:middle;fill:#e8b923;stroke:none;stroke-width:1px;text-rendering:geometricPrecision"
       id="path13770" />
    <path
       d="m 85.995796,33.878906 h -0.957031 l -2.757813,-5.203125 v 5.203125 H 81.558296 V 28.0625 h 1.199219 l 2.515625,4.75 v -4.75 h 0.722656 z"
       style="font-size:8px;font-family:'Routed Gothic';text-anchor:middle;fill:#e8b923;stroke:none;stroke-width:1px;text-rendering:geometricPrecision"
       id="path13772" />
    <path
       d="m 91.921577,31.542969 q 0,0.632812 -0.140625,1.105468 -0.136718,0.46875 -0.453125,0.78125 -0.300781,0.296875 -0.703125,0.433594 Q 90.222359,34 89.687202,34 89.140327,34 88.734077,33.855469 88.327827,33.710937 88.050484,33.429687 87.734077,33.109375 87.593452,32.65625 87.456734,32.203125 87.456734,31.542969 V 28.0625 h 0.773437 v 3.519531 q 0,0.472656 0.0625,0.746094 0.06641,0.273437 0.21875,0.496094 0.171875,0.253906 0.464844,0.382812 0.296875,0.128906 0.710937,0.128906 0.417969,0 0.710938,-0.125 0.292969,-0.128906 0.46875,-0.386718 0.152344,-0.222657 0.214844,-0.507813 0.06641,-0.289062 0.06641,-0.714844 V 28.0625 h 0.773437 z"
       style="font-size:8px;font-family:'Routed Gothic';text-anchor:middle;fill:#e8b923;stroke:none;stroke-width:1px;text-rendering:geometricPrecision"
       id="path13774" />
    <path
       d="m 97.956734,33.878906 h -0.824219 l -0.570313,-1.621094 h -2.515625 l -0.570312,1.621094 H 92.691109 L 94.808296,28.0625 h 1.03125 z M 96.323921,31.59375 95.30439,28.738281 94.280952,31.59375 Z"
       style="font-size:8px;font-family:'Routed Gothic';text-anchor:middle;fill:#e8b923;stroke:none;stroke-width:1px;text-rendering:geometricPrecision"
       id="path13776" />
    <path
       d="m 102.51923,28.75 h -2.07812 v 5.128906 H 99.667671 V 28.75 h -2.078125 v -0.6875 h 4.929684 z"
       style="font-size:8px;font-family:'Routed Gothic';text-anchor:middle;fill:#e8b923;stroke:none;stroke-width:1px;text-rendering:geometricPrecision"
       id="path13778" />
    <path
       d="m 105.35908,33.878906 h -2.29688 v -0.59375 h 0.76172 V 28.65625 H 103.0622 V 28.0625 h 2.29688 v 0.59375 h -0.76172 v 4.628906 h 0.76172 z"
       style="font-size:8px;font-family:'Routed Gothic';text-anchor:middle;fill:#e8b923;stroke:none;stroke-width:1px;text-rendering:geometricPrecision"
       id="path13780" />
    <path
       d="m 111.01923,28.730469 q 0.35547,0.390625 0.54297,0.957031 0.19141,0.566406 0.19141,1.285156 0,0.71875 -0.19531,1.289063 -0.19141,0.566406 -0.53907,0.945312 -0.35937,0.394531 -0.85156,0.59375 Q 109.67939,34 109.05048,34 q -0.61328,0 -1.11718,-0.203125 -0.5,-0.203125 -0.85157,-0.589844 -0.35156,-0.386719 -0.54297,-0.949219 -0.1875,-0.5625 -0.1875,-1.285156 0,-0.710937 0.1875,-1.273437 0.1875,-0.566407 0.54688,-0.96875 0.34375,-0.382813 0.85156,-0.585938 0.51172,-0.203125 1.11328,-0.203125 0.625,0 1.1211,0.207031 0.5,0.203125 0.84765,0.582032 z m -0.0703,2.242187 q 0,-1.132812 -0.50781,-1.746094 -0.50781,-0.617187 -1.38672,-0.617187 -0.88672,0 -1.39453,0.617187 -0.50391,0.613282 -0.50391,1.746094 0,1.144531 0.51563,1.753906 0.51562,0.605469 1.38281,0.605469 0.86719,0 1.37891,-0.605469 0.51562,-0.609375 0.51562,-1.753906 z"
       style="font-size:8px;font-family:'Routed Gothic';text-anchor:middle;fill:#e8b923;stroke:none;stroke-width:1px;text-rendering:geometricPrecision"
       id="path13782" />
    <path
       d="m 117.41767,33.878906 h -0.95703 l -2.75781,-5.203125 v 5.203125 h -0.72266 V 28.0625 h 1.19922 l 2.51562,4.75 v -4.75 h 0.72266 z"
       style="font-size:8px;font-family:'Routed Gothic';text-anchor:middle;fill:#e8b923;stroke:none;stroke-width:1px;text-rendering:geometricPrecision"
       id="path13784" />
  </g>
  <g
     aria-label="DELAY TIME"
     style="font-size:8px;font-family:'Routed Gothic';text-anchor:middle;fill:#e8b923;stroke:none;stroke-width:1px;text-rendering:geometricPrecision"
     id="text108-3-0">
    <path
       d="m 211.91406,31.097656 q 0,0.792969 -0.34765,1.4375 -0.34375,0.644531 -0.91797,1 Q 210.25,33.78125 209.75781,33.890625 209.26953,34 208.46875,34 H 207 v -5.816406 h 1.45312 q 0.85157,0 1.35157,0.125 0.5039,0.121093 0.85156,0.335937 0.59375,0.371094 0.92578,0.988281 0.33203,0.617188 0.33203,1.464844 z m -0.80859,-0.01172 q 0,-0.683593 -0.23828,-1.152343 -0.23828,-0.46875 -0.71094,-0.738282 Q 209.8125,29 209.42578,28.925781 209.03906,28.847656 208.5,28.847656 h -0.72656 v 4.488281 H 208.5 q 0.55859,0 0.97266,-0.08203 0.41796,-0.08203 0.76562,-0.304687 0.43359,-0.277344 0.64844,-0.730469 0.21875,-0.453125 0.21875,-1.132813 z"
       style="font-size:8px;font-family:'Routed Gothic';text-anchor:middle;fill:#e8b923;stroke:none;stroke-width:1px;text-rendering:geometricPrecision"
       id="path13787" />
    <path
       d="m 217.00391,34 h -3.83204 v -5.816406 h 3.83204 v 0.6875 h -3.0586 v 1.59375 h 3.0586 v 0.6875 h -3.0586 V 33.3125 h 3.0586 z"
       style="font-size:8px;font-family:'Routed Gothic';text-anchor:middle;fill:#e8b923;stroke:none;stroke-width:1px;text-rendering:geometricPrecision"
       id="path13789" />
    <path
       d="m 221.91406,34 h -3.67969 v -5.816406 h 0.77344 V 33.3125 h 2.90625 z"
       style="font-size:8px;font-family:'Routed Gothic';text-anchor:middle;fill:#e8b923;stroke:none;stroke-width:1px;text-rendering:geometricPrecision"
       id="path13791" />
    <path
       d="m 227.27344,34 h -0.82422 l -0.57031,-1.621094 h -2.51563 L 222.79297,34 h -0.78516 l 2.11719,-5.816406 h 1.03125 z m -1.63282,-2.285156 -1.01953,-2.855469 -1.02343,2.855469 z"
       style="font-size:8px;font-family:'Routed Gothic';text-anchor:middle;fill:#e8b923;stroke:none;stroke-width:1px;text-rendering:geometricPrecision"
       id="path13793" />
    <path
       d="m 231.96094,28.183594 -2.04688,3.265625 V 34 h -0.77344 v -2.46875 l -2.05468,-3.347656 h 0.85547 l 1.58984,2.601562 1.60547,-2.601562 z"
       style="font-size:8px;font-family:'Routed Gothic';text-anchor:middle;fill:#e8b923;stroke:none;stroke-width:1px;text-rendering:geometricPrecision"
       id="path13795" />
    <path
       d="m 239.72656,28.871094 h -2.07812 V 34 H 236.875 v -5.128906 h -2.07813 v -0.6875 h 4.92969 z"
       style="font-size:8px;font-family:'Routed Gothic';text-anchor:middle;fill:#e8b923;stroke:none;stroke-width:1px;text-rendering:geometricPrecision"
       id="path13797" />
    <path
       d="m 242.56641,34 h -2.29688 v -0.59375 h 0.76172 v -4.628906 h -0.76172 v -0.59375 h 2.29688 v 0.59375 h -0.76172 v 4.628906 h 0.76172 z"
       style="font-size:8px;font-family:'Routed Gothic';text-anchor:middle;fill:#e8b923;stroke:none;stroke-width:1px;text-rendering:geometricPrecision"
       id="path13799" />
    <path
       d="m 249.07031,34 h -0.77344 v -5.011719 l -1.61718,3.410156 h -0.46094 l -1.60547,-3.410156 V 34 h -0.72266 v -5.816406 h 1.05469 l 1.55078,3.238281 1.5,-3.238281 h 1.07422 z"
       style="font-size:8px;font-family:'Routed Gothic';text-anchor:middle;fill:#e8b923;stroke:none;stroke-width:1px;text-rendering:geometricPrecision"
       id="path13801" />
    <path
       d="m 254.47266,34 h -3.83204 v -5.816406 h 3.83204 v 0.6875 h -3.0586 v 1.59375 h 3.0586 v 0.6875 h -3.0586 V 33.3125 h 3.0586 z"
       style="font-size:8px;font-family:'Routed Gothic';text-anchor:middle;fill:#e8b923;stroke:none;stroke-width:1px;text-rendering:geometricPrecision"
       id="path13803" />
  </g>
  <g
     aria-label="FEEDBACK"
     style="font-size:8px;font-family:'Routed Gothic';text-anchor:middle;fill:#e8b923;stroke:none;stroke-width:1px;text-rendering:geometricPrecision"
     id="text108-3-5">
    <path
       d="m 353.71484,28.765625 h -2.9414 v 1.640625 h 2.52734 v 0.6875 h -2.52734 v 2.800781 H 350 v -5.816406 h 3.71484 z"
       style="font-size:8px;font-family:'Routed Gothic';text-anchor:middle;fill:#e8b923;stroke:none;stroke-width:1px;text-rendering:geometricPrecision"
       id="path13806" />
    <path
       d="m 358.42578,33.894531 h -3.83203 v -5.816406 h 3.83203 v 0.6875 h -3.05859 v 1.59375 h 3.05859 v 0.6875 h -3.05859 v 2.160156 h 3.05859 z"
       style="font-size:8px;font-family:'Routed Gothic';text-anchor:middle;fill:#e8b923;stroke:none;stroke-width:1px;text-rendering:geometricPrecision"
       id="path13808" />
    <path
       d="m 363.48828,33.894531 h -3.83203 v -5.816406 h 3.83203 v 0.6875 h -3.05859 v 1.59375 h 3.05859 v 0.6875 h -3.05859 v 2.160156 h 3.05859 z"
       style="font-size:8px;font-family:'Routed Gothic';text-anchor:middle;fill:#e8b923;stroke:none;stroke-width:1px;text-rendering:geometricPrecision"
       id="path13810" />
    <path
       d="m 369.63281,30.992187 q 0,0.792969 -0.34765,1.4375 -0.34375,0.644532 -0.91797,1 -0.39844,0.246094 -0.89063,0.355469 -0.48828,0.109375 -1.28906,0.109375 h -1.46875 v -5.816406 h 1.45312 q 0.85157,0 1.35157,0.125 0.5039,0.121094 0.85156,0.335937 0.59375,0.371094 0.92578,0.988282 0.33203,0.617187 0.33203,1.464843 z m -0.80859,-0.01172 q 0,-0.683594 -0.23828,-1.152344 -0.23828,-0.46875 -0.71094,-0.738281 -0.34375,-0.195313 -0.73047,-0.269532 -0.38672,-0.07813 -0.92578,-0.07813 h -0.72656 v 4.488282 h 0.72656 q 0.55859,0 0.97266,-0.08203 0.41796,-0.08203 0.76562,-0.304687 0.43359,-0.277344 0.64844,-0.730469 0.21875,-0.453125 0.21875,-1.132812 z"
       style="font-size:8px;font-family:'Routed Gothic';text-anchor:middle;fill:#e8b923;stroke:none;stroke-width:1px;text-rendering:geometricPrecision"
       id="path13812" />
    <path
       d="m 375.27734,32.105469 q 0,0.433593 -0.16406,0.765625 -0.16406,0.332031 -0.44141,0.546875 -0.32812,0.257812 -0.72265,0.367187 -0.39063,0.109375 -0.9961,0.109375 h -2.0625 v -5.816406 h 1.72266 q 0.63672,0 0.95313,0.04687 0.3164,0.04687 0.60546,0.195312 0.32032,0.167969 0.46485,0.433594 0.14453,0.261719 0.14453,0.628906 0,0.414063 -0.21094,0.707032 -0.21094,0.289062 -0.5625,0.464843 v 0.03125 q 0.58985,0.121094 0.92969,0.519532 0.33984,0.394531 0.33984,1 z m -1.30078,-2.621094 q 0,-0.210938 -0.0703,-0.355469 -0.0703,-0.144531 -0.22656,-0.234375 -0.1836,-0.105469 -0.44532,-0.128906 -0.26171,-0.02734 -0.64843,-0.02734 h -0.92188 v 1.679688 h 1 q 0.36328,0 0.57813,-0.03516 0.21484,-0.03906 0.39843,-0.15625 0.1836,-0.117187 0.25782,-0.300781 0.0781,-0.1875 0.0781,-0.441406 z m 0.4961,2.652344 q 0,-0.351563 -0.10547,-0.558594 -0.10547,-0.207031 -0.38282,-0.351563 -0.1875,-0.09766 -0.45703,-0.125 -0.26562,-0.03125 -0.64843,-0.03125 h -1.21485 v 2.164063 h 1.02344 q 0.50781,0 0.83203,-0.05078 0.32422,-0.05469 0.53125,-0.195313 0.21875,-0.152344 0.32031,-0.347656 0.10157,-0.195313 0.10157,-0.503906 z"
       style="font-size:8px;font-family:'Routed Gothic';text-anchor:middle;fill:#e8b923;stroke:none;stroke-width:1px;text-rendering:geometricPrecision"
       id="path13814" />
    <path
       d="m 380.96094,33.894531 h -0.82422 l -0.57031,-1.621094 h -2.51563 l -0.57031,1.621094 h -0.78516 l 2.11719,-5.816406 h 1.03125 z m -1.63282,-2.285156 -1.01953,-2.855469 -1.02343,2.855469 z"
       style="font-size:8px;font-family:'Routed Gothic';text-anchor:middle;fill:#e8b923;stroke:none;stroke-width:1px;text-rendering:geometricPrecision"
       id="path13816" />
    <path
       d="m 386.33594,33.472656 q -0.21485,0.09375 -0.39063,0.175781 -0.17187,0.08203 -0.45312,0.171875 -0.23828,0.07422 -0.51953,0.125 Q 384.69531,34 384.35937,34 q -0.63281,0 -1.15234,-0.175781 -0.51562,-0.179688 -0.89844,-0.558594 -0.375,-0.371094 -0.58593,-0.941406 -0.21094,-0.574219 -0.21094,-1.332032 0,-0.71875 0.20312,-1.285156 0.20313,-0.566406 0.58594,-0.957031 0.37109,-0.378906 0.89453,-0.578125 0.52735,-0.199219 1.16797,-0.199219 0.46875,0 0.93359,0.113281 0.46875,0.113282 1.03907,0.398438 v 0.917969 h -0.0586 Q 385.79687,29 385.32422,28.816406 q -0.47266,-0.183594 -1.01172,-0.183594 -0.44141,0 -0.79688,0.144532 -0.35156,0.140625 -0.6289,0.441406 -0.26953,0.292969 -0.42188,0.742187 -0.14843,0.445313 -0.14843,1.03125 0,0.613282 0.16406,1.054688 0.16797,0.441406 0.42969,0.71875 0.27343,0.289062 0.63671,0.429687 0.36719,0.136719 0.77344,0.136719 0.5586,0 1.04688,-0.191406 0.48828,-0.191406 0.91406,-0.574219 h 0.0547 z"
       style="font-size:8px;font-family:'Routed Gothic';text-anchor:middle;fill:#e8b923;stroke:none;stroke-width:1px;text-rendering:geometricPrecision"
       id="path13818" />
    <path
       d="m 392.11328,33.894531 h -1.00391 l -2.30078,-2.589844 -0.57812,0.617188 v 1.972656 h -0.77344 v -5.816406 h 0.77344 v 3.035156 l 2.82422,-3.035156 h 0.9375 l -2.59766,2.734375 z"
       style="font-size:8px;font-family:'Routed Gothic';text-anchor:middle;fill:#e8b923;stroke:none;stroke-width:1px;text-rendering:geometricPrecision"
       id="path13820" />
  </g>
  <g
     aria-label="Y"
     style="font-size:8px;font-family:'Routed Gothic';text-anchor:middle;fill:#e8b923;stroke:none;stroke-width:1px;text-rendering:geometricPrecision"
     id="text106-6">
    <path
       d="m 28.875,174.07812 -2.046875,3.26563 v 2.55078 h -0.773438 v -2.46875 L 24,174.07812 h 0.855469 l 1.589843,2.60157 1.605469,-2.60157 z"
       style="font-size:8px;font-family:'Routed Gothic';text-anchor:middle;fill:#e8b923;stroke:none;stroke-width:1px;text-rendering:geometricPrecision"
       id="path13823" />
  </g>
  <g
     aria-label="X"
     style="font-size:8px;font-family:'Routed Gothic';text-anchor:middle;fill:#e8b923;stroke:none;stroke-width:1px;text-rendering:geometricPrecision"
     id="text106-6-5">
    <path
       d="m 94.953125,324.07812 -2.007813,2.875 2.003907,2.94141 H 94.054687 L 92.46875,327.5 l -1.625,2.39453 H 90 l 2.027344,-2.90625 -1.980469,-2.91016 H 90.9375 l 1.566406,2.36329 1.601563,-2.36329 z"
       style="font-size:8px;font-family:'Routed Gothic';text-anchor:middle;fill:#e8b923;stroke:none;stroke-width:1px;text-rendering:geometricPrecision"
       id="path13826" />
  </g>
  <g
     aria-label="Y"
     style="font-size:8px;font-family:'Routed Gothic';text-anchor:middle;fill:#e8b923;stroke:none;stroke-width:1px;text-rendering:geometricPrecision"
     id="text106-6-6">
    <path
       d="m 168.875,174.07812 -2.04688,3.26563 v 2.55078 h -0.77343 v -2.46875 L 164,174.07812 h 0.85547 l 1.58984,2.60157 1.60547,-2.60157 z"
       style="font-size:8px;font-family:'Routed Gothic';text-anchor:middle;fill:#e8b923;stroke:none;stroke-width:1px;text-rendering:geometricPrecision"
       id="path13829" />
  </g>
  <g
     aria-label="Y"
     style="font-size:8px;font-family:'Routed Gothic';text-anchor:middle;fill:#e8b923;stroke:none;stroke-width:1px;text-rendering:geometricPrecision"
     id="text106-6-4">
    <path
       d="m 308.875,174.07812 -2.04688,3.26563 v 2.55078 h -0.77343 v -2.46875 L 304,174.07812 h 0.85547 l 1.58984,2.60157 1.60547,-2.60157 z"
       style="font-size:8px;font-family:'Routed Gothic';text-anchor:middle;fill:#e8b923;stroke:none;stroke-width:1px;text-rendering:geometricPrecision"
       id="path13832" />
  </g>
  <g
     aria-label="X"
     style="font-size:8px;font-family:'Routed Gothic';text-anchor:middle;fill:#e8b923;stroke:none;stroke-width:1px;text-rendering:geometricPrecision"
     id="text106-6-5-2">
    <path
       d="m 234.95312,324.07812 -2.00781,2.875 2.00391,2.94141 h -0.89453 l -1.58594,-2.39453 -1.625,2.39453 H 230 l 2.02734,-2.90625 -1.98047,-2.91016 h 0.89063 l 1.56641,2.36329 1.60156,-2.36329 z"
       style="font-size:8px;font-family:'Routed Gothic';text-anchor:middle;fill:#e8b923;stroke:none;stroke-width:1px;text-rendering:geometricPrecision"
       id="path13835" />
  </g>
  <g
     aria-label="X"
     style="font-size:8px;font-family:'Routed Gothic';text-anchor:middle;fill:#e8b923;stroke:none;stroke-width:1px;text-rendering:geometricPrecision"
     id="text106-6-5-5">
    <path
       d="m 374.95312,324.07812 -2.00781,2.875 2.00391,2.94141 h -0.89453 l -1.58594,-2.39453 -1.625,2.39453 H 370 l 2.02734,-2.90625 -1.98047,-2.91016 h 0.89063 l 1.56641,2.36329 1.60156,-2.36329 z"
       style="font-size:8px;font-family:'Routed Gothic';text-anchor:middle;fill:#e8b923;stroke:none;stroke-width:1px;text-rendering:geometricPrecision"
       id="path13838" />
  </g>
  <g
     aria-label="RANGE"
     style="font-size:8px;font-family:'Routed Gothic';text-anchor:middle;fill:#e8b923;stroke:none;stroke-width:1px;text-rendering:geometricPrecision"
     id="text106-6-5-2-2">
    <path
       d="m 184.8125,341.88672 h -1.00391 l -1.94531,-2.3125 h -1.08984 v 2.3125 H 180 v -5.81641 h 1.62891 q 0.52734,0 0.8789,0.0703 0.35156,0.0664 0.63281,0.24219 0.31641,0.19922 0.49219,0.50391 0.17969,0.30078 0.17969,0.76562 0,0.62891 -0.31641,1.05469 -0.3164,0.42188 -0.87109,0.63672 z m -1.80859,-4.17969 q 0,-0.25 -0.0898,-0.44141 -0.0859,-0.19531 -0.28906,-0.32812 -0.16797,-0.11328 -0.39844,-0.15625 -0.23047,-0.0469 -0.54297,-0.0469 h -0.91015 v 2.19532 h 0.78125 q 0.36718,0 0.64062,-0.0625 0.27344,-0.0664 0.46485,-0.24219 0.17578,-0.16406 0.25781,-0.375 0.0859,-0.21484 0.0859,-0.54297 z"
       style="font-size:8px;font-family:'Routed Gothic';text-anchor:middle;fill:#e8b923;stroke:none;stroke-width:1px;text-rendering:geometricPrecision"
       id="path13841" />
    <path
       d="m 190.14844,341.88672 h -0.82422 l -0.57031,-1.6211 h -2.51563 l -0.57031,1.6211 h -0.78516 L 187,336.07031 h 1.03125 z m -1.63282,-2.28516 -1.01953,-2.85547 -1.02343,2.85547 z"
       style="font-size:8px;font-family:'Routed Gothic';text-anchor:middle;fill:#e8b923;stroke:none;stroke-width:1px;text-rendering:geometricPrecision"
       id="path13843" />
    <path
       d="m 195.46875,341.88672 h -0.95703 l -2.75781,-5.20313 v 5.20313 h -0.72266 v -5.81641 h 1.19922 l 2.51562,4.75 v -4.75 h 0.72266 z"
       style="font-size:8px;font-family:'Routed Gothic';text-anchor:middle;fill:#e8b923;stroke:none;stroke-width:1px;text-rendering:geometricPrecision"
       id="path13845" />
    <path
       d="m 201.86719,341.45703 q -0.47657,0.21875 -1.04297,0.38281 Q 200.26172,342 199.73437,342 q -0.67968,0 -1.24609,-0.1875 -0.56641,-0.1875 -0.96484,-0.5625 -0.40235,-0.37891 -0.6211,-0.94531 -0.21875,-0.57032 -0.21875,-1.33203 0,-1.39454 0.8125,-2.19922 0.81641,-0.8086 2.23828,-0.8086 0.4961,0 1.01172,0.1211 0.51953,0.11718 1.11719,0.40234 v 0.91797 h -0.0703 q -0.1211,-0.0937 -0.35156,-0.24609 -0.23047,-0.15235 -0.45313,-0.25391 -0.26953,-0.12109 -0.61328,-0.19922 -0.33984,-0.082 -0.77344,-0.082 -0.97656,0 -1.54687,0.62891 -0.56641,0.625 -0.56641,1.69531 0,1.1289 0.59375,1.75781 0.59375,0.625 1.61719,0.625 0.375,0 0.74609,-0.0742 0.375,-0.0742 0.65625,-0.1914 v -1.42579 h -1.55859 v -0.67968 h 2.32422 z"
       style="font-size:8px;font-family:'Routed Gothic';text-anchor:middle;fill:#e8b923;stroke:none;stroke-width:1px;text-rendering:geometricPrecision"
       id="path13847" />
    <path
       d="m 207.05078,341.88672 h -3.83203 v -5.81641 h 3.83203 v 0.6875 h -3.05859 v 1.59375 h 3.05859 v 0.6875 h -3.05859 v 2.16016 h 3.05859 z"
       style="font-size:8px;font-family:'Routed Gothic';text-anchor:middle;fill:#e8b923;stroke:none;stroke-width:1px;text-rendering:geometricPrecision"
       id="path13849" />
  </g>
  <path
     style="opacity:0.981;fill:#060e08;fill-opacity:1;stroke:#e8b923;stroke-width:0.5;stroke-miterlimit:4;stroke-dasharray:none;stroke-opacity:1"
     d="m 180.25,302.21289 h 26.42957 V 314.75 H 180.25 Z"
     id="rect4936" />
  <path
     style="opacity:0.981;fill:#060e08;fill-opacity:1;stroke:#e8b923;stroke-width:0.50001633;stroke-miterlimit:4;stroke-dasharray:none;stroke-opacity:1"
     d="M 39.750008,39.750023 H 140.24998 V 296.24999 H 39.750008 Z"
     id="rect4936-0" />
  <path
     style="opacity:0.981;fill:#060e08;fill-opacity:1;stroke:#e8b923;stroke-width:0.50001633;stroke-miterlimit:4;stroke-dasharray:none;stroke-opacity:1"
     d="M 179.75002,39.750023 H 280.24998 V 296.24999 H 179.75002 Z"
     id="rect4936-0-4" />
  <path
     style="opacity:0.981;fill:#060e08;fill-opacity:1;stroke:#e8b923;stroke-width:0.50001633;stroke-miterlimit:4;stroke-dasharray:none;stroke-opacity:1"
     d="M 319.75,39.750023 H 420.24997 V 296.24999 H 319.75 Z"
     id="rect4936-0-1" />
  <g
     aria-label="PIN 0s"
     style="font-size:8px;font-family:'Routed Gothic';text-anchor:middle;fill:#e8b923;stroke:none;stroke-width:1px;text-rendering:geometricPrecision"
     id="text106-6-1">
    <path
       d="m 10.351563,215.94141 q 0,0.38671 -0.136719,0.71875 -0.132813,0.32812 -0.3750002,0.57031 -0.3007813,0.30078 -0.7109375,0.45312 Q 8.71875,217.83203 8.09375,217.83203 H 7.3203125 V 220 H 6.546875 v -5.81641 H 8.125 q 0.5234375,0 0.8867188,0.0898 0.3632812,0.0859 0.6445312,0.27343 0.3320313,0.22266 0.511719,0.55469 0.183594,0.33203 0.183594,0.83985 z m -0.804688,0.0195 q 0,-0.30078 -0.1054687,-0.52344 -0.1054688,-0.22266 -0.3203125,-0.36328 -0.1875,-0.1211 -0.4296875,-0.17188 -0.2382813,-0.0547 -0.6054688,-0.0547 h -0.765625 v 2.32421 h 0.6523437 q 0.4687501,0 0.7617188,-0.082 0.2929688,-0.0859 0.4765625,-0.26953 0.1835938,-0.1875 0.2578125,-0.39453 0.078125,-0.20703 0.078125,-0.46484 z"
       style="font-size:8px;font-family:'Routed Gothic';text-anchor:middle;fill:#e8b923;stroke:none;stroke-width:1px;text-rendering:geometricPrecision"
       id="path13856" />
    <path
       d="m 13.425781,220 h -2.296875 v -0.59375 h 0.761719 v -4.62891 h -0.761719 v -0.59375 h 2.296875 v 0.59375 h -0.761718 v 4.62891 h 0.761718 z"
       style="font-size:8px;font-family:'Routed Gothic';text-anchor:middle;fill:#e8b923;stroke:none;stroke-width:1px;text-rendering:geometricPrecision"
       id="path13858" />
    <path
       d="m 19.1875,220 h -0.957031 l -2.757813,-5.20313 V 220 H 14.75 v -5.81641 h 1.199219 l 2.515625,4.75 v -4.75 H 19.1875 Z"
       style="font-size:8px;font-family:'Routed Gothic';text-anchor:middle;fill:#e8b923;stroke:none;stroke-width:1px;text-rendering:geometricPrecision"
       id="path13860" />
    <path
       d="m 27.324219,217.08984 q 0,1.56641 -0.492188,2.30078 -0.488281,0.73047 -1.519531,0.73047 -1.046875,0 -1.53125,-0.74218 -0.480469,-0.74219 -0.480469,-2.28125 0,-1.55079 0.488281,-2.28907 0.488282,-0.74218 1.523438,-0.74218 1.046875,0 1.527344,0.7539 0.484375,0.75 0.484375,2.26953 z m -1.027344,1.77344 q 0.136719,-0.31641 0.183594,-0.74219 0.05078,-0.42968 0.05078,-1.03125 0,-0.59375 -0.05078,-1.03125 -0.04687,-0.4375 -0.1875,-0.74218 -0.136719,-0.30079 -0.375,-0.45313 -0.234375,-0.15234 -0.605469,-0.15234 -0.367188,0 -0.609375,0.15234 -0.238281,0.15234 -0.378906,0.46094 -0.132813,0.28906 -0.183594,0.7539 -0.04687,0.46485 -0.04687,1.01954 0,0.60937 0.04297,1.01953 0.04297,0.41015 0.183593,0.73437 0.128907,0.30469 0.363282,0.46485 0.238281,0.16015 0.628906,0.16015 0.367187,0 0.609375,-0.15234 0.242187,-0.15235 0.375,-0.46094 z"
       style="font-size:8px;font-family:'Routed Gothic';text-anchor:middle;fill:#e8b923;stroke:none;stroke-width:1px;text-rendering:geometricPrecision"
       id="path13862" />
    <path
       d="m 31.699219,218.74219 q 0,0.59765 -0.496094,0.98047 -0.492188,0.38281 -1.347656,0.38281 -0.484375,0 -0.890625,-0.11328 -0.402344,-0.11719 -0.675782,-0.25391 v -0.82422 h 0.03906 q 0.347656,0.26172 0.773437,0.41797 0.425782,0.15234 0.816407,0.15234 0.484375,0 0.757812,-0.15625 0.273438,-0.15625 0.273438,-0.49218 0,-0.25782 -0.148438,-0.39063 -0.148437,-0.13281 -0.570312,-0.22656 -0.15625,-0.0352 -0.410157,-0.082 -0.25,-0.0469 -0.457031,-0.10156 -0.574219,-0.15235 -0.816406,-0.44532 -0.238281,-0.29687 -0.238281,-0.72656 0,-0.26953 0.109375,-0.50781 0.113281,-0.23828 0.339843,-0.42578 0.21875,-0.1836 0.554688,-0.28907 0.339844,-0.10937 0.757812,-0.10937 0.390625,0 0.789063,0.0977 0.402344,0.0937 0.667969,0.23046 v 0.78516 h -0.03906 q -0.28125,-0.20703 -0.683594,-0.34766 -0.402343,-0.14453 -0.789062,-0.14453 -0.402344,0 -0.679688,0.15625 -0.277343,0.15235 -0.277343,0.45703 0,0.26954 0.167968,0.40625 0.164063,0.13672 0.53125,0.22266 0.203125,0.0469 0.453125,0.0937 0.253907,0.0469 0.421875,0.0859 0.511719,0.11719 0.789063,0.40234 0.277344,0.28906 0.277344,0.76563 z"
       style="font-size:8px;font-family:'Routed Gothic';text-anchor:middle;fill:#e8b923;stroke:none;stroke-width:1px;text-rendering:geometricPrecision"
       id="path13864" />
  </g>
  <g
     aria-label="PIN 0s"
     style="font-size:8px;font-family:'Routed Gothic';text-anchor:middle;fill:#e8b923;stroke:none;stroke-width:1px;text-rendering:geometricPrecision"
     id="text106-6-1-3">
    <path
       d="m 150.35156,215.94141 q 0,0.38671 -0.13672,0.71875 -0.13281,0.32812 -0.375,0.57031 -0.30078,0.30078 -0.71093,0.45312 -0.41016,0.14844 -1.03516,0.14844 h -0.77344 V 220 h -0.77344 v -5.81641 h 1.57813 q 0.52344,0 0.88672,0.0898 0.36328,0.0859 0.64453,0.27343 0.33203,0.22266 0.51172,0.55469 0.18359,0.33203 0.18359,0.83985 z m -0.80469,0.0195 q 0,-0.30078 -0.10546,-0.52344 -0.10547,-0.22266 -0.32032,-0.36328 -0.1875,-0.1211 -0.42968,-0.17188 -0.23829,-0.0547 -0.60547,-0.0547 h -0.76563 v 2.32421 h 0.65235 q 0.46875,0 0.76171,-0.082 0.29297,-0.0859 0.47657,-0.26953 0.18359,-0.1875 0.25781,-0.39453 0.0781,-0.20703 0.0781,-0.46484 z"
       style="font-size:8px;font-family:'Routed Gothic';text-anchor:middle;fill:#e8b923;stroke:none;stroke-width:1px;text-rendering:geometricPrecision"
       id="path13867" />
    <path
       d="m 153.42578,220 h -2.29687 v -0.59375 h 0.76171 v -4.62891 h -0.76171 v -0.59375 h 2.29687 v 0.59375 h -0.76172 v 4.62891 h 0.76172 z"
       style="font-size:8px;font-family:'Routed Gothic';text-anchor:middle;fill:#e8b923;stroke:none;stroke-width:1px;text-rendering:geometricPrecision"
       id="path13869" />
    <path
       d="m 159.1875,220 h -0.95703 l -2.75781,-5.20313 V 220 H 154.75 v -5.81641 h 1.19922 l 2.51562,4.75 v -4.75 h 0.72266 z"
       style="font-size:8px;font-family:'Routed Gothic';text-anchor:middle;fill:#e8b923;stroke:none;stroke-width:1px;text-rendering:geometricPrecision"
       id="path13871" />
    <path
       d="m 167.32422,217.08984 q 0,1.56641 -0.49219,2.30078 -0.48828,0.73047 -1.51953,0.73047 -1.04688,0 -1.53125,-0.74218 -0.48047,-0.74219 -0.48047,-2.28125 0,-1.55079 0.48828,-2.28907 0.48828,-0.74218 1.52344,-0.74218 1.04687,0 1.52734,0.7539 0.48438,0.75 0.48438,2.26953 z m -1.02735,1.77344 q 0.13672,-0.31641 0.1836,-0.74219 0.0508,-0.42968 0.0508,-1.03125 0,-0.59375 -0.0508,-1.03125 -0.0469,-0.4375 -0.1875,-0.74218 -0.13672,-0.30079 -0.375,-0.45313 -0.23438,-0.15234 -0.60547,-0.15234 -0.36719,0 -0.60938,0.15234 -0.23828,0.15234 -0.3789,0.46094 -0.13281,0.28906 -0.1836,0.7539 -0.0469,0.46485 -0.0469,1.01954 0,0.60937 0.043,1.01953 0.043,0.41015 0.18359,0.73437 0.12891,0.30469 0.36328,0.46485 0.23828,0.16015 0.62891,0.16015 0.36719,0 0.60937,-0.15234 0.24219,-0.15235 0.375,-0.46094 z"
       style="font-size:8px;font-family:'Routed Gothic';text-anchor:middle;fill:#e8b923;stroke:none;stroke-width:1px;text-rendering:geometricPrecision"
       id="path13873" />
    <path
       d="m 171.69922,218.74219 q 0,0.59765 -0.4961,0.98047 -0.49218,0.38281 -1.34765,0.38281 -0.48438,0 -0.89063,-0.11328 -0.40234,-0.11719 -0.67578,-0.25391 v -0.82422 h 0.0391 q 0.34766,0.26172 0.77344,0.41797 0.42578,0.15234 0.81641,0.15234 0.48437,0 0.75781,-0.15625 0.27344,-0.15625 0.27344,-0.49218 0,-0.25782 -0.14844,-0.39063 -0.14844,-0.13281 -0.57031,-0.22656 -0.15625,-0.0352 -0.41016,-0.082 -0.25,-0.0469 -0.45703,-0.10156 -0.57422,-0.15235 -0.81641,-0.44532 -0.23828,-0.29687 -0.23828,-0.72656 0,-0.26953 0.10938,-0.50781 0.11328,-0.23828 0.33984,-0.42578 0.21875,-0.1836 0.55469,-0.28907 0.33984,-0.10937 0.75781,-0.10937 0.39063,0 0.78906,0.0977 0.40235,0.0937 0.66797,0.23046 v 0.78516 h -0.0391 q -0.28125,-0.20703 -0.68359,-0.34766 -0.40235,-0.14453 -0.78907,-0.14453 -0.40234,0 -0.67968,0.15625 -0.27735,0.15235 -0.27735,0.45703 0,0.26954 0.16797,0.40625 0.16406,0.13672 0.53125,0.22266 0.20313,0.0469 0.45313,0.0937 0.2539,0.0469 0.42187,0.0859 0.51172,0.11719 0.78906,0.40234 0.27735,0.28906 0.27735,0.76563 z"
       style="font-size:8px;font-family:'Routed Gothic';text-anchor:middle;fill:#e8b923;stroke:none;stroke-width:1px;text-rendering:geometricPrecision"
       id="path13875" />
  </g>
  <g
     aria-label="PIN 0s"
     style="font-size:8px;font-family:'Routed Gothic';text-anchor:middle;fill:#e8b923;stroke:none;stroke-width:1px;text-rendering:geometricPrecision"
     id="text106-6-1-6">
    <path
       d="m 290.35156,215.94141 q 0,0.38671 -0.13672,0.71875 -0.13281,0.32812 -0.375,0.57031 -0.30078,0.30078 -0.71093,0.45312 -0.41016,0.14844 -1.03516,0.14844 h -0.77344 V 220 h -0.77344 v -5.81641 h 1.57813 q 0.52344,0 0.88672,0.0898 0.36328,0.0859 0.64453,0.27343 0.33203,0.22266 0.51172,0.55469 0.18359,0.33203 0.18359,0.83985 z m -0.80469,0.0195 q 0,-0.30078 -0.10546,-0.52344 -0.10547,-0.22266 -0.32032,-0.36328 -0.1875,-0.1211 -0.42968,-0.17188 -0.23829,-0.0547 -0.60547,-0.0547 h -0.76563 v 2.32421 h 0.65235 q 0.46875,0 0.76171,-0.082 0.29297,-0.0859 0.47657,-0.26953 0.18359,-0.1875 0.25781,-0.39453 0.0781,-0.20703 0.0781,-0.46484 z"
       style="font-size:8px;font-family:'Routed Gothic';text-anchor:middle;fill:#e8b923;stroke:none;stroke-width:1px;text-rendering:geometricPrecision"
       id="path13878" />
    <path
       d="m 293.42578,220 h -2.29687 v -0.59375 h 0.76171 v -4.62891 h -0.76171 v -0.59375 h 2.29687 v 0.59375 h -0.76172 v 4.62891 h 0.76172 z"
       style="font-size:8px;font-family:'Routed Gothic';text-anchor:middle;fill:#e8b923;stroke:none;stroke-width:1px;text-rendering:geometricPrecision"
       id="path13880" />
    <path
       d="m 299.1875,220 h -0.95703 l -2.75781,-5.20313 V 220 H 294.75 v -5.81641 h 1.19922 l 2.51562,4.75 v -4.75 h 0.72266 z"
       style="font-size:8px;font-family:'Routed Gothic';text-anchor:middle;fill:#e8b923;stroke:none;stroke-width:1px;text-rendering:geometricPrecision"
       id="path13882" />
    <path
       d="m 307.32422,217.08984 q 0,1.56641 -0.49219,2.30078 -0.48828,0.73047 -1.51953,0.73047 -1.04688,0 -1.53125,-0.74218 -0.48047,-0.74219 -0.48047,-2.28125 0,-1.55079 0.48828,-2.28907 0.48828,-0.74218 1.52344,-0.74218 1.04687,0 1.52734,0.7539 0.48438,0.75 0.48438,2.26953 z m -1.02735,1.77344 q 0.13672,-0.31641 0.1836,-0.74219 0.0508,-0.42968 0.0508,-1.03125 0,-0.59375 -0.0508,-1.03125 -0.0469,-0.4375 -0.1875,-0.74218 -0.13672,-0.30079 -0.375,-0.45313 -0.23438,-0.15234 -0.60547,-0.15234 -0.36719,0 -0.60938,0.15234 -0.23828,0.15234 -0.3789,0.46094 -0.13281,0.28906 -0.1836,0.7539 -0.0469,0.46485 -0.0469,1.01954 0,0.60937 0.043,1.01953 0.043,0.41015 0.18359,0.73437 0.12891,0.30469 0.36328,0.46485 0.23828,0.16015 0.62891,0.16015 0.36719,0 0.60937,-0.15234 0.24219,-0.15235 0.375,-0.46094 z"
       style="font-size:8px;font-family:'Routed Gothic';text-anchor:middle;fill:#e8b923;stroke:none;stroke-width:1px;text-rendering:geometricPrecision"
       id="path13884" />
    <path
       d="m 311.69922,218.74219 q 0,0.59765 -0.4961,0.98047 -0.49218,0.38281 -1.34765,0.38281 -0.48438,0 -0.89063,-0.11328 -0.40234,-0.11719 -0.67578,-0.25391 v -0.82422 h 0.0391 q 0.34766,0.26172 0.77344,0.41797 0.42578,0.15234 0.81641,0.15234 0.48437,0 0.75781,-0.15625 0.27344,-0.15625 0.27344,-0.49218 0,-0.25782 -0.14844,-0.39063 -0.14844,-0.13281 -0.57031,-0.22656 -0.15625,-0.0352 -0.41016,-0.082 -0.25,-0.0469 -0.45703,-0.10156 -0.57422,-0.15235 -0.81641,-0.44532 -0.23828,-0.29687 -0.23828,-0.72656 0,-0.26953 0.10938,-0.50781 0.11328,-0.23828 0.33984,-0.42578 0.21875,-0.1836 0.55469,-0.28907 0.33984,-0.10937 0.75781,-0.10937 0.39063,0 0.78906,0.0977 0.40235,0.0937 0.66797,0.23046 v 0.78516 h -0.0391 q -0.28125,-0.20703 -0.68359,-0.34766 -0.40235,-0.14453 -0.78907,-0.14453 -0.40234,0 -0.67968,0.15625 -0.27735,0.15235 -0.27735,0.45703 0,0.26954 0.16797,0.40625 0.16406,0.13672 0.53125,0.22266 0.20313,0.0469 0.45313,0.0937 0.2539,0.0469 0.42187,0.0859 0.51172,0.11719 0.78906,0.40234 0.27735,0.28906 0.27735,0.76563 z"
       style="font-size:8px;font-family:'Routed Gothic';text-anchor:middle;fill:#e8b923;stroke:none;stroke-width:1px;text-rendering:geometricPrecision"
       id="path13886" />
  </g>
  <g
     aria-label="LINK"
     style="font-size:8px;font-family:'Routed Gothic';text-anchor:middle;fill:#e8b923;stroke:none;stroke-width:1px;text-rendering:geometricPrecision"
     id="text106-6-1-4">
    <path
       d="M 13.679688,265 H 10 v -5.81641 h 0.773438 v 5.12891 h 2.90625 z"
       style="font-size:8px;font-family:'Routed Gothic';text-anchor:middle;fill:#e8b923;stroke:none;stroke-width:1px;text-rendering:geometricPrecision"
       id="path13889" />
    <path
       d="m 16.503906,265 h -2.296875 v -0.59375 h 0.761719 v -4.62891 h -0.761719 v -0.59375 h 2.296875 v 0.59375 h -0.761718 v 4.62891 h 0.761718 z"
       style="font-size:8px;font-family:'Routed Gothic';text-anchor:middle;fill:#e8b923;stroke:none;stroke-width:1px;text-rendering:geometricPrecision"
       id="path13891" />
    <path
       d="m 22.265625,265 h -0.957031 l -2.757813,-5.20313 V 265 h -0.722656 v -5.81641 h 1.199219 l 2.515625,4.75 v -4.75 h 0.722656 z"
       style="font-size:8px;font-family:'Routed Gothic';text-anchor:middle;fill:#e8b923;stroke:none;stroke-width:1px;text-rendering:geometricPrecision"
       id="path13893" />
    <path
       d="m 28.488281,265 h -1.003906 l -2.300781,-2.58984 -0.578125,0.61718 V 265 h -0.773438 v -5.81641 h 0.773438 v 3.03516 l 2.824218,-3.03516 h 0.9375 l -2.597656,2.73438 z"
       style="font-size:8px;font-family:'Routed Gothic';text-anchor:middle;fill:#e8b923;stroke:none;stroke-width:1px;text-rendering:geometricPrecision"
       id="path13895" />
  </g>
  <g
     aria-label="LINK"
     style="font-size:8px;font-family:'Routed Gothic';text-anchor:middle;fill:#e8b923;stroke:none;stroke-width:1px;text-rendering:geometricPrecision"
     id="text106-6-1-4-6">
    <path
       d="M 153.67969,265 H 150 v -5.81641 h 0.77344 v 5.12891 h 2.90625 z"
       style="font-size:8px;font-family:'Routed Gothic';text-anchor:middle;fill:#e8b923;stroke:none;stroke-width:1px;text-rendering:geometricPrecision"
       id="path13898" />
    <path
       d="m 156.50391,265 h -2.29688 v -0.59375 h 0.76172 v -4.62891 h -0.76172 v -0.59375 h 2.29688 v 0.59375 h -0.76172 v 4.62891 h 0.76172 z"
       style="font-size:8px;font-family:'Routed Gothic';text-anchor:middle;fill:#e8b923;stroke:none;stroke-width:1px;text-rendering:geometricPrecision"
       id="path13900" />
    <path
       d="m 162.26562,265 h -0.95703 l -2.75781,-5.20313 V 265 h -0.72266 v -5.81641 h 1.19922 l 2.51563,4.75 v -4.75 h 0.72265 z"
       style="font-size:8px;font-family:'Routed Gothic';text-anchor:middle;fill:#e8b923;stroke:none;stroke-width:1px;text-rendering:geometricPrecision"
       id="path13902" />
    <path
       d="m 168.48828,265 h -1.00391 l -2.30078,-2.58984 -0.57812,0.61718 V 265 h -0.77344 v -5.81641 h 0.77344 v 3.03516 l 2.82422,-3.03516 h 0.9375 l -2.59766,2.73438 z"
       style="font-size:8px;font-family:'Routed Gothic';text-anchor:middle;fill:#e8b923;stroke:none;stroke-width:1px;text-rendering:geometricPrecision"
       id="path13904" />
  </g>
  <g
     aria-label="LINK"
     style="font-size:8px;font-family:'Routed Gothic';text-anchor:middle;fill:#e8b923;stroke:none;stroke-width:1px;text-rendering:geometricPrecision"
     id="text106-6-1-4-2">
    <path
       d="M 293.67969,265 H 290 v -5.81641 h 0.77344 v 5.12891 h 2.90625 z"
       style="font-size:8px;font-family:'Routed Gothic';text-anchor:middle;fill:#e8b923;stroke:none;stroke-width:1px;text-rendering:geometricPrecision"
       id="path13907" />
    <path
       d="m 296.50391,265 h -2.29688 v -0.59375 h 0.76172 v -4.62891 h -0.76172 v -0.59375 h 2.29688 v 0.59375 h -0.76172 v 4.62891 h 0.76172 z"
       style="font-size:8px;font-family:'Routed Gothic';text-anchor:middle;fill:#e8b923;stroke:none;stroke-width:1px;text-rendering:geometricPrecision"
       id="path13909" />
    <path
       d="m 302.26562,265 h -0.95703 l -2.75781,-5.20313 V 265 h -0.72266 v -5.81641 h 1.19922 l 2.51563,4.75 v -4.75 h 0.72265 z"
       style="font-size:8px;font-family:'Routed Gothic';text-anchor:middle;fill:#e8b923;stroke:none;stroke-width:1px;text-rendering:geometricPrecision"
       id="path13911" />
    <path
       d="m 308.48828,265 h -1.00391 l -2.30078,-2.58984 -0.57812,0.61718 V 265 h -0.77344 v -5.81641 h 0.77344 v 3.03516 l 2.82422,-3.03516 h 0.9375 l -2.59766,2.73438 z"
       style="font-size:8px;font-family:'Routed Gothic';text-anchor:middle;fill:#e8b923;stroke:none;stroke-width:1px;text-rendering:geometricPrecision"
       id="path13913" />
  </g>
  <g
     id="g1200"
     transform="translate(0.2045204,2.4103028)">
    <path
       inkscape:connector-curvature="0"
       d="m 6.7954796,357.4413 v 5.87434 l 1.3355027,0.77515 c 2.7924147,1.63436 3.9971687,2.3348 5.6221867,3.26871 0.924579,0.53234 2.297438,1.32617 3.053912,1.76511 0.756473,0.43894 1.970567,1.14872 2.708362,1.57832 0.737795,0.42026 1.942549,1.1207 2.689684,1.55964 l 1.354181,0.78449 0.02802,-5.85566 c 0.01868,-5.51946 0.01868,-5.86501 -0.140087,-5.97708 -0.09339,-0.0654 -0.625726,-0.3829 -1.195415,-0.70977 -0.560351,-0.31754 -1.737088,-0.98996 -2.614971,-1.50361 -0.868544,-0.50432 -2.073298,-1.20476 -2.661666,-1.54097 -1.036649,-0.5977 -4.109239,-2.38149 -6.537426,-3.78236 -0.6444036,-0.37357 -1.5409649,-0.89657 -2.0079239,-1.1674 -0.466959,-0.2615 -1.0179706,-0.58837 -1.2327718,-0.70978 l -0.4015847,-0.23348 z m 1.0646665,-5.03382 c 0.4109239,0.25215 1.5783214,0.92458 2.5776139,1.50361 0.999292,0.57902 2.344134,1.35418 2.988537,1.72774 0.644404,0.37357 1.821141,1.05533 2.614971,1.51295 0.79383,0.46696 1.951888,1.13938 2.568274,1.49427 0.616386,0.36423 1.587661,0.91524 2.148012,1.24211 0.56969,0.32687 1.055327,0.62573 1.083345,0.67242 0.02802,0.056 0.09339,0.0934 0.140087,0.084 0.0467,0 0.392246,0.17745 0.765813,0.39225 l 0.691099,0.39224 -0.05604,2.10132 c -0.02802,1.15806 -0.06537,2.2881 -0.09339,2.52158 -0.02802,0.23348 -0.121409,1.11136 -0.196122,1.96123 -0.168106,1.7651 -0.224141,2.12933 -0.336211,2.20404 -0.0467,0.028 -0.08405,0.028 -0.08405,0.009 0,-0.0187 -0.05604,-0.46696 -0.130749,-1.00863 -0.07471,-0.53233 -0.158766,-1.18607 -0.196123,-1.43823 -0.364228,-2.91383 -0.532333,-3.39946 -0.840526,-2.35348 -0.121409,0.43895 -0.607047,2.95118 -0.607047,3.17533 0,0.0373 -0.03736,0.0467 -0.09339,0.0187 -0.0467,-0.028 -0.09339,-0.14008 -0.09339,-0.23348 0,-0.0934 -0.0467,-0.28951 -0.102731,-0.43894 -0.102731,-0.25216 -0.102731,-0.25216 -0.177445,-0.0654 -0.0467,0.11207 -0.11207,0.54167 -0.149426,0.96193 -0.02802,0.42027 -0.07471,0.74714 -0.08405,0.7378 -0.02802,-0.028 -0.280175,-2.14801 -0.364228,-3.06325 -0.214801,-2.2881 -0.392246,-3.42748 -0.280176,-1.82114 0.12141,1.74642 0.494977,4.98712 0.588369,5.16456 0.121409,0.22414 0.186783,0 0.252158,-0.8592 0.03736,-0.44828 0.102731,-0.83119 0.149427,-0.8592 0.03736,-0.028 0.07471,0.0374 0.07471,0.14008 0,0.10273 0.0467,0.29886 0.102731,0.44828 0.140088,0.37357 0.214801,0.18679 0.45762,-1.13938 0.102731,-0.61638 0.261497,-1.39153 0.345549,-1.72774 0.149427,-0.63507 0.308193,-0.93392 0.308193,-0.57903 0,0.10273 0.03736,0.28951 0.09339,0.41092 0.0467,0.12141 0.196123,1.07401 0.326872,2.12933 0.33621,2.58696 0.364228,2.74572 0.551011,2.68035 0.130749,-0.0467 0.289515,-0.99929 0.429602,-2.63365 0.06537,-0.71912 0.130749,-1.32616 0.149427,-1.34484 0.01868,-0.0187 0.03736,1.35418 0.03736,3.05391 0,1.70907 -0.01868,3.10061 -0.0467,3.10061 -0.01868,0 -0.644403,-0.34555 -1.372859,-0.77516 -0.737796,-0.4296 -2.157351,-1.25145 -3.156643,-1.83047 -0.999292,-0.57903 -2.344134,-1.36352 -2.988538,-1.73709 -4.090561,-2.38149 -5.715578,-3.31541 -7.9196244,-4.5762 l -0.9525964,-0.55101 0.00934,-1.32617 0.00934,-1.32616 0.2708362,-0.11207 c 0.2988537,-0.13075 0.7844911,-0.63506 0.8685437,-0.9059 0.028018,-0.0934 0.1120702,-0.51365 0.1867836,-0.94326 0.084053,-0.4296 0.1867836,-0.84986 0.2334795,-0.92458 0.084053,-0.1681 0.1214094,-0.0374 0.2895146,1.27947 0.1400877,1.01797 0.1867836,1.25145 0.2428187,1.18608 0.074713,-0.0654 -0.3362105,-2.70836 -0.4389415,-2.8111 -0.1307485,-0.14942 -0.1867836,-0.0187 -0.4109239,1.04599 -0.2895146,1.34484 -0.5416724,1.82114 -1.0273098,1.9052 -0.1867836,0.028 -0.1867836,-0.028 -0.205462,-4.15594 -0.018678,-2.29744 0,-4.17461 0.028018,-4.17461 0.037357,0 0.4015847,0.20546 0.8218478,0.45762 z"
       id="path4"
       style="fill:#ffff00;fill-opacity:1;stroke:none;stroke-width:0.00933918" />
    <path
       inkscape:connector-curvature="0"
       d="m 9.7559997,356.39531 c -0.093392,0.30819 -0.1587661,0.80317 -0.2988538,2.32545 -0.074713,0.82185 -0.1774444,1.50361 -0.2334795,1.52229 -0.1494269,0.056 -0.1120702,0.20546 0.046696,0.20546 0.074713,0 0.1400877,-0.028 0.1400877,-0.0747 0,-0.0374 0.037357,-0.42027 0.093392,-0.85921 0.046696,-0.43894 0.1307485,-1.2888 0.1961228,-1.88651 0.056035,-0.60705 0.1400877,-1.08335 0.1774444,-1.05533 0.046696,0.028 0.102731,0.30819 0.1400877,0.62573 0.03736,0.32687 0.08405,0.70977 0.102731,0.86854 0.0093,0.14943 0.07471,0.7378 0.130748,1.30749 0.102731,1.1207 0.364228,3.46483 0.410924,3.68897 0.0467,0.29886 0.168105,0.56035 0.242819,0.56035 0.09339,0 0.280175,-0.60704 0.33621,-1.074 0.03736,-0.31754 0.12141,-0.93392 0.177445,-1.27013 0.01868,-0.12141 0.102731,-0.70978 0.196122,-1.29815 0.214802,-1.42889 0.270837,-1.24211 0.45762,1.49427 0.06538,0.87788 0.224141,2.23206 0.289515,2.44687 0.02802,0.0934 0.08405,0.1681 0.130748,0.1681 0.102731,0 0.494977,-1.21409 0.625725,-1.96123 0.06537,-0.42026 0.597708,-2.65232 0.737796,-3.15664 0.08405,-0.27084 0.177444,-0.46696 0.214801,-0.43894 0.09339,0.056 0.214801,0.98995 0.56969,4.33338 0.345549,3.27805 0.466959,3.4555 0.79383,1.13004 0.196123,-1.41022 0.280176,-1.60634 0.373567,-0.88722 0.11207,0.96193 0.252158,1.56898 0.410924,1.8118 0.08405,0.13075 0.392246,0.084 0.373567,-0.056 -0.04669,-0.27083 0.01868,-0.49497 0.130749,-0.43894 0.07471,0.0467 0.08405,0.0374 0.01868,-0.0374 -0.102731,-0.11207 0.130749,-2.66166 0.261497,-2.78307 0.03736,-0.0374 0.06537,0.0374 0.07471,0.15877 0,0.1214 0.01868,0.28951 0.03736,0.36422 0.01868,0.0747 0.07471,0.36423 0.130749,0.64441 0.168105,0.82184 0.289515,1.22343 0.382906,1.22343 0.09339,0 0.308193,-0.70044 0.719117,-2.42819 0.158766,-0.6444 0.336211,-1.29814 0.401585,-1.44757 0.102731,-0.2615 0.121409,-0.27084 0.186784,-0.084 0.04669,0.11207 0.102731,0.40158 0.130748,0.65374 0.03736,0.25216 0.102731,0.79383 0.149427,1.20475 0.05604,0.41093 0.121409,1.00864 0.158766,1.32617 0.02802,0.32687 0.09339,0.58837 0.130749,0.58837 0.04669,0 0.05603,-0.11207 0.03736,-0.2615 -0.08405,-0.50432 -0.233479,-1.66238 -0.280175,-2.26942 -0.07471,-0.76581 -0.252158,-1.50361 -0.392246,-1.55031 -0.158766,-0.056 -0.392245,0.63507 -0.784491,2.3348 -0.196123,0.8592 -0.364228,1.58766 -0.364228,1.60634 0,0.028 -0.03736,0.0467 -0.08405,0.0467 -0.0467,0 -0.130749,-0.24281 -0.186784,-0.54167 -0.410924,-2.17603 -0.560351,-2.40017 -0.700439,-0.99929 -0.05604,0.50432 -0.186783,1.5503 -0.298853,2.35347 -0.07471,0.523 -0.270836,0.35489 -0.364228,-0.30819 -0.01868,-0.14943 -0.09339,-0.62573 -0.177445,-1.05533 -0.22414,-1.27013 -0.280175,-1.20475 -0.56969,0.64441 -0.121409,0.77515 -0.233479,1.43823 -0.261497,1.45691 -0.06537,0.0747 -0.140087,-0.42027 -0.345549,-2.46555 -0.112071,-1.04598 -0.177445,-1.92387 -0.149427,-1.96122 0.02802,-0.028 0.01868,-0.0934 -0.02802,-0.14943 -0.03736,-0.056 -0.102731,-0.40159 -0.140088,-0.77515 -0.08405,-0.9526 -0.233479,-1.61568 -0.373567,-1.61568 -0.149427,0 -0.420263,0.89656 -0.803169,2.66167 -0.401585,1.79312 -0.653743,2.78307 -0.737795,2.87646 -0.102731,0.10273 -0.158766,-0.41092 -0.34555,-2.72704 -0.07471,-1.04599 -0.196123,-2.03594 -0.261497,-2.1947 l -0.121409,-0.28952 -0.102731,0.37357 c -0.112071,0.3829 -0.354889,1.82114 -0.438942,2.56827 -0.102731,0.9059 -0.252158,1.68106 -0.326871,1.72775 -0.130749,0.084 -0.23348,-0.6444 -0.560351,-4.01585 -0.102731,-1.08334 -0.22414,-2.16669 -0.270836,-2.4095 -0.093392,-0.523 -0.2428186,-0.7378 -0.317532,-0.4763 z"
       id="path6"
       style="fill:#0cff00;fill-opacity:1;stroke:none;stroke-width:0.00933918" />
    <path
       inkscape:connector-curvature="0"
       d="m 44.759246,353.3414 c -0.765812,0.44828 -2.007923,1.16739 -2.755058,1.59699 -0.747134,0.42027 -1.877175,1.07401 -2.521578,1.44758 -0.644404,0.37356 -1.419556,0.82185 -1.727749,0.98995 -0.308193,0.16811 -1.074005,0.60705 -1.69973,0.98061 -1.653035,0.98996 -1.905193,1.11137 -2.007924,0.9526 -0.06537,-0.0934 -0.07471,-0.084 -0.05604,0.0467 0.01868,0.11207 -0.12141,0.25215 -0.45762,0.44828 l -0.485637,0.28017 0.03736,-0.35489 c 0.02802,-0.19612 0.01868,-0.27083 -0.0093,-0.1681 -0.02802,0.10273 -0.07471,0.25216 -0.102731,0.32687 -0.03736,0.0747 -0.06537,0.17744 -0.06537,0.22414 -0.0093,0.0374 -0.34555,0.27084 -0.756474,0.49498 -0.68176,0.3829 -2.484222,1.42889 -2.549596,1.47559 -0.03736,0.0374 -0.01868,11.46851 0.01868,11.50587 0.02802,0.028 1.092684,-0.56035 2.689683,-1.49427 0.476299,-0.28018 1.625018,-0.94326 2.549597,-1.46625 0.924578,-0.53234 2.166689,-1.25145 2.755058,-1.597 0.588368,-0.34555 1.47559,-0.84053 1.961227,-1.11137 0.485638,-0.27083 0.933918,-0.52299 0.980614,-0.56035 0.102731,-0.0841 3.483514,-2.0266 4.66959,-2.68968 0.410924,-0.22414 0.80317,-0.45762 0.868544,-0.52299 0.08405,-0.0841 0.11207,-1.34485 0.09339,-5.87435 l -0.02802,-5.75293 z m 1.25145,3.53021 c -0.0093,2.20404 -0.03736,4.23064 -0.06537,4.51082 l -0.06537,0.51365 -0.607047,0.34555 -0.607046,0.35489 -0.02802,-0.51365 c -0.01868,-0.28018 -0.06537,-0.51366 -0.11207,-0.51366 -0.102731,0 -0.224141,0.77515 -0.158766,1.01797 0.03736,0.14943 -0.07471,0.24282 -0.532334,0.48564 -0.308192,0.16811 -0.840526,0.46696 -1.176736,0.67242 -0.336211,0.20546 -0.644404,0.39225 -0.68176,0.41093 -0.0467,0.028 -0.06538,-0.22414 -0.0467,-0.56969 0.0093,-0.33621 0,-0.61639 -0.03736,-0.61639 -0.09339,0 -0.196123,0.79383 -0.149427,1.07401 0.0467,0.2148 -0.02802,0.28017 -0.803169,0.70043 -0.466959,0.25216 -1.02731,0.56969 -1.242111,0.70044 l -0.401585,0.24282 v -0.52299 c 0,-0.32687 -0.03736,-0.50432 -0.09339,-0.46696 -0.0467,0.028 -0.09339,0.29885 -0.09339,0.58837 v 0.53233 l -1.195415,0.66308 -1.186075,0.66308 -0.02802,-0.41092 c -0.03736,-0.56969 -0.205462,-0.50432 -0.205462,0.084 v 0.49498 l -0.821848,0.45762 c -0.44828,0.25216 -0.989953,0.56035 -1.204754,0.6911 l -0.401585,0.22414 v -0.53234 c 0,-0.43894 -0.01868,-0.51365 -0.130748,-0.4296 -0.06537,0.056 -0.11207,0.2148 -0.08405,0.36423 0.02802,0.2148 0.01868,0.22414 -0.05604,0.0654 -0.08405,-0.17744 -0.09339,-0.17744 -0.09339,0.0187 -0.0093,0.12141 0.03736,0.2148 0.08405,0.2148 0.05604,0 0.09339,0.0934 0.09339,0.20547 0,0.17744 -0.205462,0.33621 -1.102024,0.84052 -1.456912,0.83119 -1.382198,0.81251 -1.344842,0.32687 0.02802,-0.28017 -0.0093,-0.43894 -0.11207,-0.52299 -0.130748,-0.11207 -0.149427,-0.0654 -0.149427,0.48564 v 0.60704 l -0.607046,0.38291 c -0.326872,0.2148 -0.625725,0.38291 -0.653743,0.38291 -0.02802,0 -0.0467,-0.18679 -0.0467,-0.42027 0,-0.23348 -0.02802,-0.42026 -0.06537,-0.42026 -0.06537,0 -0.06537,-1.24211 -0.02802,-7.33126 v -0.74713 l 0.821848,-0.45762 c 0.448281,-0.25216 1.298146,-0.7378 1.886515,-1.08335 0.588368,-0.34555 1.93321,-1.1207 2.988537,-1.72774 4.015848,-2.30678 4.566859,-2.62431 6.005093,-3.44616 0.812509,-0.46696 2.129333,-1.23277 2.941842,-1.70907 0.803169,-0.4763 1.494268,-0.85921 1.540964,-0.86854 0.03736,0 0.06537,1.79312 0.05604,3.98783 z m -0.196122,7.08843 c -0.06538,0.056 -0.364228,0.24282 -0.653743,0.41093 l -0.541672,0.29885 v -0.93392 -0.92458 l 0.635064,-0.33621 0.625725,-0.33621 0.02802,0.84987 c 0.01868,0.60704 -0.0093,0.88722 -0.09339,0.97127 z m -1.456912,-0.0747 -0.02802,0.92458 -1.186076,0.70044 -1.186076,0.70977 -0.02802,-0.89656 c -0.01868,-0.67242 0,-0.92458 0.09339,-0.98061 0.06537,-0.0374 0.607046,-0.35489 1.195415,-0.70978 0.588368,-0.35489 1.092684,-0.65374 1.120701,-0.65374 0.02802,-0.009 0.03736,0.40158 0.01868,0.9059 z m -2.633649,1.50361 v 0.93392 l -0.905901,0.53233 c -0.504315,0.28951 -1.055327,0.60705 -1.214093,0.70978 l -0.308193,0.18678 v -0.92458 l 0.0093,-0.91524 1.186076,-0.70978 c 0.653743,-0.39224 1.195415,-0.71911 1.214093,-0.72845 0.0093,0 0.01868,0.41092 0.01868,0.91524 z m -2.614971,1.56898 v 0.91524 l -0.728456,0.39224 c -0.392245,0.22414 -0.943257,0.53234 -1.204754,0.6911 l -0.494976,0.28952 v -0.92458 l 0.0093,-0.91524 1.13938,-0.67242 c 0.625725,-0.36423 1.167397,-0.67242 1.214093,-0.67242 0.03736,-0.009 0.06537,0.40158 0.06537,0.89656 z m -2.61497,1.49427 v 0.91524 l -0.635064,0.34555 c -0.34555,0.19612 -0.887222,0.50431 -1.204754,0.68176 l -0.588369,0.33621 v -0.91524 l 0.0093,-0.91524 1.13938,-0.67242 c 0.625725,-0.36423 1.167398,-0.67242 1.214094,-0.67242 0.03736,-0.009 0.06537,0.40158 0.06537,0.89656 z m -2.633649,1.50361 v 0.92458 l -1.186076,0.65374 -1.176736,0.66308 -0.0467,-0.85921 c -0.02802,-0.46695 -0.0467,-0.8592 -0.03736,-0.86854 0.0093,-0.028 2.400169,-1.42889 2.428187,-1.42889 0.01868,0 0.02802,0.41092 0.01868,0.91524 z m -2.801754,2.5029 c -0.06537,0.056 -0.364228,0.24282 -0.653742,0.41092 l -0.541673,0.29885 v -0.94325 -0.94326 l 0.635064,-0.31753 0.625726,-0.31753 0.02802,0.84986 c 0.01868,0.59771 -0.0093,0.87788 -0.09339,0.96194 z"
       id="path8"
       style="fill:#ffff00;fill-opacity:1;stroke:none;stroke-width:0.00933918" />
  </g>
  <g
     aria-label="FREQENCY DOMAIN"
     style="font-size:8px;font-family:'Routed Gothic';text-anchor:middle;fill:#e8b923;stroke:none;stroke-width:1px;text-rendering:geometricPrecision"
     id="text104-0">
    <path
       d="m 6.4739577,348.3672 v 0.41406 h -1.03125 q -0.3776042,0 -0.6458334,0.26563 -0.265625,0.26822 -0.265625,0.64322 v 0.46615 h 1.6562501 v 0.41146 H 4.5312493 v 1.78906 h -0.53125 v -2.66667 q 0,-0.54687 0.3880209,-0.93489 0.3880208,-0.38802 0.9348958,-0.38802 z"
       style="font-style:normal;font-variant:normal;font-weight:normal;font-stretch:normal;font-size:5.33333349px;font-family:'Megi Sans';-inkscape-font-specification:'Megi Sans'"
       id="path13916" />
    <path
       d="m 8.0598952,350.1172 q 0.6145833,0 0.8151042,-0.19792 0.171875,-0.16927 0.171875,-0.46875 0,-0.30729 -0.1770834,-0.47656 -0.1979166,-0.19271 -0.5494791,-0.19271 H 7.4270827 v 1.33594 z m -0.6328125,0.3151 v 1.92448 H 6.8958326 v -3.68229 q 0,-0.1276 0.088542,-0.21615 0.091146,-0.0911 0.21875,-0.0911 h 1.2343751 q 0.53125,0 0.8489583,0.32291 0.2890625,0.29167 0.2890625,0.76042 0,0.47136 -0.2942708,0.76302 -0.1901042,0.1875 -0.4713542,0.26563 -0.1354167,0.0286 -0.65625,0.0391 l 1.6822917,1.83854 H 9.1744786 L 7.541666,350.56511 Z"
       style="font-style:normal;font-variant:normal;font-weight:normal;font-stretch:normal;font-size:5.33333349px;font-family:'Megi Sans';-inkscape-font-specification:'Megi Sans'"
       id="path13918" />
    <path
       d="m 12.749999,348.3672 v 0.41406 h -1.213541 q -0.377604,0 -0.645834,0.26563 -0.265625,0.26822 -0.265625,0.64322 v 0.46615 h 1.760417 v 0.41146 h -1.760417 v 0.46614 q 0,0.375 0.265625,0.64323 0.26823,0.26563 0.645834,0.26563 h 1.213541 v 0.41406 h -1.333333 q -0.546875,0 -0.934896,-0.38802 -0.388021,-0.38802 -0.388021,-0.9349 v -1.34375 q 0,-0.54687 0.388021,-0.93489 0.388021,-0.38802 0.934896,-0.38802 z"
       style="font-style:normal;font-variant:normal;font-weight:normal;font-stretch:normal;font-size:5.33333349px;font-family:'Megi Sans';-inkscape-font-specification:'Megi Sans'"
       id="path13920" />
    <path
       d="m 14.947916,348.3672 q 0.546875,0 0.934896,0.38802 0.385417,0.38542 0.385417,0.93489 v 1.34115 q 0,0.54688 -0.385417,0.9349 -0.177083,0.17448 -0.385416,0.27083 l 0.302083,0.76302 H 15.375 l -0.385417,-0.64583 h -0.473958 q -0.546875,0 -0.934896,-0.38802 -0.388021,-0.38802 -0.388021,-0.9349 v -1.34115 q 0,-0.54687 0.388021,-0.93489 0.388021,-0.38802 0.934896,-0.38802 z m -0.3125,0.41406 q -0.377604,0 -0.643229,0.26563 -0.268229,0.26822 -0.268229,0.64322 v 1.34115 q 0,0.375 0.268229,0.64323 0.265625,0.26562 0.643229,0.26562 h 0.192709 q 0.377604,0 0.643229,-0.26562 0.268229,-0.26823 0.268229,-0.64323 v -1.34115 q 0,-0.375 -0.268229,-0.64322 -0.265625,-0.26563 -0.643229,-0.26563 z"
       style="font-style:normal;font-variant:normal;font-weight:normal;font-stretch:normal;font-size:5.33333349px;font-family:'Megi Sans';-inkscape-font-specification:'Megi Sans'"
       id="path13922" />
    <path
       d="m 19.468749,348.3672 v 0.41406 h -1.213541 q -0.377604,0 -0.645834,0.26563 -0.265625,0.26822 -0.265625,0.64322 v 0.46615 h 1.760417 v 0.41146 h -1.760417 v 0.46614 q 0,0.375 0.265625,0.64323 0.26823,0.26563 0.645834,0.26563 h 1.213541 v 0.41406 h -1.333333 q -0.546875,0 -0.934896,-0.38802 -0.388021,-0.38802 -0.388021,-0.9349 v -1.34375 q 0,-0.54687 0.388021,-0.93489 0.388021,-0.38802 0.934896,-0.38802 z"
       style="font-style:normal;font-variant:normal;font-weight:normal;font-stretch:normal;font-size:5.33333349px;font-family:'Megi Sans';-inkscape-font-specification:'Megi Sans'"
       id="path13924" />
    <path
       d="m 22.773437,348.36459 v 3.6849 q 0,0.22917 -0.21875,0.29427 -0.04427,0.013 -0.09115,0.013 h -0.143229 q -0.177083,0 -0.263021,-0.15364 l -1.588541,-3.01823 v 3.17187 h -0.528646 v -3.68489 q 0,-0.22917 0.221354,-0.29428 0.04427,-0.013 0.08594,-0.013 h 0.161459 q 0.158854,0 0.244791,0.15365 l 1.588542,3.01042 v -3.16407 z"
       style="font-style:normal;font-variant:normal;font-weight:normal;font-stretch:normal;font-size:5.33333349px;font-family:'Megi Sans';-inkscape-font-specification:'Megi Sans'"
       id="path13926" />
    <path
       d="m 25.895833,348.3672 v 0.41406 h -1.109375 q -0.377604,0 -0.643229,0.26563 -0.26823,0.26822 -0.26823,0.64322 v 1.34375 q 0,0.375 0.26823,0.64323 0.265625,0.26563 0.643229,0.26563 h 1.109375 v 0.41406 h -1.229167 q -0.546875,0 -0.934896,-0.38802 -0.388021,-0.38802 -0.388021,-0.9349 v -1.34375 q 0,-0.54687 0.388021,-0.93489 0.388021,-0.38802 0.934896,-0.38802 z"
       style="font-style:normal;font-variant:normal;font-weight:normal;font-stretch:normal;font-size:5.33333349px;font-family:'Megi Sans';-inkscape-font-specification:'Megi Sans'"
       id="path13928" />
    <path
       d="m 26.729167,348.3672 0.960938,1.89323 0.960937,-1.89323 h 0.596355 l -1.223959,2.27083 q -0.02865,0.0495 -0.06771,0.0859 v 1.63281 h -0.528646 v -1.63281 q -0.03906,-0.0365 -0.06771,-0.0859 l -1.223959,-2.27083 z"
       style="font-style:normal;font-variant:normal;font-weight:normal;font-stretch:normal;font-size:5.33333349px;font-family:'Megi Sans';-inkscape-font-specification:'Megi Sans'"
       id="path13930" />
    <path
       d="m 32.645834,351.94272 q 0.377604,0 0.645833,-0.26563 0.265625,-0.26823 0.265625,-0.64323 v -1.34375 q 0,-0.375 -0.265625,-0.64322 -0.268229,-0.26563 -0.645833,-0.26563 h -0.958333 v 3.16146 z m 0.119792,-3.57552 q 0.546875,0 0.934895,0.38802 0.388021,0.38802 0.388021,0.93489 v 1.34375 q 0,0.54688 -0.388021,0.9349 -0.38802,0.38802 -0.934895,0.38802 h -1.302084 q -0.127604,0 -0.216146,-0.0911 -0.09114,-0.0885 -0.09114,-0.21615 v -3.375 q 0,-0.1276 0.09114,-0.21615 0.08854,-0.0911 0.216146,-0.0911 z"
       style="font-style:normal;font-variant:normal;font-weight:normal;font-stretch:normal;font-size:5.33333349px;font-family:'Megi Sans';-inkscape-font-specification:'Megi Sans'"
       id="path13932" />
    <path
       d="m 36.395833,348.3672 q 0.546875,0 0.934896,0.38802 0.388021,0.38802 0.388021,0.93489 v 1.34375 q 0,0.54688 -0.388021,0.9349 -0.388021,0.38802 -0.934896,0.38802 h -0.432291 q -0.546875,0 -0.934896,-0.38802 -0.388021,-0.38802 -0.388021,-0.9349 v -1.34375 q 0,-0.54687 0.388021,-0.93489 0.388021,-0.38802 0.934896,-0.38802 z m -0.3125,0.41406 q -0.377604,0 -0.643229,0.26563 -0.268229,0.26822 -0.268229,0.64322 v 1.34375 q 0,0.375 0.268229,0.64323 0.265625,0.26563 0.643229,0.26563 h 0.192709 q 0.377604,0 0.643229,-0.26563 0.268229,-0.26823 0.268229,-0.64323 v -1.34375 q 0,-0.375 -0.268229,-0.64322 -0.265625,-0.26563 -0.643229,-0.26563 z"
       style="font-style:normal;font-variant:normal;font-weight:normal;font-stretch:normal;font-size:5.33333349px;font-family:'Megi Sans';-inkscape-font-specification:'Megi Sans'"
       id="path13934" />
    <path
       d="m 38.088544,352.35678 0.536458,-3.75521 q 0.03646,-0.23437 0.276042,-0.23437 0.239583,0 0.307291,0.1875 l 0.757813,2.21354 q 0.02604,0.0729 0.04948,0.0729 0.02604,0 0.04948,-0.0729 l 0.757813,-2.20573 q 0.06771,-0.19531 0.307291,-0.19531 0.239584,0 0.276042,0.23437 l 0.533854,3.75521 h -0.533854 l -0.359375,-3 -0.721354,2.01823 q -0.05729,0.15625 -0.309896,0.15625 -0.252604,0 -0.309896,-0.15625 l -0.71875,-2.01823 -0.361979,3 z"
       style="font-style:normal;font-variant:normal;font-weight:normal;font-stretch:normal;font-size:5.33333349px;font-family:'Megi Sans';-inkscape-font-specification:'Megi Sans'"
       id="path13936" />
    <path
       d="m 43.66927,348.3672 h 0.200521 q 0.226563,0 0.359375,0.12239 0.101563,0.11459 0.148438,0.28907 0.0651,0.1927 1.085937,3.57812 h -0.5625 q -0.372396,-1.30989 -0.372396,-1.3151 h -1.520833 l -0.372396,1.3151 h -0.5625 q 1.059896,-3.51562 1.117188,-3.67969 0.03906,-0.099 0.104166,-0.17708 0.127604,-0.13281 0.375,-0.13281 z m -0.544271,2.25521 h 1.283855 l -0.45573,-1.69792 q -0.0599,-0.1224 -0.190104,-0.1224 -0.135416,0 -0.1875,0.14844 z"
       style="font-style:normal;font-variant:normal;font-weight:normal;font-stretch:normal;font-size:5.33333349px;font-family:'Megi Sans';-inkscape-font-specification:'Megi Sans'"
       id="path13938" />
    <path
       d="m 46.442708,348.3672 v 3.98958 h -0.53125 v -3.98958 z"
       style="font-style:normal;font-variant:normal;font-weight:normal;font-stretch:normal;font-size:5.33333349px;font-family:'Megi Sans';-inkscape-font-specification:'Megi Sans'"
       id="path13940" />
    <path
       d="m 49.98177,348.36459 v 3.6849 q 0,0.22917 -0.21875,0.29427 -0.04427,0.013 -0.09115,0.013 h -0.143229 q -0.177083,0 -0.263021,-0.15364 l -1.588541,-3.01823 v 3.17187 h -0.528646 v -3.68489 q 0,-0.22917 0.221354,-0.29428 0.04427,-0.013 0.08594,-0.013 h 0.161459 q 0.158854,0 0.244792,0.15365 l 1.588541,3.01042 v -3.16407 z"
       style="font-style:normal;font-variant:normal;font-weight:normal;font-stretch:normal;font-size:5.33333349px;font-family:'Megi Sans';-inkscape-font-specification:'Megi Sans'"
       id="path13942" />
  </g>
  <g
     aria-label="SEND"
     style="font-size:8px;font-family:'Routed Gothic';text-anchor:middle;fill:#e8b923;stroke:none;stroke-width:1px;text-rendering:geometricPrecision"
     id="text106-3"
     transform="translate(-6,1.23445)">
    <path
       d="m 314.48437,326.89493 q 0,0.33984 -0.16015,0.67187 -0.15625,0.33203 -0.44141,0.5625 -0.3125,0.25 -0.73047,0.39063 -0.41406,0.14062 -1,0.14062 -0.6289,0 -1.13281,-0.11718 -0.5,-0.11719 -1.01953,-0.34766 v -0.96875 h 0.0547 q 0.4414,0.36719 1.01953,0.56641 0.57812,0.19921 1.08594,0.19921 0.71875,0 1.11718,-0.26953 0.40235,-0.26953 0.40235,-0.71875 0,-0.38672 -0.19141,-0.57031 -0.1875,-0.18359 -0.57422,-0.28516 -0.29297,-0.0781 -0.63672,-0.1289 -0.33984,-0.0508 -0.72265,-0.12891 -0.77344,-0.16406 -1.14844,-0.55859 -0.37109,-0.39844 -0.37109,-1.03516 0,-0.73047 0.61718,-1.19531 0.61719,-0.46875 1.56641,-0.46875 0.61328,0 1.125,0.11719 0.51172,0.11718 0.90625,0.28906 v 0.91406 h -0.0547 q -0.33203,-0.28125 -0.875,-0.46484 -0.53906,-0.1875 -1.10547,-0.1875 -0.62109,0 -1,0.25781 -0.375,0.25781 -0.375,0.66406 0,0.36328 0.1875,0.57032 0.1875,0.20703 0.66016,0.3164 0.25,0.0547 0.71094,0.13281 0.46093,0.0781 0.78125,0.16016 0.64843,0.17188 0.97656,0.51953 0.32812,0.34766 0.32812,0.97266 z"
       style="font-size:8px;font-family:'Routed Gothic';text-anchor:middle;fill:#e8b923;stroke:none;stroke-width:1px;text-rendering:geometricPrecision"
       id="path13945"
       inkscape:connector-curvature="0" />
    <path
       d="m 319.55859,328.55508 h -3.83203 v -5.8164 h 3.83203 v 0.6875 H 316.5 v 1.59375 h 3.05859 v 0.6875 H 316.5 v 2.16015 h 3.05859 z"
       style="font-size:8px;font-family:'Routed Gothic';text-anchor:middle;fill:#e8b923;stroke:none;stroke-width:1px;text-rendering:geometricPrecision"
       id="path13947"
       inkscape:connector-curvature="0" />
    <path
       d="m 325.22656,328.55508 h -0.95703 l -2.75781,-5.20312 v 5.20312 h -0.72266 v -5.8164 h 1.19922 l 2.51563,4.75 v -4.75 h 0.72265 z"
       style="font-size:8px;font-family:'Routed Gothic';text-anchor:middle;fill:#e8b923;stroke:none;stroke-width:1px;text-rendering:geometricPrecision"
       id="path13949"
       inkscape:connector-curvature="0" />
    <path
       d="m 331.6875,325.65274 q 0,0.79297 -0.34766,1.4375 -0.34375,0.64453 -0.91797,1 -0.39843,0.24609 -0.89062,0.35547 -0.48828,0.10937 -1.28906,0.10937 h -1.46875 v -5.8164 h 1.45312 q 0.85156,0 1.35156,0.125 0.50391,0.12109 0.85157,0.33594 0.59375,0.37109 0.92578,0.98828 0.33203,0.61718 0.33203,1.46484 z m -0.80859,-0.0117 q 0,-0.68359 -0.23829,-1.15234 -0.23828,-0.46875 -0.71093,-0.73828 -0.34375,-0.19532 -0.73047,-0.26953 -0.38672,-0.0781 -0.92578,-0.0781 h -0.72657 v 4.48828 h 0.72657 q 0.55859,0 0.97265,-0.082 0.41797,-0.082 0.76563,-0.30469 0.43359,-0.27734 0.64844,-0.73047 0.21875,-0.45312 0.21875,-1.13281 z"
       style="font-size:8px;font-family:'Routed Gothic';text-anchor:middle;fill:#e8b923;stroke:none;stroke-width:1px;text-rendering:geometricPrecision"
       id="path13951"
       inkscape:connector-curvature="0" />
  </g>
  <g
     aria-label="RET"
     style="font-size:8px;font-family:'Routed Gothic';text-anchor:middle;fill:#e8b923;stroke:none;stroke-width:1px;text-rendering:geometricPrecision"
     id="text106-3-2"
     transform="translate(-4.51501,0.895)">
    <path
       d="m 345.32751,329 h -1.0039 l -1.94531,-2.3125 h -1.08985 V 329 h -0.77344 v -5.81641 h 1.62891 q 0.52734,0 0.87891,0.0703 0.35156,0.0664 0.63281,0.24218 0.31641,0.19922 0.49219,0.50391 0.17968,0.30078 0.17968,0.76562 0,0.62891 -0.3164,1.05469 -0.31641,0.42188 -0.8711,0.63672 z m -1.80859,-4.17969 q 0,-0.25 -0.0898,-0.4414 -0.0859,-0.19532 -0.28907,-0.32813 -0.16796,-0.11328 -0.39843,-0.15625 -0.23047,-0.0469 -0.54297,-0.0469 h -0.91016 v 2.19531 h 0.78125 q 0.36719,0 0.64063,-0.0625 0.27343,-0.0664 0.46484,-0.24219 0.17578,-0.16406 0.25781,-0.375 0.0859,-0.21484 0.0859,-0.54297 z"
       style="font-size:8px;font-family:'Routed Gothic';text-anchor:middle;fill:#e8b923;stroke:none;stroke-width:1px;text-rendering:geometricPrecision"
       id="path13954"
       inkscape:connector-curvature="0" />
    <path
       d="m 349.90955,329 h -3.83204 v -5.81641 h 3.83204 v 0.6875 h -3.0586 v 1.59375 h 3.0586 v 0.6875 h -3.0586 v 2.16016 h 3.0586 z"
       style="font-size:8px;font-family:'Routed Gothic';text-anchor:middle;fill:#e8b923;stroke:none;stroke-width:1px;text-rendering:geometricPrecision"
       id="path13956"
       inkscape:connector-curvature="0" />
    <path
       d="m 355.28845,323.87109 h -2.07812 V 329 h -0.77344 v -5.12891 h -2.07813 v -0.6875 h 4.92969 z"
       style="font-size:8px;font-family:'Routed Gothic';text-anchor:middle;fill:#e8b923;stroke:none;stroke-width:1px;text-rendering:geometricPrecision"
       id="path13958"
       inkscape:connector-curvature="0" />
  </g>
</svg>
