<?xml version="1.0" encoding="UTF-8" standalone="no"?>
<svg
   xmlns:dc="http://purl.org/dc/elements/1.1/"
   xmlns:cc="http://creativecommons.org/ns#"
   xmlns:rdf="http://www.w3.org/1999/02/22-rdf-syntax-ns#"
   xmlns:svg="http://www.w3.org/2000/svg"
   xmlns="http://www.w3.org/2000/svg"
   xmlns:xlink="http://www.w3.org/1999/xlink"
   xmlns:sodipodi="http://sodipodi.sourceforge.net/DTD/sodipodi-0.dtd"
   xmlns:inkscape="http://www.inkscape.org/namespaces/inkscape"
   height="380"
   style="zoom: 8;"
   cursor="default"
   id="SvgjsSvg1006"
   sodipodi:docname="DelayedReaction.svg"
   inkscape:version="0.92.2 (5c3e80d, 2017-08-06)"
   width="450"
   version="1.1">
  <metadata
     id="metadata7215">
    <rdf:RDF>
      <cc:Work
         rdf:about="">
        <dc:format>image/svg+xml</dc:format>
        <dc:type
           rdf:resource="http://purl.org/dc/dcmitype/StillImage" />
        <dc:title></dc:title>
      </cc:Work>
    </rdf:RDF>
  </metadata>
  <sodipodi:namedview
     borderopacity="1"
     inkscape:zoom="2.9512404"
     inkscape:cy="141.54065"
     gridtolerance="10"
     inkscape:cx="163.94267"
     inkscape:window-height="1057"
     inkscape:measure-start="21.6858,252.097"
     inkscape:pagecheckerboard="true"
     inkscape:window-width="1920"
     guidetolerance="10"
     id="namedview7213"
     showgrid="false"
     inkscape:pageopacity="0"
     inkscape:pageshadow="2"
     bordercolor="#666666"
     inkscape:current-layer="SvgjsSvg1006"
     inkscape:window-maximized="1"
     inkscape:window-y="-8"
     inkscape:measure-end="21.0081,301.907"
     objecttolerance="10"
     pagecolor="#ffffff"
     inkscape:window-x="-8"
     visibility="visible" />
  <defs
     id="SvgjsDefs1007">
    <linearGradient
       inkscape:collect="always"
       id="linearGradientInner">
      <stop
         style="stop-color:#3d1a30;stop-opacity:1;"
         offset="0"
         id="stop1" />
      <stop
         style="stop-color:#391727;stop-opacity:1;"
         offset="1"
         id="stop2" />
    </linearGradient>
    <linearGradient
       inkscape:collect="always"
       xlink:href="#linearGradientInner"
       id="linearGradientOuter"
       x1="0"
       y1="0"
       x2="450"
       y2="380"
       gradientUnits="userSpaceOnUse" />
    <style
       id="Routed Gothic">@import url(file://fonts/routed-gothic.ttf);</style>
  </defs>
  <path
     d="M0,0 H450 V380 H0 Z"
     id="SvgjsRect1008"
     style="fill:url(#linearGradientOuter);fill-opacity:1;stroke:none;stroke-opacity:1"
     visibility="visible" />
  <g
     aria-label="DELAYED REACTION"
     style="font-size:16px;font-family:'Routed Gothic';text-anchor:middle;fill:#e8b923;stroke:none;stroke-width:1px;text-rendering:geometricPrecision"
     id="text5">
    <path
       d="m 154.29687,12.195313 q 0,1.585937 -0.69531,2.875 -0.6875,1.289062 -1.83594,1.999999 -0.79687,0.492188 -1.78125,0.710938 Q 149.00781,18 147.40625,18 h -2.9375 V 6.3671875 h 2.90625 q 1.70312,0 2.70312,0.25 1.00782,0.2421875 1.70313,0.671875 1.1875,0.7421875 1.85156,1.9765625 0.66406,1.234375 0.66406,2.929688 z m -1.61718,-0.02344 q 0,-1.367187 -0.47657,-2.3046875 -0.47656,-0.9375 -1.42187,-1.4765625 Q 150.09375,8 149.32031,7.8515625 q -0.77344,-0.15625 -1.85156,-0.15625 h -1.45313 v 8.9765625 h 1.45313 q 1.11719,0 1.94531,-0.164063 0.83594,-0.164062 1.53125,-0.609374 0.86719,-0.554688 1.29688,-1.460938 0.4375,-0.90625 0.4375,-2.265625 z"
       style="font-size:16px;font-family:'Routed Gothic';text-anchor:middle;fill:#e8b923;stroke:none;stroke-width:1px;text-rendering:geometricPrecision"
       id="path10517" />
    <path
       d="M 164.47656,18 H 156.8125 V 6.3671875 h 7.66406 v 1.375 h -6.11719 v 3.1875005 h 6.11719 v 1.375 h -6.11719 V 16.625 h 6.11719 z"
       style="font-size:16px;font-family:'Routed Gothic';text-anchor:middle;fill:#e8b923;stroke:none;stroke-width:1px;text-rendering:geometricPrecision"
       id="path10519" />
    <path
       d="M 174.29687,18 H 166.9375 V 6.3671875 h 1.54687 V 16.625 h 5.8125 z"
       style="font-size:16px;font-family:'Routed Gothic';text-anchor:middle;fill:#e8b923;stroke:none;stroke-width:1px;text-rendering:geometricPrecision"
       id="path10521" />
    <path
       d="m 185.01562,18 h -1.64843 l -1.14063,-3.242187 h -5.03125 L 176.05469,18 h -1.57032 l 4.23438,-11.6328125 h 2.0625 z M 181.75,13.429688 179.71094,7.71875 l -2.04688,5.710938 z"
       style="font-size:16px;font-family:'Routed Gothic';text-anchor:middle;fill:#e8b923;stroke:none;stroke-width:1px;text-rendering:geometricPrecision"
       id="path10523" />
    <path
       d="m 194.39062,6.3671875 -4.09375,6.5312505 V 18 H 188.75 v -4.9375 l -4.10938,-6.6953125 h 1.71094 l 3.17969,5.2031255 3.21094,-5.2031255 z"
       style="font-size:16px;font-family:'Routed Gothic';text-anchor:middle;fill:#e8b923;stroke:none;stroke-width:1px;text-rendering:geometricPrecision"
       id="path10525" />
    <path
       d="M 203.66406,18 H 196 V 6.3671875 h 7.66406 v 1.375 h -6.11719 v 3.1875005 h 6.11719 v 1.375 h -6.11719 V 16.625 h 6.11719 z"
       style="font-size:16px;font-family:'Routed Gothic';text-anchor:middle;fill:#e8b923;stroke:none;stroke-width:1px;text-rendering:geometricPrecision"
       id="path10527" />
    <path
       d="m 215.95312,12.195313 q 0,1.585937 -0.69531,2.875 -0.6875,1.289062 -1.83594,1.999999 Q 212.625,17.5625 211.64062,17.78125 210.66406,18 209.0625,18 H 206.125 V 6.3671875 h 2.90625 q 1.70312,0 2.70312,0.25 1.00782,0.2421875 1.70313,0.671875 1.1875,0.7421875 1.85156,1.9765625 0.66406,1.234375 0.66406,2.929688 z m -1.61718,-0.02344 q 0,-1.367187 -0.47657,-2.3046875 -0.47656,-0.9375 -1.42187,-1.4765625 Q 211.75,8 210.97656,7.8515625 q -0.77344,-0.15625 -1.85156,-0.15625 h -1.45313 v 8.9765625 h 1.45313 q 1.11719,0 1.94531,-0.164063 0.83594,-0.164062 1.53125,-0.609374 0.86719,-0.554688 1.29688,-1.460938 0.4375,-0.90625 0.4375,-2.265625 z"
       style="font-size:16px;font-family:'Routed Gothic';text-anchor:middle;fill:#e8b923;stroke:none;stroke-width:1px;text-rendering:geometricPrecision"
       id="path10529" />
    <path
       d="m 233.71875,18 h -2.00781 l -3.89063,-4.625 h -2.17969 V 18 h -1.54687 V 6.3671875 h 3.25781 q 1.05469,0 1.75781,0.140625 0.70313,0.1328125 1.26563,0.484375 Q 231.00781,7.390625 231.35937,8 q 0.35938,0.6015625 0.35938,1.53125 0,1.257813 -0.63281,2.109375 -0.63282,0.84375 -1.74219,1.273438 z m -3.61719,-8.359375 q 0,-0.5 -0.17969,-0.8828125 -0.17187,-0.390625 -0.57812,-0.65625 -0.33594,-0.2265625 -0.79688,-0.3125 -0.46093,-0.09375 -1.08593,-0.09375 h -1.82032 v 4.3906255 h 1.5625 q 0.73438,0 1.28125,-0.125 0.54688,-0.132813 0.92969,-0.484375 0.35156,-0.328125 0.51563,-0.75 0.17187,-0.429688 0.17187,-1.085938 z"
       style="font-size:16px;font-family:'Routed Gothic';text-anchor:middle;fill:#e8b923;stroke:none;stroke-width:1px;text-rendering:geometricPrecision"
       id="path10531" />
    <path
       d="m 242.88281,18 h -7.66406 V 6.3671875 h 7.66406 v 1.375 h -6.11719 v 3.1875005 h 6.11719 v 1.375 h -6.11719 V 16.625 h 6.11719 z"
       style="font-size:16px;font-family:'Routed Gothic';text-anchor:middle;fill:#e8b923;stroke:none;stroke-width:1px;text-rendering:geometricPrecision"
       id="path10533" />
    <path
       d="m 254.51562,18 h -1.64843 l -1.14063,-3.242187 h -5.03125 L 245.55469,18 h -1.57032 l 4.23438,-11.6328125 h 2.0625 z M 251.25,13.429688 249.21094,7.71875 l -2.04688,5.710938 z"
       style="font-size:16px;font-family:'Routed Gothic';text-anchor:middle;fill:#e8b923;stroke:none;stroke-width:1px;text-rendering:geometricPrecision"
       id="path10535" />
    <path
       d="m 265.26562,17.15625 q -0.42968,0.1875 -0.78125,0.351562 -0.34375,0.164063 -0.90625,0.34375 -0.47656,0.148438 -1.03906,0.25 -0.55469,0.109375 -1.22656,0.109375 -1.26563,0 -2.30469,-0.351562 Q 257.97656,17.5 257.21094,16.742187 256.46094,16 256.03906,14.859375 q -0.42187,-1.148437 -0.42187,-2.664062 0,-1.4375 0.40625,-2.570313 0.40625,-1.1328125 1.17187,-1.9140625 0.74219,-0.7578125 1.78906,-1.15625 1.05469,-0.3984375 2.33594,-0.3984375 0.9375,0 1.86719,0.2265625 0.9375,0.2265625 2.07812,0.796875 V 9.015625 h -0.11718 q -0.96094,-0.8046875 -1.90625,-1.171875 -0.94532,-0.3671875 -2.02344,-0.3671875 -0.88281,0 -1.59375,0.2890625 -0.70313,0.28125 -1.25781,0.8828125 -0.53907,0.5859375 -0.84375,1.4843755 -0.29688,0.890625 -0.29688,2.0625 0,1.226562 0.32813,2.109375 0.33593,0.882812 0.85937,1.4375 0.54688,0.578124 1.27344,0.859374 0.73437,0.273438 1.54687,0.273438 1.11719,0 2.09375,-0.382813 0.97657,-0.382812 1.82813,-1.148437 h 0.10937 z"
       style="font-size:16px;font-family:'Routed Gothic';text-anchor:middle;fill:#e8b923;stroke:none;stroke-width:1px;text-rendering:geometricPrecision"
       id="path10537" />
    <path
       d="m 275.76562,7.7421875 h -4.15625 V 18 H 270.0625 V 7.7421875 h -4.15625 v -1.375 h 9.85937 z"
       style="font-size:16px;font-family:'Routed Gothic';text-anchor:middle;fill:#e8b923;stroke:none;stroke-width:1px;text-rendering:geometricPrecision"
       id="path10539" />
    <path
       d="m 281.44531,18 h -4.59375 V 16.8125 H 278.375 V 7.5546875 h -1.52344 v -1.1875 h 4.59375 v 1.1875 h -1.52344 V 16.8125 h 1.52344 z"
       style="font-size:16px;font-family:'Routed Gothic';text-anchor:middle;fill:#e8b923;stroke:none;stroke-width:1px;text-rendering:geometricPrecision"
       id="path10541" />
    <path
       d="m 292.76562,7.703125 q 0.71094,0.78125 1.08594,1.9140625 0.38281,1.1328125 0.38281,2.5703125 0,1.4375 -0.39062,2.578125 -0.38281,1.132813 -1.07813,1.890625 -0.71875,0.789062 -1.70312,1.1875 -0.97656,0.398437 -2.23438,0.398437 -1.22656,0 -2.23437,-0.40625 -1,-0.40625 -1.70313,-1.179687 -0.70312,-0.773437 -1.08593,-1.898437 -0.375,-1.125 -0.375,-2.570313 0,-1.421875 0.375,-2.546875 0.375,-1.1328125 1.09375,-1.9375 0.6875,-0.765625 1.70312,-1.171875 1.02344,-0.40625 2.22656,-0.40625 1.25,0 2.24219,0.4140625 1,0.40625 1.69531,1.1640625 z M 292.625,12.1875 q 0,-2.265625 -1.01563,-3.4921875 -1.01562,-1.234375 -2.77343,-1.234375 -1.77344,0 -2.78907,1.234375 -1.00781,1.2265625 -1.00781,3.4921875 0,2.289063 1.03125,3.507813 1.03125,1.210937 2.76563,1.210937 1.73437,0 2.75781,-1.210937 1.03125,-1.21875 1.03125,-3.507813 z"
       style="font-size:16px;font-family:'Routed Gothic';text-anchor:middle;fill:#e8b923;stroke:none;stroke-width:1px;text-rendering:geometricPrecision"
       id="path10543" />
    <path
       d="m 305.5625,18 h -1.91406 L 298.13281,7.59375 V 18 H 296.6875 V 6.3671875 h 2.39844 l 5.03125,9.5000005 V 6.3671875 h 1.44531 z"
       style="font-size:16px;font-family:'Routed Gothic';text-anchor:middle;fill:#e8b923;stroke:none;stroke-width:1px;text-rendering:geometricPrecision"
       id="path10545" />
  </g>
  <g
     aria-label="MIX"
     style="font-size:8px;font-family:'Routed Gothic';text-anchor:middle;fill:#e8b923;stroke:none;stroke-width:1px;text-rendering:geometricPrecision"
     id="text70">
    <path
       d="m 307.15625,370 h -0.77344 v -5.01172 l -1.61719,3.41016 h -0.46093 l -1.60547,-3.41016 V 370 h -0.72266 v -5.81641 h 1.05469 l 1.55078,3.23828 1.5,-3.23828 h 1.07422 z"
       style="font-size:8px;font-family:'Routed Gothic';text-anchor:middle;fill:#e8b923;stroke:none;stroke-width:1px;text-rendering:geometricPrecision"
       id="path10548" />
    <path
       d="m 310.77734,370 h -2.29687 v -0.59375 h 0.76172 v -4.62891 h -0.76172 v -0.59375 h 2.29687 v 0.59375 h -0.76172 v 4.62891 h 0.76172 z"
       style="font-size:8px;font-family:'Routed Gothic';text-anchor:middle;fill:#e8b923;stroke:none;stroke-width:1px;text-rendering:geometricPrecision"
       id="path10550" />
    <path
       d="m 316.53906,364.18359 -2.00781,2.875 2.00391,2.94141 h -0.89454 l -1.58593,-2.39453 -1.625,2.39453 h -0.84375 l 2.02734,-2.90625 -1.98047,-2.91016 h 0.89063 l 1.5664,2.36328 1.60157,-2.36328 z"
       style="font-size:8px;font-family:'Routed Gothic';text-anchor:middle;fill:#e8b923;stroke:none;stroke-width:1px;text-rendering:geometricPrecision"
       id="path10552" />
  </g>
  <g
     aria-label="INPUT"
     style="font-size:8px;font-family:'Routed Gothic';text-anchor:middle;fill:#e8b923;stroke:none;stroke-width:1px;text-rendering:geometricPrecision"
     id="text106">
    <path
       d="M 232.29687,369.87891 H 230 v -0.59375 h 0.76172 v -4.62891 H 230 v -0.59375 h 2.29687 v 0.59375 h -0.76171 v 4.62891 h 0.76171 z"
       style="font-size:8px;font-family:'Routed Gothic';text-anchor:middle;fill:#e8b923;stroke:none;stroke-width:1px;text-rendering:geometricPrecision"
       id="path10555" />
    <path
       d="m 238.05859,369.87891 h -0.95703 l -2.75781,-5.20313 v 5.20313 h -0.72266 v -5.81641 h 1.19922 l 2.51563,4.75 v -4.75 h 0.72265 z"
       style="font-size:8px;font-family:'Routed Gothic';text-anchor:middle;fill:#e8b923;stroke:none;stroke-width:1px;text-rendering:geometricPrecision"
       id="path10557" />
    <path
       d="m 243.41016,365.82031 q 0,0.38672 -0.13672,0.71875 -0.13282,0.32813 -0.375,0.57031 -0.30078,0.30079 -0.71094,0.45313 -0.41016,0.14844 -1.03516,0.14844 h -0.77343 v 2.16797 h -0.77344 v -5.81641 h 1.57812 q 0.52344,0 0.88672,0.0898 0.36328,0.0859 0.64453,0.27344 0.33203,0.22266 0.51172,0.55469 0.1836,0.33203 0.1836,0.83984 z m -0.80469,0.0195 q 0,-0.30078 -0.10547,-0.52343 -0.10547,-0.22266 -0.32031,-0.36329 -0.1875,-0.12109 -0.42969,-0.17187 -0.23828,-0.0547 -0.60547,-0.0547 h -0.76562 v 2.32422 h 0.65234 q 0.46875,0 0.76172,-0.082 0.29297,-0.0859 0.47656,-0.26953 0.18359,-0.1875 0.25781,-0.39453 0.0781,-0.20703 0.0781,-0.46485 z"
       style="font-size:8px;font-family:'Routed Gothic';text-anchor:middle;fill:#e8b923;stroke:none;stroke-width:1px;text-rendering:geometricPrecision"
       id="path10559" />
    <path
       d="m 248.8125,367.54297 q 0,0.63281 -0.14063,1.10547 -0.13671,0.46875 -0.45312,0.78125 -0.30078,0.29687 -0.70313,0.43359 Q 247.11328,370 246.57812,370 q -0.54687,0 -0.95312,-0.14453 -0.40625,-0.14453 -0.68359,-0.42578 -0.31641,-0.32032 -0.45704,-0.77344 -0.13671,-0.45313 -0.13671,-1.11328 v -3.48047 h 0.77343 v 3.51953 q 0,0.47266 0.0625,0.74609 0.0664,0.27344 0.21875,0.4961 0.17188,0.2539 0.46485,0.38281 0.29687,0.12891 0.71093,0.12891 0.41797,0 0.71094,-0.125 0.29297,-0.12891 0.46875,-0.38672 0.15235,-0.22266 0.21485,-0.50781 0.0664,-0.28907 0.0664,-0.71485 v -3.53906 h 0.77344 z"
       style="font-size:8px;font-family:'Routed Gothic';text-anchor:middle;fill:#e8b923;stroke:none;stroke-width:1px;text-rendering:geometricPrecision"
       id="path10561" />
    <path
       d="m 254.44141,364.75 h -2.07813 v 5.12891 h -0.77344 V 364.75 h -2.07812 v -0.6875 h 4.92969 z"
       style="font-size:8px;font-family:'Routed Gothic';text-anchor:middle;fill:#e8b923;stroke:none;stroke-width:1px;text-rendering:geometricPrecision"
       id="path10563" />
  </g>
  <g
     aria-label="OUTPUT"
     style="font-size:8px;font-family:'Routed Gothic';text-anchor:middle;fill:#e8b923;stroke:none;stroke-width:1px;text-rendering:geometricPrecision"
     id="text108">
    <path
       d="m 373.75781,364.73047 q 0.35547,0.39062 0.54297,0.95703 0.19141,0.56641 0.19141,1.28516 0,0.71875 -0.19532,1.28906 -0.1914,0.5664 -0.53906,0.94531 -0.35937,0.39453 -0.85156,0.59375 Q 372.41797,370 371.78906,370 q -0.61328,0 -1.11719,-0.20313 -0.5,-0.20312 -0.85156,-0.58984 -0.35156,-0.38672 -0.54297,-0.94922 -0.1875,-0.5625 -0.1875,-1.28515 0,-0.71094 0.1875,-1.27344 0.1875,-0.56641 0.54688,-0.96875 0.34375,-0.38281 0.85156,-0.58594 0.51172,-0.20312 1.11328,-0.20312 0.625,0 1.1211,0.20703 0.5,0.20312 0.84765,0.58203 z m -0.0703,2.24219 q 0,-1.13282 -0.50781,-1.7461 -0.50782,-0.61719 -1.38672,-0.61719 -0.88672,0 -1.39453,0.61719 -0.50391,0.61328 -0.50391,1.7461 0,1.14453 0.51563,1.7539 0.51562,0.60547 1.38281,0.60547 0.86719,0 1.3789,-0.60547 0.51563,-0.60937 0.51563,-1.7539 z"
       style="font-size:8px;font-family:'Routed Gothic';text-anchor:middle;fill:#e8b923;stroke:none;stroke-width:1px;text-rendering:geometricPrecision"
       id="path10566" />
    <path
       d="m 380.09766,367.54297 q 0,0.63281 -0.14063,1.10547 -0.13672,0.46875 -0.45312,0.78125 -0.30079,0.29687 -0.70313,0.43359 Q 378.39844,370 377.86328,370 q -0.54687,0 -0.95312,-0.14453 -0.40625,-0.14453 -0.6836,-0.42578 -0.3164,-0.32032 -0.45703,-0.77344 -0.13672,-0.45313 -0.13672,-1.11328 v -3.48047 h 0.77344 v 3.51953 q 0,0.47266 0.0625,0.74609 0.0664,0.27344 0.21875,0.4961 0.17187,0.2539 0.46484,0.38281 0.29688,0.12891 0.71094,0.12891 0.41797,0 0.71094,-0.125 0.29297,-0.12891 0.46875,-0.38672 0.15234,-0.22266 0.21484,-0.50781 0.0664,-0.28907 0.0664,-0.71485 v -3.53906 h 0.77344 z"
       style="font-size:8px;font-family:'Routed Gothic';text-anchor:middle;fill:#e8b923;stroke:none;stroke-width:1px;text-rendering:geometricPrecision"
       id="path10568" />
    <path
       d="m 385.72656,364.75 h -2.07812 v 5.12891 H 382.875 V 364.75 h -2.07813 v -0.6875 h 4.92969 z"
       style="font-size:8px;font-family:'Routed Gothic';text-anchor:middle;fill:#e8b923;stroke:none;stroke-width:1px;text-rendering:geometricPrecision"
       id="path10570" />
    <path
       d="m 390.32031,365.82031 q 0,0.38672 -0.13672,0.71875 -0.13281,0.32813 -0.375,0.57031 -0.30078,0.30079 -0.71093,0.45313 -0.41016,0.14844 -1.03516,0.14844 h -0.77344 v 2.16797 h -0.77344 v -5.81641 h 1.57813 q 0.52344,0 0.88672,0.0898 0.36328,0.0859 0.64453,0.27344 0.33203,0.22266 0.51172,0.55469 0.18359,0.33203 0.18359,0.83984 z m -0.80469,0.0195 q 0,-0.30078 -0.10546,-0.52343 -0.10547,-0.22266 -0.32032,-0.36329 -0.1875,-0.12109 -0.42968,-0.17187 -0.23829,-0.0547 -0.60547,-0.0547 h -0.76563 v 2.32422 h 0.65235 q 0.46875,0 0.76171,-0.082 0.29297,-0.0859 0.47657,-0.26953 0.18359,-0.1875 0.25781,-0.39453 0.0781,-0.20703 0.0781,-0.46485 z"
       style="font-size:8px;font-family:'Routed Gothic';text-anchor:middle;fill:#e8b923;stroke:none;stroke-width:1px;text-rendering:geometricPrecision"
       id="path10572" />
    <path
       d="m 395.72266,367.54297 q 0,0.63281 -0.14063,1.10547 -0.13672,0.46875 -0.45312,0.78125 -0.30079,0.29687 -0.70313,0.43359 Q 394.02344,370 393.48828,370 q -0.54687,0 -0.95312,-0.14453 -0.40625,-0.14453 -0.6836,-0.42578 -0.3164,-0.32032 -0.45703,-0.77344 -0.13672,-0.45313 -0.13672,-1.11328 v -3.48047 h 0.77344 v 3.51953 q 0,0.47266 0.0625,0.74609 0.0664,0.27344 0.21875,0.4961 0.17187,0.2539 0.46484,0.38281 0.29688,0.12891 0.71094,0.12891 0.41797,0 0.71094,-0.125 0.29297,-0.12891 0.46875,-0.38672 0.15234,-0.22266 0.21484,-0.50781 0.0664,-0.28907 0.0664,-0.71485 v -3.53906 h 0.77344 z"
       style="font-size:8px;font-family:'Routed Gothic';text-anchor:middle;fill:#e8b923;stroke:none;stroke-width:1px;text-rendering:geometricPrecision"
       id="path10574" />
    <path
       d="m 401.35156,364.75 h -2.07812 v 5.12891 H 398.5 V 364.75 h -2.07813 v -0.6875 h 4.92969 z"
       style="font-size:8px;font-family:'Routed Gothic';text-anchor:middle;fill:#e8b923;stroke:none;stroke-width:1px;text-rendering:geometricPrecision"
       id="path10576" />
  </g>
  <g
     transform="matrix(0.07503345,0,0,0.06940968,14.729215,342.22479)"
     id="g6">
    <g
       id="g4">
      <path
         inkscape:connector-curvature="0"
         d="m 438.327,328.191 c -0.939,-0.946 -2.216,-1.479 -3.549,-1.479 -36.364,0 -62.337,-27.428 -77.199,-81.522 -11.417,-41.552 -11.525,-83.792 -11.525,-84.218 V 124.361 C 346.053,55.788 290.266,0 221.693,0 153.12,0 97.333,55.788 97.333,124.361 v 36.615 c 0,0.421 -0.108,42.662 -11.525,84.214 -14.862,54.094 -40.835,81.522 -77.199,81.522 -1.333,0 -2.611,0.532 -3.549,1.479 -0.939,0.946 -1.461,2.228 -1.451,3.561 0.008,0.945 0.39,23.315 18.265,38.641 13.955,11.965 34.286,16.09 60.427,12.265 47.535,-6.957 58.661,2.664 72.713,26.277 19.442,32.674 56.13,34.45 66.68,34.45 11.711,0 47.239,-1.778 66.68,-34.45 14.052,-23.613 25.178,-33.234 72.713,-26.278 26.141,3.825 46.472,-0.3 60.427,-12.265 17.875,-15.326 18.257,-37.696 18.265,-38.641 0.009,-1.331 -0.513,-2.613 -1.452,-3.56 z m -23.418,34.691 c -11.664,9.937 -29.286,13.26 -52.375,9.881 -50.909,-7.45 -66.089,3.054 -82.755,31.059 -18.276,30.714 -58.085,29.578 -58.085,29.578 0,0 -39.735,1.263 -58.087,-29.578 -16.666,-28.004 -31.85,-38.51 -82.755,-31.058 -23.089,3.379 -40.711,0.055 -52.376,-9.881 -9.918,-8.45 -13.226,-19.943 -14.324,-26.362 38.057,-2.684 66.115,-33.267 81.347,-88.856 11.739,-42.843 11.835,-84.926 11.834,-86.691 V 124.363 C 107.333,61.302 158.634,10 221.693,10 c 63.059,0 114.36,51.302 114.36,114.361 v 36.607 c -10e-4,1.77 0.095,43.853 11.833,86.696 15.232,55.589 43.289,86.172 81.346,88.855 -1.099,6.426 -4.407,17.916 -14.323,26.363 z"
         id="path2"
         style="fill:#e8b923" />
    </g>
  </g>
  <path
     style="fill:#0000ff;fill-rule:evenodd;stroke-width:0.07216682"
     d="m 26.794918,348.19574 h 2.691372 v 1.56756 h -2.691372 z"
     id="rect57" />
  <path
     style="fill:#0000ff;fill-rule:evenodd;stroke-width:0.07216682"
     d="m 32.972378,348.23376 h 2.691371 v 1.56756 h -2.691371 z"
     id="rect57-7" />
  <g
     aria-label="SPECTRE"
     style="font-size:3px;font-family:'Routed Gothic';text-anchor:middle;fill:#e8b923;stroke:none;stroke-width:0.5px;text-rendering:geometricPrecision"
     id="text67">
    <path
       d="m 26.514454,355.87411 q 0,0.12745 -0.06006,0.25196 -0.05859,0.12451 -0.165527,0.21094 -0.117188,0.0937 -0.273926,0.14648 -0.155273,0.0527 -0.375,0.0527 -0.23584,0 -0.424805,-0.0439 -0.1875,-0.0439 -0.382324,-0.13037 v -0.36328 h 0.02051 q 0.165527,0.13769 0.382324,0.2124 0.216797,0.0747 0.407227,0.0747 0.269531,0 0.418945,-0.10108 0.150879,-0.10107 0.150879,-0.26953 0,-0.14502 -0.07178,-0.21387 -0.07031,-0.0688 -0.215332,-0.10693 -0.109864,-0.0293 -0.23877,-0.0483 -0.127441,-0.019 -0.270996,-0.0483 -0.290039,-0.0615 -0.430664,-0.20947 -0.13916,-0.14942 -0.13916,-0.38819 0,-0.27392 0.231445,-0.44824 0.231445,-0.17578 0.587403,-0.17578 0.22998,0 0.421875,0.044 0.191894,0.0439 0.339843,0.10839 v 0.34278 h -0.02051 q -0.124511,-0.10547 -0.328125,-0.17432 -0.202148,-0.0703 -0.41455,-0.0703 -0.23291,0 -0.375,0.0967 -0.140625,0.0967 -0.140625,0.24902 0,0.13623 0.07031,0.21387 0.07031,0.0776 0.247559,0.11865 0.09375,0.0205 0.266601,0.0498 0.172852,0.0293 0.292969,0.0601 0.243164,0.0645 0.366211,0.19483 0.123047,0.13037 0.123047,0.36474 z"
       style="font-size:3px;font-family:'Routed Gothic';text-anchor:middle;fill:#e8b923;stroke:none;stroke-width:0.5px;text-rendering:geometricPrecision"
       id="path10581" />
    <path
       d="m 28.407032,354.9747 q 0,0.14502 -0.05127,0.26953 -0.0498,0.12305 -0.140625,0.21387 -0.112792,0.11279 -0.266601,0.16992 -0.153809,0.0557 -0.388184,0.0557 h -0.290039 v 0.81298 h -0.290039 v -2.18115 h 0.591797 q 0.196289,0 0.33252,0.0337 0.13623,0.0322 0.241699,0.10254 0.124512,0.0835 0.191894,0.20801 0.06885,0.12451 0.06885,0.31494 z m -0.301758,0.007 q 0,-0.1128 -0.03955,-0.19629 -0.03955,-0.0835 -0.120117,-0.13623 -0.07031,-0.0454 -0.161133,-0.0645 -0.08935,-0.0205 -0.22705,-0.0205 h -0.28711 v 0.87159 h 0.244629 q 0.175781,0 0.285645,-0.0308 0.109863,-0.0322 0.178711,-0.10107 0.06885,-0.0703 0.09668,-0.14795 0.0293,-0.0776 0.0293,-0.17431 z"
       style="font-size:3px;font-family:'Routed Gothic';text-anchor:middle;fill:#e8b923;stroke:none;stroke-width:0.5px;text-rendering:geometricPrecision"
       id="path10583" />
    <path
       d="m 30.227833,356.49667 h -1.437012 v -2.18115 h 1.437012 v 0.25781 H 29.08086 v 0.59766 h 1.146973 v 0.25781 H 29.08086 v 0.81006 h 1.146973 z"
       style="font-size:3px;font-family:'Routed Gothic';text-anchor:middle;fill:#e8b923;stroke:none;stroke-width:0.5px;text-rendering:geometricPrecision"
       id="path10585" />
    <path
       d="m 32.373829,356.33847 q -0.08057,0.0352 -0.146484,0.0659 -0.06445,0.0308 -0.169922,0.0645 -0.08936,0.0278 -0.194825,0.0469 -0.104003,0.0205 -0.22998,0.0205 -0.237305,0 -0.432129,-0.0659 -0.193359,-0.0674 -0.336914,-0.20948 -0.140625,-0.13916 -0.219727,-0.35302 -0.0791,-0.21534 -0.0791,-0.49952 0,-0.26953 0.07617,-0.48193 0.07617,-0.2124 0.219726,-0.35889 0.13916,-0.14209 0.33545,-0.21679 0.197753,-0.0747 0.437988,-0.0747 0.175781,0 0.350097,0.0425 0.175782,0.0425 0.389649,0.14941 v 0.34424 h -0.02197 q -0.180176,-0.15088 -0.357422,-0.21972 -0.177246,-0.0688 -0.379394,-0.0688 -0.165528,0 -0.298828,0.0542 -0.131836,0.0527 -0.23584,0.16553 -0.101074,0.10986 -0.158203,0.27832 -0.05566,0.16699 -0.05566,0.38671 0,0.22999 0.06152,0.39551 0.06299,0.16553 0.161133,0.26953 0.102539,0.1084 0.238769,0.16114 0.137696,0.0513 0.29004,0.0513 0.209472,0 0.392578,-0.0718 0.183105,-0.0718 0.342773,-0.21533 h 0.02051 z"
       style="font-size:3px;font-family:'Routed Gothic';text-anchor:middle;fill:#e8b923;stroke:none;stroke-width:0.5px;text-rendering:geometricPrecision"
       id="path10587" />
    <path
       d="m 34.342579,354.57333 h -0.779297 v 1.92334 h -0.290039 v -1.92334 h -0.779297 v -0.25781 h 1.848633 z"
       style="font-size:3px;font-family:'Routed Gothic';text-anchor:middle;fill:#e8b923;stroke:none;stroke-width:0.5px;text-rendering:geometricPrecision"
       id="path10589" />
    <path
       d="M 36.443165,356.49667 H 36.0667 l -0.729492,-0.86718 h -0.408692 v 0.86718 h -0.290039 v -2.18115 h 0.61084 q 0.197754,0 0.32959,0.0264 0.131836,0.0249 0.237305,0.0908 0.118652,0.0747 0.18457,0.18896 0.06738,0.1128 0.06738,0.28711 0,0.23584 -0.118653,0.39551 -0.118652,0.1582 -0.32666,0.23877 z m -0.678223,-1.56738 q 0,-0.0937 -0.03369,-0.16553 -0.03223,-0.0732 -0.108399,-0.12304 -0.06299,-0.0425 -0.149414,-0.0586 -0.08643,-0.0176 -0.203613,-0.0176 h -0.341309 v 0.82325 h 0.292969 q 0.137695,0 0.240235,-0.0234 0.102539,-0.0249 0.174316,-0.0908 0.06592,-0.0615 0.09668,-0.14063 0.03223,-0.0806 0.03223,-0.20361 z"
       style="font-size:3px;font-family:'Routed Gothic';text-anchor:middle;fill:#e8b923;stroke:none;stroke-width:0.5px;text-rendering:geometricPrecision"
       id="path10591" />
    <path
       d="m 38.161427,356.49667 h -1.437012 v -2.18115 h 1.437012 v 0.25781 h -1.146973 v 0.59766 h 1.146973 v 0.25781 h -1.146973 v 0.81006 h 1.146973 z"
       style="font-size:3px;font-family:'Routed Gothic';text-anchor:middle;fill:#e8b923;stroke:none;stroke-width:0.5px;text-rendering:geometricPrecision"
       id="path10593" />
  </g>
  <g
     aria-label="MODULAR"
     style="font-size:3px;font-family:'Routed Gothic';text-anchor:middle;fill:#e8b923;stroke:none;stroke-width:0.5px;text-rendering:geometricPrecision"
     id="text69">
    <path
       d="m 26.113087,359.49667 h -0.290039 v -1.87939 l -0.606446,1.27881 H 25.043751 L 24.4417,357.61728 v 1.87939 h -0.270996 v -2.18115 h 0.395508 l 0.581543,1.21436 0.5625,-1.21436 h 0.402832 z"
       style="font-size:3px;font-family:'Routed Gothic';text-anchor:middle;fill:#e8b923;stroke:none;stroke-width:0.5px;text-rendering:geometricPrecision"
       id="path10596" />
    <path
       d="m 28.32793,357.56601 q 0.133301,0.14648 0.203614,0.35889 0.07178,0.2124 0.07178,0.48193 0,0.26953 -0.07324,0.4834 -0.07178,0.2124 -0.202149,0.35449 -0.134765,0.14795 -0.319335,0.22266 -0.183106,0.0747 -0.418946,0.0747 -0.22998,0 -0.418945,-0.0762 -0.1875,-0.0762 -0.319336,-0.22119 -0.131836,-0.14502 -0.203613,-0.35596 -0.07031,-0.21093 -0.07031,-0.48193 0,-0.2666 0.07031,-0.47754 0.07031,-0.2124 0.205078,-0.36328 0.128906,-0.14356 0.319336,-0.21973 0.191894,-0.0762 0.41748,-0.0762 0.234375,0 0.42041,0.0776 0.1875,0.0762 0.317871,0.21826 z m -0.02637,0.84082 q 0,-0.4248 -0.190429,-0.65479 -0.19043,-0.23144 -0.52002,-0.23144 -0.332519,0 -0.522949,0.23144 -0.188965,0.22999 -0.188965,0.65479 0,0.4292 0.193359,0.65771 0.19336,0.22706 0.518555,0.22706 0.325195,0 0.51709,-0.22706 0.193359,-0.22851 0.193359,-0.65771 z"
       style="font-size:3px;font-family:'Routed Gothic';text-anchor:middle;fill:#e8b923;stroke:none;stroke-width:0.5px;text-rendering:geometricPrecision"
       id="path10598" />
    <path
       d="m 30.906055,358.40829 q 0,0.29737 -0.130371,0.53907 -0.128906,0.2417 -0.344238,0.375 -0.149414,0.0923 -0.333984,0.1333 -0.183106,0.041 -0.483399,0.041 h -0.550781 v -2.18115 h 0.544922 q 0.319336,0 0.506836,0.0469 0.188965,0.0454 0.319336,0.12597 0.222656,0.13916 0.347168,0.37061 0.124511,0.23144 0.124511,0.54931 z m -0.303222,-0.004 q 0,-0.25635 -0.08936,-0.43213 -0.08936,-0.17578 -0.266601,-0.27685 -0.128906,-0.0733 -0.273926,-0.10108 -0.14502,-0.0293 -0.347168,-0.0293 h -0.272461 v 1.68311 h 0.272461 q 0.209473,0 0.364746,-0.0308 0.156738,-0.0308 0.287109,-0.11426 0.162598,-0.104 0.243165,-0.27393 0.08203,-0.16992 0.08203,-0.4248 z"
       style="font-size:3px;font-family:'Routed Gothic';text-anchor:middle;fill:#e8b923;stroke:none;stroke-width:0.5px;text-rendering:geometricPrecision"
       id="path10600" />
    <path
       d="m 33.019825,358.6207 q 0,0.2373 -0.05273,0.41455 -0.05127,0.17578 -0.169922,0.29297 -0.112793,0.11132 -0.263672,0.16259 -0.150879,0.0513 -0.351563,0.0513 -0.205078,0 -0.357422,-0.0542 -0.152343,-0.0542 -0.256347,-0.15966 -0.118653,-0.12012 -0.171387,-0.29004 -0.05127,-0.16992 -0.05127,-0.41748 v -1.30518 h 0.290039 v 1.31983 q 0,0.17724 0.02344,0.27978 0.0249,0.10254 0.08203,0.18604 0.06445,0.0952 0.174317,0.14355 0.111328,0.0483 0.266601,0.0483 0.156739,0 0.266602,-0.0469 0.109863,-0.0483 0.175781,-0.14502 0.05713,-0.0835 0.08057,-0.19043 0.0249,-0.1084 0.0249,-0.26807 v -1.32715 h 0.290039 z"
       style="font-size:3px;font-family:'Routed Gothic';text-anchor:middle;fill:#e8b923;stroke:none;stroke-width:0.5px;text-rendering:geometricPrecision"
       id="path10602" />
    <path
       d="m 34.954884,359.49667 h -1.379883 v -2.18115 h 0.290039 v 1.92334 h 1.089844 z"
       style="font-size:3px;font-family:'Routed Gothic';text-anchor:middle;fill:#e8b923;stroke:none;stroke-width:0.5px;text-rendering:geometricPrecision"
       id="path10604" />
    <path
       d="M 36.964649,359.49667 H 36.655567 L 36.4417,358.88876 h -0.943359 l -0.213868,0.60791 H 34.99004 l 0.793945,-2.18115 h 0.386719 z m -0.612304,-0.85693 -0.382325,-1.0708 -0.383789,1.0708 z"
       style="font-size:3px;font-family:'Routed Gothic';text-anchor:middle;fill:#e8b923;stroke:none;stroke-width:0.5px;text-rendering:geometricPrecision"
       id="path10606" />
    <path
       d="m 39.100391,359.49667 h -0.376464 l -0.729493,-0.86718 h -0.408691 v 0.86718 h -0.290039 v -2.18115 h 0.61084 q 0.197754,0 0.32959,0.0264 0.131836,0.0249 0.237304,0.0908 0.118653,0.0747 0.184571,0.18896 0.06738,0.1128 0.06738,0.28711 0,0.23584 -0.118652,0.39551 -0.118652,0.1582 -0.32666,0.23877 z m -0.678222,-1.56738 q 0,-0.0937 -0.03369,-0.16553 -0.03223,-0.0732 -0.108398,-0.12304 -0.06299,-0.0425 -0.149414,-0.0586 -0.08643,-0.0176 -0.203613,-0.0176 h -0.341309 v 0.82325 h 0.292969 q 0.137695,0 0.240234,-0.0234 0.102539,-0.0249 0.174316,-0.0908 0.06592,-0.0615 0.09668,-0.14063 0.03223,-0.0806 0.03223,-0.20361 z"
       style="font-size:3px;font-family:'Routed Gothic';text-anchor:middle;fill:#e8b923;stroke:none;stroke-width:0.5px;text-rendering:geometricPrecision"
       id="path10608" />
  </g>
  <path
     style="stroke:#e8b923;stroke-width:0.75"
     d="m 326.5,341 -18.18652,10.5"
     id="SvgjsLine1312" />
  <path
     style="stroke:#e8b923;stroke-width:0.75"
     d="m 326.5,341 -18.09653,8.51556"
     id="SvgjsLine1313" />
  <path
     style="stroke:#e8b923;stroke-width:0.75"
     d="m 326.5,341 -18.74564,6.97144"
     id="SvgjsLine1314" />
  <path
     style="stroke:#e8b923;stroke-width:0.75"
     d="m 326.5,341 -19.26324,5.37842"
     id="SvgjsLine1315" />
  <path
     style="stroke:#e8b923;stroke-width:0.75"
     d="m 326.5,341 -19.64575,3.74762"
     id="SvgjsLine1316" />
  <path
     style="stroke:#e8b923;stroke-width:0.75"
     d="m 326.5,341 -20.88495,2.1951"
     id="SvgjsLine1317" />
  <path
     style="stroke:#e8b923;stroke-width:0.75"
     d="m 326.5,341 -19.99561,0.41885"
     id="SvgjsLine1318" />
  <path
     style="stroke:#e8b923;stroke-width:0.75"
     d="m 326.5,341 -19.96054,-1.2558"
     id="SvgjsLine1319" />
  <path
     style="stroke:#e8b923;stroke-width:0.75"
     d="m 326.5,341 -19.78546,-2.92166"
     id="SvgjsLine1320" />
  <path
     style="stroke:#e8b923;stroke-width:0.75"
     d="m 326.5,341 -19.47159,-4.56702"
     id="SvgjsLine1321" />
  <path
     style="stroke:#e8b923;stroke-width:0.75"
     d="m 326.5,341 -19.9722,-6.48935"
     id="SvgjsLine1322" />
  <path
     style="stroke:#e8b923;stroke-width:0.75"
     d="m 326.5,341 -18.43726,-7.75031"
     id="SvgjsLine1323" />
  <path
     style="stroke:#e8b923;stroke-width:0.75"
     d="m 326.5,341 -17.72406,-9.26593"
     id="SvgjsLine1324" />
  <path
     style="stroke:#e8b923;stroke-width:0.75"
     d="M 326.5,341 309.61343,330.28345"
     id="SvgjsLine1325" />
  <path
     style="stroke:#e8b923;stroke-width:0.75"
     d="M 326.5,341 310.5694,328.90802"
     id="SvgjsLine1326" />
  <path
     style="stroke:#e8b923;stroke-width:0.75"
     d="M 326.5,341 310.89395,326.94824"
     id="SvgjsLine1327" />
  <path
     style="stroke:#e8b923;stroke-width:0.75"
     d="M 326.5,341 312.80905,326.42062"
     id="SvgjsLine1328" />
  <path
     style="stroke:#e8b923;stroke-width:0.75"
     d="M 326.5,341 314.07706,325.32611"
     id="SvgjsLine1329" />
  <path
     style="stroke:#e8b923;stroke-width:0.75"
     d="M 326.5,341 315.43216,324.34155"
     id="SvgjsLine1330" />
  <path
     style="stroke:#e8b923;stroke-width:0.75"
     d="m 326.5,341 -9.63507,-17.52612"
     id="SvgjsLine1331" />
  <path
     style="stroke:#e8b923;stroke-width:0.75"
     d="m 326.5,341 -8.54147,-19.18445"
     id="SvgjsLine1332" />
  <path
     style="stroke:#e8b923;stroke-width:0.75"
     d="m 326.5,341 -6.57733,-18.88751"
     id="SvgjsLine1333" />
  <path
     style="stroke:#e8b923;stroke-width:0.75"
     d="m 326.5,341 -4.97379,-19.37164"
     id="SvgjsLine1334" />
  <path
     style="stroke:#e8b923;stroke-width:0.75"
     d="m 326.5,341 -3.33539,-19.71991"
     id="SvgjsLine1335" />
  <path
     style="stroke:#e8b923;stroke-width:0.75"
     d="m 326.5,341 -1.67355,-19.92987"
     id="SvgjsLine1336" />
  <path
     style="stroke:#e8b923;stroke-width:0.75"
     d="M 326.5,341 V 320"
     id="SvgjsLine1337" />
  <path
     style="stroke:#e8b923;stroke-width:0.75"
     d="m 326.5,341 1.67355,-19.92987"
     id="SvgjsLine1338" />
  <path
     style="stroke:#e8b923;stroke-width:0.75"
     d="m 326.5,341 3.33539,-19.71991"
     id="SvgjsLine1339" />
  <path
     style="stroke:#e8b923;stroke-width:0.75"
     d="m 326.5,341 4.97379,-19.37164"
     id="SvgjsLine1340" />
  <path
     style="stroke:#e8b923;stroke-width:0.75"
     d="m 326.5,341 6.57733,-18.88751"
     id="SvgjsLine1341" />
  <path
     style="stroke:#e8b923;stroke-width:0.75"
     d="m 326.5,341 8.54147,-19.18445"
     id="SvgjsLine1342" />
  <path
     style="stroke:#e8b923;stroke-width:0.75"
     d="m 326.5,341 9.63507,-17.52612"
     id="SvgjsLine1343" />
  <path
     style="stroke:#e8b923;stroke-width:0.75"
     d="m 326.5,341 11.06784,-16.65845"
     id="SvgjsLine1344" />
  <path
     style="stroke:#e8b923;stroke-width:0.75"
     d="m 326.5,341 12.42294,-15.67389"
     id="SvgjsLine1345" />
  <path
     style="stroke:#e8b923;stroke-width:0.75"
     d="m 326.5,341 13.69095,-14.57938"
     id="SvgjsLine1346" />
  <path
     style="stroke:#e8b923;stroke-width:0.75"
     d="m 326.5,341 15.60605,-14.05176"
     id="SvgjsLine1347" />
  <path
     style="stroke:#e8b923;stroke-width:0.75"
     d="m 326.5,341 15.9306,-12.09198"
     id="SvgjsLine1348" />
  <path
     style="stroke:#e8b923;stroke-width:0.75"
     d="m 326.5,341 16.88657,-10.71655"
     id="SvgjsLine1349" />
  <path
     style="stroke:#e8b923;stroke-width:0.75"
     d="m 326.5,341 17.72406,-9.26593"
     id="SvgjsLine1350" />
  <path
     style="stroke:#e8b923;stroke-width:0.75"
     d="m 326.5,341 18.43726,-7.75031"
     id="SvgjsLine1351" />
  <path
     style="stroke:#e8b923;stroke-width:0.75"
     d="m 326.5,341 19.9722,-6.48935"
     id="SvgjsLine1352" />
  <path
     style="stroke:#e8b923;stroke-width:0.75"
     d="m 326.5,341 19.47159,-4.56702"
     id="SvgjsLine1353" />
  <path
     style="stroke:#e8b923;stroke-width:0.75"
     d="m 326.5,341 19.78546,-2.92166"
     id="SvgjsLine1354" />
  <path
     style="stroke:#e8b923;stroke-width:0.75"
     d="m 326.5,341 19.96054,-1.2558"
     id="SvgjsLine1355" />
  <path
     style="stroke:#e8b923;stroke-width:0.75"
     d="m 326.5,341 19.99561,0.41885"
     id="SvgjsLine1356" />
  <path
     style="stroke:#e8b923;stroke-width:0.75"
     d="m 326.5,341 20.88495,2.1951"
     id="SvgjsLine1357" />
  <path
     style="stroke:#e8b923;stroke-width:0.75"
     d="m 326.5,341 19.64575,3.74762"
     id="SvgjsLine1358" />
  <path
     style="stroke:#e8b923;stroke-width:0.75"
     d="m 326.5,341 19.26324,5.37842"
     id="SvgjsLine1359" />
  <path
     style="stroke:#e8b923;stroke-width:0.75"
     d="m 326.5,341 18.74564,6.97144"
     id="SvgjsLine1360" />
  <path
     style="stroke:#e8b923;stroke-width:0.75"
     d="m 326.5,341 18.09653,8.51556"
     id="SvgjsLine1361" />
  <path
     style="stroke:#e8b923;stroke-width:0.75"
     d="m 326.5,341 18.18652,10.5"
     id="SvgjsLine1362" />
  <path
     style="fill:#988903;stroke:#583903;stroke-width:0.75"
     d="m 344.5,341 a 18,18 0 0 1 -18,18 18,18 0 0 1 -18,-18 18,18 0 0 1 18,-18 18,18 0 0 1 18,18 z"
     id="SvgjsCircle1363" />
  <g
     aria-label="ATTENUATION"
     style="font-size:8px;font-family:'Routed Gothic';text-anchor:middle;fill:#e8b923;stroke:none;stroke-width:1px;text-rendering:geometricPrecision"
     id="text108-3">
    <path
       d="M 46.472359,33.878906 H 45.64814 L 45.077827,32.257812 H 42.562202 L 41.99189,33.878906 H 41.206734 L 43.323921,28.0625 h 1.03125 z M 44.839546,31.59375 43.820015,28.738281 42.796577,31.59375 Z"
       style="font-size:8px;font-family:'Routed Gothic';text-anchor:middle;fill:#e8b923;stroke:none;stroke-width:1px;text-rendering:geometricPrecision"
       id="path10663" />
    <path
       d="m 51.034859,28.75 h -2.078125 v 5.128906 H 48.183296 V 28.75 h -2.078125 v -0.6875 h 4.929688 z"
       style="font-size:8px;font-family:'Routed Gothic';text-anchor:middle;fill:#e8b923;stroke:none;stroke-width:1px;text-rendering:geometricPrecision"
       id="path10665" />
    <path
       d="m 55.706734,28.75 h -2.078125 v 5.128906 H 52.855171 V 28.75 h -2.078125 v -0.6875 h 4.929688 z"
       style="font-size:8px;font-family:'Routed Gothic';text-anchor:middle;fill:#e8b923;stroke:none;stroke-width:1px;text-rendering:geometricPrecision"
       id="path10667" />
    <path
       d="M 60.327827,33.878906 H 56.495796 V 28.0625 h 3.832031 V 28.75 h -3.058593 v 1.59375 h 3.058593 v 0.6875 h -3.058593 v 2.160156 h 3.058593 z"
       style="font-size:8px;font-family:'Routed Gothic';text-anchor:middle;fill:#e8b923;stroke:none;stroke-width:1px;text-rendering:geometricPrecision"
       id="path10669" />
    <path
       d="m 65.995796,33.878906 h -0.957031 l -2.757813,-5.203125 v 5.203125 H 61.558296 V 28.0625 h 1.199219 l 2.515625,4.75 v -4.75 h 0.722656 z"
       style="font-size:8px;font-family:'Routed Gothic';text-anchor:middle;fill:#e8b923;stroke:none;stroke-width:1px;text-rendering:geometricPrecision"
       id="path10671" />
    <path
       d="m 71.921577,31.542969 q 0,0.632812 -0.140625,1.105468 -0.136718,0.46875 -0.453125,0.78125 -0.300781,0.296875 -0.703125,0.433594 Q 70.222359,34 69.687202,34 69.140327,34 68.734077,33.855469 68.327827,33.710937 68.050484,33.429687 67.734077,33.109375 67.593452,32.65625 67.456734,32.203125 67.456734,31.542969 V 28.0625 h 0.773437 v 3.519531 q 0,0.472656 0.0625,0.746094 0.06641,0.273437 0.21875,0.496094 0.171875,0.253906 0.464844,0.382812 0.296875,0.128906 0.710937,0.128906 0.417969,0 0.710938,-0.125 0.292969,-0.128906 0.46875,-0.386718 0.152344,-0.222657 0.214844,-0.507813 0.06641,-0.289062 0.06641,-0.714844 V 28.0625 h 0.773437 z"
       style="font-size:8px;font-family:'Routed Gothic';text-anchor:middle;fill:#e8b923;stroke:none;stroke-width:1px;text-rendering:geometricPrecision"
       id="path10673" />
    <path
       d="m 77.956734,33.878906 h -0.824219 l -0.570313,-1.621094 h -2.515625 l -0.570312,1.621094 H 72.691109 L 74.808296,28.0625 h 1.03125 z M 76.323921,31.59375 75.30439,28.738281 74.280952,31.59375 Z"
       style="font-size:8px;font-family:'Routed Gothic';text-anchor:middle;fill:#e8b923;stroke:none;stroke-width:1px;text-rendering:geometricPrecision"
       id="path10675" />
    <path
       d="m 82.519234,28.75 h -2.078125 v 5.128906 H 79.667671 V 28.75 h -2.078125 v -0.6875 h 4.929688 z"
       style="font-size:8px;font-family:'Routed Gothic';text-anchor:middle;fill:#e8b923;stroke:none;stroke-width:1px;text-rendering:geometricPrecision"
       id="path10677" />
    <path
       d="m 85.359077,33.878906 h -2.296875 v -0.59375 h 0.761719 V 28.65625 H 83.062202 V 28.0625 h 2.296875 v 0.59375 h -0.761718 v 4.628906 h 0.761718 z"
       style="font-size:8px;font-family:'Routed Gothic';text-anchor:middle;fill:#e8b923;stroke:none;stroke-width:1px;text-rendering:geometricPrecision"
       id="path10679" />
    <path
       d="m 91.019234,28.730469 q 0.355468,0.390625 0.542968,0.957031 0.191407,0.566406 0.191407,1.285156 0,0.71875 -0.195313,1.289063 -0.191406,0.566406 -0.539062,0.945312 -0.359375,0.394531 -0.851563,0.59375 Q 89.67939,34 89.050484,34 q -0.613282,0 -1.117188,-0.203125 -0.5,-0.203125 -0.851562,-0.589844 -0.351563,-0.386719 -0.542969,-0.949219 -0.1875,-0.5625 -0.1875,-1.285156 0,-0.710937 0.1875,-1.273437 0.1875,-0.566407 0.546875,-0.96875 0.34375,-0.382813 0.851562,-0.585938 0.511719,-0.203125 1.113282,-0.203125 0.625,0 1.121093,0.207031 0.5,0.203125 0.847657,0.582032 z m -0.07031,2.242187 q 0,-1.132812 -0.507812,-1.746094 -0.507813,-0.617187 -1.386719,-0.617187 -0.886719,0 -1.394531,0.617187 -0.503907,0.613282 -0.503907,1.746094 0,1.144531 0.515625,1.753906 0.515625,0.605469 1.382813,0.605469 0.867187,0 1.378906,-0.605469 0.515625,-0.609375 0.515625,-1.753906 z"
       style="font-size:8px;font-family:'Routed Gothic';text-anchor:middle;fill:#e8b923;stroke:none;stroke-width:1px;text-rendering:geometricPrecision"
       id="path10681" />
    <path
       d="M 97.417671,33.878906 H 96.46064 l -2.757813,-5.203125 v 5.203125 H 92.980171 V 28.0625 h 1.199219 l 2.515625,4.75 v -4.75 h 0.722656 z"
       style="font-size:8px;font-family:'Routed Gothic';text-anchor:middle;fill:#e8b923;stroke:none;stroke-width:1px;text-rendering:geometricPrecision"
       id="path10683" />
  </g>
  <g
     aria-label="DELAY TIME"
     style="font-size:8px;font-family:'Routed Gothic';text-anchor:middle;fill:#e8b923;stroke:none;stroke-width:1px;text-rendering:geometricPrecision"
     id="text108-3-0">
    <path
       d="m 184.91406,31.097656 q 0,0.792969 -0.34765,1.4375 -0.34375,0.644531 -0.91797,1 Q 183.25,33.78125 182.75781,33.890625 182.26953,34 181.46875,34 H 180 v -5.816406 h 1.45312 q 0.85157,0 1.35157,0.125 0.5039,0.121093 0.85156,0.335937 0.59375,0.371094 0.92578,0.988281 0.33203,0.617188 0.33203,1.464844 z m -0.80859,-0.01172 q 0,-0.683593 -0.23828,-1.152343 -0.23828,-0.46875 -0.71094,-0.738282 Q 182.8125,29 182.42578,28.925781 182.03906,28.847656 181.5,28.847656 h -0.72656 v 4.488281 H 181.5 q 0.55859,0 0.97266,-0.08203 0.41796,-0.08203 0.76562,-0.304687 0.43359,-0.277344 0.64844,-0.730469 0.21875,-0.453125 0.21875,-1.132813 z"
       style="font-size:8px;font-family:'Routed Gothic';text-anchor:middle;fill:#e8b923;stroke:none;stroke-width:1px;text-rendering:geometricPrecision"
       id="path10686" />
    <path
       d="m 190.00391,34 h -3.83204 v -5.816406 h 3.83204 v 0.6875 h -3.0586 v 1.59375 h 3.0586 v 0.6875 h -3.0586 V 33.3125 h 3.0586 z"
       style="font-size:8px;font-family:'Routed Gothic';text-anchor:middle;fill:#e8b923;stroke:none;stroke-width:1px;text-rendering:geometricPrecision"
       id="path10688" />
    <path
       d="m 194.91406,34 h -3.67969 v -5.816406 h 0.77344 V 33.3125 h 2.90625 z"
       style="font-size:8px;font-family:'Routed Gothic';text-anchor:middle;fill:#e8b923;stroke:none;stroke-width:1px;text-rendering:geometricPrecision"
       id="path10690" />
    <path
       d="m 200.27344,34 h -0.82422 l -0.57031,-1.621094 h -2.51563 L 195.79297,34 h -0.78516 l 2.11719,-5.816406 h 1.03125 z m -1.63282,-2.285156 -1.01953,-2.855469 -1.02343,2.855469 z"
       style="font-size:8px;font-family:'Routed Gothic';text-anchor:middle;fill:#e8b923;stroke:none;stroke-width:1px;text-rendering:geometricPrecision"
       id="path10692" />
    <path
       d="m 204.96094,28.183594 -2.04688,3.265625 V 34 h -0.77344 v -2.46875 l -2.05468,-3.347656 h 0.85547 l 1.58984,2.601562 1.60547,-2.601562 z"
       style="font-size:8px;font-family:'Routed Gothic';text-anchor:middle;fill:#e8b923;stroke:none;stroke-width:1px;text-rendering:geometricPrecision"
       id="path10694" />
    <path
       d="m 212.72656,28.871094 h -2.07812 V 34 H 209.875 v -5.128906 h -2.07813 v -0.6875 h 4.92969 z"
       style="font-size:8px;font-family:'Routed Gothic';text-anchor:middle;fill:#e8b923;stroke:none;stroke-width:1px;text-rendering:geometricPrecision"
       id="path10696" />
    <path
       d="m 215.56641,34 h -2.29688 v -0.59375 h 0.76172 v -4.628906 h -0.76172 v -0.59375 h 2.29688 v 0.59375 h -0.76172 v 4.628906 h 0.76172 z"
       style="font-size:8px;font-family:'Routed Gothic';text-anchor:middle;fill:#e8b923;stroke:none;stroke-width:1px;text-rendering:geometricPrecision"
       id="path10698" />
    <path
       d="m 222.07031,34 h -0.77344 v -5.011719 l -1.61718,3.410156 h -0.46094 l -1.60547,-3.410156 V 34 h -0.72266 v -5.816406 h 1.05469 l 1.55078,3.238281 1.5,-3.238281 h 1.07422 z"
       style="font-size:8px;font-family:'Routed Gothic';text-anchor:middle;fill:#e8b923;stroke:none;stroke-width:1px;text-rendering:geometricPrecision"
       id="path10700" />
    <path
       d="m 227.47266,34 h -3.83204 v -5.816406 h 3.83204 v 0.6875 h -3.0586 v 1.59375 h 3.0586 v 0.6875 h -3.0586 V 33.3125 h 3.0586 z"
       style="font-size:8px;font-family:'Routed Gothic';text-anchor:middle;fill:#e8b923;stroke:none;stroke-width:1px;text-rendering:geometricPrecision"
       id="path10702" />
  </g>
  <g
     aria-label="FEEDBACK"
     style="font-size:8px;font-family:'Routed Gothic';text-anchor:middle;fill:#e8b923;stroke:none;stroke-width:1px;text-rendering:geometricPrecision"
     id="text108-3-5">
    <path
       d="m 323.71484,28.765625 h -2.9414 v 1.640625 h 2.52734 v 0.6875 h -2.52734 v 2.800781 H 320 v -5.816406 h 3.71484 z"
       style="font-size:8px;font-family:'Routed Gothic';text-anchor:middle;fill:#e8b923;stroke:none;stroke-width:1px;text-rendering:geometricPrecision"
       id="path10705" />
    <path
       d="m 328.42578,33.894531 h -3.83203 v -5.816406 h 3.83203 v 0.6875 h -3.05859 v 1.59375 h 3.05859 v 0.6875 h -3.05859 v 2.160156 h 3.05859 z"
       style="font-size:8px;font-family:'Routed Gothic';text-anchor:middle;fill:#e8b923;stroke:none;stroke-width:1px;text-rendering:geometricPrecision"
       id="path10707" />
    <path
       d="m 333.48828,33.894531 h -3.83203 v -5.816406 h 3.83203 v 0.6875 h -3.05859 v 1.59375 h 3.05859 v 0.6875 h -3.05859 v 2.160156 h 3.05859 z"
       style="font-size:8px;font-family:'Routed Gothic';text-anchor:middle;fill:#e8b923;stroke:none;stroke-width:1px;text-rendering:geometricPrecision"
       id="path10709" />
    <path
       d="m 339.63281,30.992187 q 0,0.792969 -0.34765,1.4375 -0.34375,0.644532 -0.91797,1 -0.39844,0.246094 -0.89063,0.355469 -0.48828,0.109375 -1.28906,0.109375 h -1.46875 v -5.816406 h 1.45312 q 0.85157,0 1.35157,0.125 0.5039,0.121094 0.85156,0.335937 0.59375,0.371094 0.92578,0.988282 0.33203,0.617187 0.33203,1.464843 z m -0.80859,-0.01172 q 0,-0.683594 -0.23828,-1.152344 -0.23828,-0.46875 -0.71094,-0.738281 -0.34375,-0.195313 -0.73047,-0.269532 -0.38672,-0.07813 -0.92578,-0.07813 h -0.72656 v 4.488282 h 0.72656 q 0.55859,0 0.97266,-0.08203 0.41796,-0.08203 0.76562,-0.304687 0.43359,-0.277344 0.64844,-0.730469 0.21875,-0.453125 0.21875,-1.132812 z"
       style="font-size:8px;font-family:'Routed Gothic';text-anchor:middle;fill:#e8b923;stroke:none;stroke-width:1px;text-rendering:geometricPrecision"
       id="path10711" />
    <path
       d="m 345.27734,32.105469 q 0,0.433593 -0.16406,0.765625 -0.16406,0.332031 -0.44141,0.546875 -0.32812,0.257812 -0.72265,0.367187 -0.39063,0.109375 -0.9961,0.109375 h -2.0625 v -5.816406 h 1.72266 q 0.63672,0 0.95313,0.04687 0.3164,0.04687 0.60546,0.195312 0.32032,0.167969 0.46485,0.433594 0.14453,0.261719 0.14453,0.628906 0,0.414063 -0.21094,0.707032 -0.21094,0.289062 -0.5625,0.464843 v 0.03125 q 0.58985,0.121094 0.92969,0.519532 0.33984,0.394531 0.33984,1 z m -1.30078,-2.621094 q 0,-0.210938 -0.0703,-0.355469 -0.0703,-0.144531 -0.22656,-0.234375 -0.1836,-0.105469 -0.44532,-0.128906 -0.26171,-0.02734 -0.64843,-0.02734 h -0.92188 v 1.679688 h 1 q 0.36328,0 0.57813,-0.03516 0.21484,-0.03906 0.39843,-0.15625 0.1836,-0.117187 0.25782,-0.300781 0.0781,-0.1875 0.0781,-0.441406 z m 0.4961,2.652344 q 0,-0.351563 -0.10547,-0.558594 -0.10547,-0.207031 -0.38282,-0.351563 -0.1875,-0.09766 -0.45703,-0.125 -0.26562,-0.03125 -0.64843,-0.03125 h -1.21485 v 2.164063 h 1.02344 q 0.50781,0 0.83203,-0.05078 0.32422,-0.05469 0.53125,-0.195313 0.21875,-0.152344 0.32031,-0.347656 0.10157,-0.195313 0.10157,-0.503906 z"
       style="font-size:8px;font-family:'Routed Gothic';text-anchor:middle;fill:#e8b923;stroke:none;stroke-width:1px;text-rendering:geometricPrecision"
       id="path10713" />
    <path
       d="m 350.96094,33.894531 h -0.82422 l -0.57031,-1.621094 h -2.51563 l -0.57031,1.621094 h -0.78516 l 2.11719,-5.816406 h 1.03125 z m -1.63282,-2.285156 -1.01953,-2.855469 -1.02343,2.855469 z"
       style="font-size:8px;font-family:'Routed Gothic';text-anchor:middle;fill:#e8b923;stroke:none;stroke-width:1px;text-rendering:geometricPrecision"
       id="path10715" />
    <path
       d="m 356.33594,33.472656 q -0.21485,0.09375 -0.39063,0.175781 -0.17187,0.08203 -0.45312,0.171875 -0.23828,0.07422 -0.51953,0.125 Q 354.69531,34 354.35937,34 q -0.63281,0 -1.15234,-0.175781 -0.51562,-0.179688 -0.89844,-0.558594 -0.375,-0.371094 -0.58593,-0.941406 -0.21094,-0.574219 -0.21094,-1.332032 0,-0.71875 0.20312,-1.285156 0.20313,-0.566406 0.58594,-0.957031 0.37109,-0.378906 0.89453,-0.578125 0.52735,-0.199219 1.16797,-0.199219 0.46875,0 0.93359,0.113281 0.46875,0.113282 1.03907,0.398438 v 0.917969 h -0.0586 Q 355.79687,29 355.32422,28.816406 q -0.47266,-0.183594 -1.01172,-0.183594 -0.44141,0 -0.79688,0.144532 -0.35156,0.140625 -0.6289,0.441406 -0.26953,0.292969 -0.42188,0.742187 -0.14843,0.445313 -0.14843,1.03125 0,0.613282 0.16406,1.054688 0.16797,0.441406 0.42969,0.71875 0.27343,0.289062 0.63671,0.429687 0.36719,0.136719 0.77344,0.136719 0.5586,0 1.04688,-0.191406 0.48828,-0.191406 0.91406,-0.574219 h 0.0547 z"
       style="font-size:8px;font-family:'Routed Gothic';text-anchor:middle;fill:#e8b923;stroke:none;stroke-width:1px;text-rendering:geometricPrecision"
       id="path10717" />
    <path
       d="m 362.11328,33.894531 h -1.00391 l -2.30078,-2.589844 -0.57812,0.617188 v 1.972656 h -0.77344 v -5.816406 h 0.77344 v 3.035156 l 2.82422,-3.035156 h 0.9375 l -2.59766,2.734375 z"
       style="font-size:8px;font-family:'Routed Gothic';text-anchor:middle;fill:#e8b923;stroke:none;stroke-width:1px;text-rendering:geometricPrecision"
       id="path10719" />
  </g>
  <g
     aria-label="Y"
     style="font-size:8px;font-family:'Routed Gothic';text-anchor:middle;fill:#e8b923;stroke:none;stroke-width:1px;text-rendering:geometricPrecision"
     id="text106-6">
    <path
       d="m 28.875,174.07812 -2.046875,3.26563 v 2.55078 h -0.773438 v -2.46875 L 24,174.07812 h 0.855469 l 1.589843,2.60157 1.605469,-2.60157 z"
       style="font-size:8px;font-family:'Routed Gothic';text-anchor:middle;fill:#e8b923;stroke:none;stroke-width:1px;text-rendering:geometricPrecision"
       id="path10722" />
  </g>
  <g
     aria-label="X"
     style="font-size:8px;font-family:'Routed Gothic';text-anchor:middle;fill:#e8b923;stroke:none;stroke-width:1px;text-rendering:geometricPrecision"
     id="text106-6-5">
    <path
       d="m 94.953125,324.07812 -2.007813,2.875 2.003907,2.94141 H 94.054687 L 92.46875,327.5 l -1.625,2.39453 H 90 l 2.027344,-2.90625 -1.980469,-2.91016 H 90.9375 l 1.566406,2.36329 1.601563,-2.36329 z"
       style="font-size:8px;font-family:'Routed Gothic';text-anchor:middle;fill:#e8b923;stroke:none;stroke-width:1px;text-rendering:geometricPrecision"
       id="path10725" />
  </g>
  <g
     aria-label="Y"
     style="font-size:8px;font-family:'Routed Gothic';text-anchor:middle;fill:#e8b923;stroke:none;stroke-width:1px;text-rendering:geometricPrecision"
     id="text106-6-6">
    <path
       d="m 168.875,174.07812 -2.04688,3.26563 v 2.55078 h -0.77343 v -2.46875 L 164,174.07812 h 0.85547 l 1.58984,2.60157 1.60547,-2.60157 z"
       style="font-size:8px;font-family:'Routed Gothic';text-anchor:middle;fill:#e8b923;stroke:none;stroke-width:1px;text-rendering:geometricPrecision"
       id="path10728" />
  </g>
  <g
     aria-label="Y"
     style="font-size:8px;font-family:'Routed Gothic';text-anchor:middle;fill:#e8b923;stroke:none;stroke-width:1px;text-rendering:geometricPrecision"
     id="text106-6-4">
    <path
       d="m 308.875,174.07812 -2.04688,3.26563 v 2.55078 h -0.77343 v -2.46875 L 304,174.07812 h 0.85547 l 1.58984,2.60157 1.60547,-2.60157 z"
       style="font-size:8px;font-family:'Routed Gothic';text-anchor:middle;fill:#e8b923;stroke:none;stroke-width:1px;text-rendering:geometricPrecision"
       id="path10731" />
  </g>
  <g
     aria-label="X"
     style="font-size:8px;font-family:'Routed Gothic';text-anchor:middle;fill:#e8b923;stroke:none;stroke-width:1px;text-rendering:geometricPrecision"
     id="text106-6-5-2">
    <path
       d="m 234.95312,324.07812 -2.00781,2.875 2.00391,2.94141 h -0.89453 l -1.58594,-2.39453 -1.625,2.39453 H 230 l 2.02734,-2.90625 -1.98047,-2.91016 h 0.89063 l 1.56641,2.36329 1.60156,-2.36329 z"
       style="font-size:8px;font-family:'Routed Gothic';text-anchor:middle;fill:#e8b923;stroke:none;stroke-width:1px;text-rendering:geometricPrecision"
       id="path10734" />
  </g>
  <g
     aria-label="X"
     style="font-size:8px;font-family:'Routed Gothic';text-anchor:middle;fill:#e8b923;stroke:none;stroke-width:1px;text-rendering:geometricPrecision"
     id="text106-6-5-5">
    <path
       d="m 374.95312,324.07812 -2.00781,2.875 2.00391,2.94141 h -0.89453 l -1.58594,-2.39453 -1.625,2.39453 H 370 l 2.02734,-2.90625 -1.98047,-2.91016 h 0.89063 l 1.56641,2.36329 1.60156,-2.36329 z"
       style="font-size:8px;font-family:'Routed Gothic';text-anchor:middle;fill:#e8b923;stroke:none;stroke-width:1px;text-rendering:geometricPrecision"
       id="path10737" />
  </g>
  <g
     aria-label="RANGE"
     style="font-size:8px;font-family:'Routed Gothic';text-anchor:middle;fill:#e8b923;stroke:none;stroke-width:1px;text-rendering:geometricPrecision"
     id="text106-6-5-2-2">
    <path
       d="m 184.8125,341.88672 h -1.00391 l -1.94531,-2.3125 h -1.08984 v 2.3125 H 180 v -5.81641 h 1.62891 q 0.52734,0 0.8789,0.0703 0.35156,0.0664 0.63281,0.24219 0.31641,0.19922 0.49219,0.50391 0.17969,0.30078 0.17969,0.76562 0,0.62891 -0.31641,1.05469 -0.3164,0.42188 -0.87109,0.63672 z m -1.80859,-4.17969 q 0,-0.25 -0.0898,-0.44141 -0.0859,-0.19531 -0.28906,-0.32812 -0.16797,-0.11328 -0.39844,-0.15625 -0.23047,-0.0469 -0.54297,-0.0469 h -0.91015 v 2.19532 h 0.78125 q 0.36718,0 0.64062,-0.0625 0.27344,-0.0664 0.46485,-0.24219 0.17578,-0.16406 0.25781,-0.375 0.0859,-0.21484 0.0859,-0.54297 z"
       style="font-size:8px;font-family:'Routed Gothic';text-anchor:middle;fill:#e8b923;stroke:none;stroke-width:1px;text-rendering:geometricPrecision"
       id="path10740" />
    <path
       d="m 190.14844,341.88672 h -0.82422 l -0.57031,-1.6211 h -2.51563 l -0.57031,1.6211 h -0.78516 L 187,336.07031 h 1.03125 z m -1.63282,-2.28516 -1.01953,-2.85547 -1.02343,2.85547 z"
       style="font-size:8px;font-family:'Routed Gothic';text-anchor:middle;fill:#e8b923;stroke:none;stroke-width:1px;text-rendering:geometricPrecision"
       id="path10742" />
    <path
       d="m 195.46875,341.88672 h -0.95703 l -2.75781,-5.20313 v 5.20313 h -0.72266 v -5.81641 h 1.19922 l 2.51562,4.75 v -4.75 h 0.72266 z"
       style="font-size:8px;font-family:'Routed Gothic';text-anchor:middle;fill:#e8b923;stroke:none;stroke-width:1px;text-rendering:geometricPrecision"
       id="path10744" />
    <path
       d="m 201.86719,341.45703 q -0.47657,0.21875 -1.04297,0.38281 Q 200.26172,342 199.73437,342 q -0.67968,0 -1.24609,-0.1875 -0.56641,-0.1875 -0.96484,-0.5625 -0.40235,-0.37891 -0.6211,-0.94531 -0.21875,-0.57032 -0.21875,-1.33203 0,-1.39454 0.8125,-2.19922 0.81641,-0.8086 2.23828,-0.8086 0.4961,0 1.01172,0.1211 0.51953,0.11718 1.11719,0.40234 v 0.91797 h -0.0703 q -0.1211,-0.0937 -0.35156,-0.24609 -0.23047,-0.15235 -0.45313,-0.25391 -0.26953,-0.12109 -0.61328,-0.19922 -0.33984,-0.082 -0.77344,-0.082 -0.97656,0 -1.54687,0.62891 -0.56641,0.625 -0.56641,1.69531 0,1.1289 0.59375,1.75781 0.59375,0.625 1.61719,0.625 0.375,0 0.74609,-0.0742 0.375,-0.0742 0.65625,-0.1914 v -1.42579 h -1.55859 v -0.67968 h 2.32422 z"
       style="font-size:8px;font-family:'Routed Gothic';text-anchor:middle;fill:#e8b923;stroke:none;stroke-width:1px;text-rendering:geometricPrecision"
       id="path10746" />
    <path
       d="m 207.05078,341.88672 h -3.83203 v -5.81641 h 3.83203 v 0.6875 h -3.05859 v 1.59375 h 3.05859 v 0.6875 h -3.05859 v 2.16016 h 3.05859 z"
       style="font-size:8px;font-family:'Routed Gothic';text-anchor:middle;fill:#e8b923;stroke:none;stroke-width:1px;text-rendering:geometricPrecision"
       id="path10748" />
  </g>
  <path
     style="opacity:0.981;fill:#060e08;fill-opacity:1;stroke:#e8b923;stroke-width:0.5;stroke-miterlimit:4;stroke-dasharray:none;stroke-opacity:1"
     d="m 180.25,302.21289 h 26.42957 V 314.75 H 180.25 Z"
     id="rect4936" />
  <path
     style="opacity:0.981;fill:#060e08;fill-opacity:1;stroke:#e8b923;stroke-width:0.50001633;stroke-miterlimit:4;stroke-dasharray:none;stroke-opacity:1"
     d="M 39.750008,39.750023 H 140.24998 V 296.24999 H 39.750008 Z"
     id="rect4936-0" />
  <path
     style="opacity:0.981;fill:#060e08;fill-opacity:1;stroke:#e8b923;stroke-width:0.50001633;stroke-miterlimit:4;stroke-dasharray:none;stroke-opacity:1"
     d="M 179.75002,39.750023 H 280.24998 V 296.24999 H 179.75002 Z"
     id="rect4936-0-4" />
  <path
     style="opacity:0.981;fill:#060e08;fill-opacity:1;stroke:#e8b923;stroke-width:0.50001633;stroke-miterlimit:4;stroke-dasharray:none;stroke-opacity:1"
     d="M 319.75,39.750023 H 420.24997 V 296.24999 H 319.75 Z"
     id="rect4936-0-1" />
  <g
     aria-label="PIN 0s"
     style="font-size:8px;font-family:'Routed Gothic';text-anchor:middle;fill:#e8b923;stroke:none;stroke-width:1px;text-rendering:geometricPrecision"
     id="text106-6-1">
    <path
       d="m 10.351563,215.94141 q 0,0.38671 -0.136719,0.71875 -0.132813,0.32812 -0.3750002,0.57031 -0.3007813,0.30078 -0.7109375,0.45312 Q 8.71875,217.83203 8.09375,217.83203 H 7.3203125 V 220 H 6.546875 v -5.81641 H 8.125 q 0.5234375,0 0.8867188,0.0898 0.3632812,0.0859 0.6445312,0.27343 0.3320313,0.22266 0.511719,0.55469 0.183594,0.33203 0.183594,0.83985 z m -0.804688,0.0195 q 0,-0.30078 -0.1054687,-0.52344 -0.1054688,-0.22266 -0.3203125,-0.36328 -0.1875,-0.1211 -0.4296875,-0.17188 -0.2382813,-0.0547 -0.6054688,-0.0547 h -0.765625 v 2.32421 h 0.6523437 q 0.4687501,0 0.7617188,-0.082 0.2929688,-0.0859 0.4765625,-0.26953 0.1835938,-0.1875 0.2578125,-0.39453 0.078125,-0.20703 0.078125,-0.46484 z"
       style="font-size:8px;font-family:'Routed Gothic';text-anchor:middle;fill:#e8b923;stroke:none;stroke-width:1px;text-rendering:geometricPrecision"
       id="path10755" />
    <path
       d="m 13.425781,220 h -2.296875 v -0.59375 h 0.761719 v -4.62891 h -0.761719 v -0.59375 h 2.296875 v 0.59375 h -0.761718 v 4.62891 h 0.761718 z"
       style="font-size:8px;font-family:'Routed Gothic';text-anchor:middle;fill:#e8b923;stroke:none;stroke-width:1px;text-rendering:geometricPrecision"
       id="path10757" />
    <path
       d="m 19.1875,220 h -0.957031 l -2.757813,-5.20313 V 220 H 14.75 v -5.81641 h 1.199219 l 2.515625,4.75 v -4.75 H 19.1875 Z"
       style="font-size:8px;font-family:'Routed Gothic';text-anchor:middle;fill:#e8b923;stroke:none;stroke-width:1px;text-rendering:geometricPrecision"
       id="path10759" />
    <path
       d="m 27.324219,217.08984 q 0,1.56641 -0.492188,2.30078 -0.488281,0.73047 -1.519531,0.73047 -1.046875,0 -1.53125,-0.74218 -0.480469,-0.74219 -0.480469,-2.28125 0,-1.55079 0.488281,-2.28907 0.488282,-0.74218 1.523438,-0.74218 1.046875,0 1.527344,0.7539 0.484375,0.75 0.484375,2.26953 z m -1.027344,1.77344 q 0.136719,-0.31641 0.183594,-0.74219 0.05078,-0.42968 0.05078,-1.03125 0,-0.59375 -0.05078,-1.03125 -0.04687,-0.4375 -0.1875,-0.74218 -0.136719,-0.30079 -0.375,-0.45313 -0.234375,-0.15234 -0.605469,-0.15234 -0.367188,0 -0.609375,0.15234 -0.238281,0.15234 -0.378906,0.46094 -0.132813,0.28906 -0.183594,0.7539 -0.04687,0.46485 -0.04687,1.01954 0,0.60937 0.04297,1.01953 0.04297,0.41015 0.183593,0.73437 0.128907,0.30469 0.363282,0.46485 0.238281,0.16015 0.628906,0.16015 0.367187,0 0.609375,-0.15234 0.242187,-0.15235 0.375,-0.46094 z"
       style="font-size:8px;font-family:'Routed Gothic';text-anchor:middle;fill:#e8b923;stroke:none;stroke-width:1px;text-rendering:geometricPrecision"
       id="path10761" />
    <path
       d="m 31.699219,218.74219 q 0,0.59765 -0.496094,0.98047 -0.492188,0.38281 -1.347656,0.38281 -0.484375,0 -0.890625,-0.11328 -0.402344,-0.11719 -0.675782,-0.25391 v -0.82422 h 0.03906 q 0.347656,0.26172 0.773437,0.41797 0.425782,0.15234 0.816407,0.15234 0.484375,0 0.757812,-0.15625 0.273438,-0.15625 0.273438,-0.49218 0,-0.25782 -0.148438,-0.39063 -0.148437,-0.13281 -0.570312,-0.22656 -0.15625,-0.0352 -0.410157,-0.082 -0.25,-0.0469 -0.457031,-0.10156 -0.574219,-0.15235 -0.816406,-0.44532 -0.238281,-0.29687 -0.238281,-0.72656 0,-0.26953 0.109375,-0.50781 0.113281,-0.23828 0.339843,-0.42578 0.21875,-0.1836 0.554688,-0.28907 0.339844,-0.10937 0.757812,-0.10937 0.390625,0 0.789063,0.0977 0.402344,0.0937 0.667969,0.23046 v 0.78516 h -0.03906 q -0.28125,-0.20703 -0.683594,-0.34766 -0.402343,-0.14453 -0.789062,-0.14453 -0.402344,0 -0.679688,0.15625 -0.277343,0.15235 -0.277343,0.45703 0,0.26954 0.167968,0.40625 0.164063,0.13672 0.53125,0.22266 0.203125,0.0469 0.453125,0.0937 0.253907,0.0469 0.421875,0.0859 0.511719,0.11719 0.789063,0.40234 0.277344,0.28906 0.277344,0.76563 z"
       style="font-size:8px;font-family:'Routed Gothic';text-anchor:middle;fill:#e8b923;stroke:none;stroke-width:1px;text-rendering:geometricPrecision"
       id="path10763" />
  </g>
  <g
     aria-label="PIN 0s"
     style="font-size:8px;font-family:'Routed Gothic';text-anchor:middle;fill:#e8b923;stroke:none;stroke-width:1px;text-rendering:geometricPrecision"
     id="text106-6-1-3">
    <path
       d="m 150.35156,215.94141 q 0,0.38671 -0.13672,0.71875 -0.13281,0.32812 -0.375,0.57031 -0.30078,0.30078 -0.71093,0.45312 -0.41016,0.14844 -1.03516,0.14844 h -0.77344 V 220 h -0.77344 v -5.81641 h 1.57813 q 0.52344,0 0.88672,0.0898 0.36328,0.0859 0.64453,0.27343 0.33203,0.22266 0.51172,0.55469 0.18359,0.33203 0.18359,0.83985 z m -0.80469,0.0195 q 0,-0.30078 -0.10546,-0.52344 -0.10547,-0.22266 -0.32032,-0.36328 -0.1875,-0.1211 -0.42968,-0.17188 -0.23829,-0.0547 -0.60547,-0.0547 h -0.76563 v 2.32421 h 0.65235 q 0.46875,0 0.76171,-0.082 0.29297,-0.0859 0.47657,-0.26953 0.18359,-0.1875 0.25781,-0.39453 0.0781,-0.20703 0.0781,-0.46484 z"
       style="font-size:8px;font-family:'Routed Gothic';text-anchor:middle;fill:#e8b923;stroke:none;stroke-width:1px;text-rendering:geometricPrecision"
       id="path10766" />
    <path
       d="m 153.42578,220 h -2.29687 v -0.59375 h 0.76171 v -4.62891 h -0.76171 v -0.59375 h 2.29687 v 0.59375 h -0.76172 v 4.62891 h 0.76172 z"
       style="font-size:8px;font-family:'Routed Gothic';text-anchor:middle;fill:#e8b923;stroke:none;stroke-width:1px;text-rendering:geometricPrecision"
       id="path10768" />
    <path
       d="m 159.1875,220 h -0.95703 l -2.75781,-5.20313 V 220 H 154.75 v -5.81641 h 1.19922 l 2.51562,4.75 v -4.75 h 0.72266 z"
       style="font-size:8px;font-family:'Routed Gothic';text-anchor:middle;fill:#e8b923;stroke:none;stroke-width:1px;text-rendering:geometricPrecision"
       id="path10770" />
    <path
       d="m 167.32422,217.08984 q 0,1.56641 -0.49219,2.30078 -0.48828,0.73047 -1.51953,0.73047 -1.04688,0 -1.53125,-0.74218 -0.48047,-0.74219 -0.48047,-2.28125 0,-1.55079 0.48828,-2.28907 0.48828,-0.74218 1.52344,-0.74218 1.04687,0 1.52734,0.7539 0.48438,0.75 0.48438,2.26953 z m -1.02735,1.77344 q 0.13672,-0.31641 0.1836,-0.74219 0.0508,-0.42968 0.0508,-1.03125 0,-0.59375 -0.0508,-1.03125 -0.0469,-0.4375 -0.1875,-0.74218 -0.13672,-0.30079 -0.375,-0.45313 -0.23438,-0.15234 -0.60547,-0.15234 -0.36719,0 -0.60938,0.15234 -0.23828,0.15234 -0.3789,0.46094 -0.13281,0.28906 -0.1836,0.7539 -0.0469,0.46485 -0.0469,1.01954 0,0.60937 0.043,1.01953 0.043,0.41015 0.18359,0.73437 0.12891,0.30469 0.36328,0.46485 0.23828,0.16015 0.62891,0.16015 0.36719,0 0.60937,-0.15234 0.24219,-0.15235 0.375,-0.46094 z"
       style="font-size:8px;font-family:'Routed Gothic';text-anchor:middle;fill:#e8b923;stroke:none;stroke-width:1px;text-rendering:geometricPrecision"
       id="path10772" />
    <path
       d="m 171.69922,218.74219 q 0,0.59765 -0.4961,0.98047 -0.49218,0.38281 -1.34765,0.38281 -0.48438,0 -0.89063,-0.11328 -0.40234,-0.11719 -0.67578,-0.25391 v -0.82422 h 0.0391 q 0.34766,0.26172 0.77344,0.41797 0.42578,0.15234 0.81641,0.15234 0.48437,0 0.75781,-0.15625 0.27344,-0.15625 0.27344,-0.49218 0,-0.25782 -0.14844,-0.39063 -0.14844,-0.13281 -0.57031,-0.22656 -0.15625,-0.0352 -0.41016,-0.082 -0.25,-0.0469 -0.45703,-0.10156 -0.57422,-0.15235 -0.81641,-0.44532 -0.23828,-0.29687 -0.23828,-0.72656 0,-0.26953 0.10938,-0.50781 0.11328,-0.23828 0.33984,-0.42578 0.21875,-0.1836 0.55469,-0.28907 0.33984,-0.10937 0.75781,-0.10937 0.39063,0 0.78906,0.0977 0.40235,0.0937 0.66797,0.23046 v 0.78516 h -0.0391 q -0.28125,-0.20703 -0.68359,-0.34766 -0.40235,-0.14453 -0.78907,-0.14453 -0.40234,0 -0.67968,0.15625 -0.27735,0.15235 -0.27735,0.45703 0,0.26954 0.16797,0.40625 0.16406,0.13672 0.53125,0.22266 0.20313,0.0469 0.45313,0.0937 0.2539,0.0469 0.42187,0.0859 0.51172,0.11719 0.78906,0.40234 0.27735,0.28906 0.27735,0.76563 z"
       style="font-size:8px;font-family:'Routed Gothic';text-anchor:middle;fill:#e8b923;stroke:none;stroke-width:1px;text-rendering:geometricPrecision"
       id="path10774" />
  </g>
  <g
     aria-label="PIN 0s"
     style="font-size:8px;font-family:'Routed Gothic';text-anchor:middle;fill:#e8b923;stroke:none;stroke-width:1px;text-rendering:geometricPrecision"
     id="text106-6-1-6">
    <path
       d="m 290.35156,215.94141 q 0,0.38671 -0.13672,0.71875 -0.13281,0.32812 -0.375,0.57031 -0.30078,0.30078 -0.71093,0.45312 -0.41016,0.14844 -1.03516,0.14844 h -0.77344 V 220 h -0.77344 v -5.81641 h 1.57813 q 0.52344,0 0.88672,0.0898 0.36328,0.0859 0.64453,0.27343 0.33203,0.22266 0.51172,0.55469 0.18359,0.33203 0.18359,0.83985 z m -0.80469,0.0195 q 0,-0.30078 -0.10546,-0.52344 -0.10547,-0.22266 -0.32032,-0.36328 -0.1875,-0.1211 -0.42968,-0.17188 -0.23829,-0.0547 -0.60547,-0.0547 h -0.76563 v 2.32421 h 0.65235 q 0.46875,0 0.76171,-0.082 0.29297,-0.0859 0.47657,-0.26953 0.18359,-0.1875 0.25781,-0.39453 0.0781,-0.20703 0.0781,-0.46484 z"
       style="font-size:8px;font-family:'Routed Gothic';text-anchor:middle;fill:#e8b923;stroke:none;stroke-width:1px;text-rendering:geometricPrecision"
       id="path10777" />
    <path
       d="m 293.42578,220 h -2.29687 v -0.59375 h 0.76171 v -4.62891 h -0.76171 v -0.59375 h 2.29687 v 0.59375 h -0.76172 v 4.62891 h 0.76172 z"
       style="font-size:8px;font-family:'Routed Gothic';text-anchor:middle;fill:#e8b923;stroke:none;stroke-width:1px;text-rendering:geometricPrecision"
       id="path10779" />
    <path
       d="m 299.1875,220 h -0.95703 l -2.75781,-5.20313 V 220 H 294.75 v -5.81641 h 1.19922 l 2.51562,4.75 v -4.75 h 0.72266 z"
       style="font-size:8px;font-family:'Routed Gothic';text-anchor:middle;fill:#e8b923;stroke:none;stroke-width:1px;text-rendering:geometricPrecision"
       id="path10781" />
    <path
       d="m 307.32422,217.08984 q 0,1.56641 -0.49219,2.30078 -0.48828,0.73047 -1.51953,0.73047 -1.04688,0 -1.53125,-0.74218 -0.48047,-0.74219 -0.48047,-2.28125 0,-1.55079 0.48828,-2.28907 0.48828,-0.74218 1.52344,-0.74218 1.04687,0 1.52734,0.7539 0.48438,0.75 0.48438,2.26953 z m -1.02735,1.77344 q 0.13672,-0.31641 0.1836,-0.74219 0.0508,-0.42968 0.0508,-1.03125 0,-0.59375 -0.0508,-1.03125 -0.0469,-0.4375 -0.1875,-0.74218 -0.13672,-0.30079 -0.375,-0.45313 -0.23438,-0.15234 -0.60547,-0.15234 -0.36719,0 -0.60938,0.15234 -0.23828,0.15234 -0.3789,0.46094 -0.13281,0.28906 -0.1836,0.7539 -0.0469,0.46485 -0.0469,1.01954 0,0.60937 0.043,1.01953 0.043,0.41015 0.18359,0.73437 0.12891,0.30469 0.36328,0.46485 0.23828,0.16015 0.62891,0.16015 0.36719,0 0.60937,-0.15234 0.24219,-0.15235 0.375,-0.46094 z"
       style="font-size:8px;font-family:'Routed Gothic';text-anchor:middle;fill:#e8b923;stroke:none;stroke-width:1px;text-rendering:geometricPrecision"
       id="path10783" />
    <path
       d="m 311.69922,218.74219 q 0,0.59765 -0.4961,0.98047 -0.49218,0.38281 -1.34765,0.38281 -0.48438,0 -0.89063,-0.11328 -0.40234,-0.11719 -0.67578,-0.25391 v -0.82422 h 0.0391 q 0.34766,0.26172 0.77344,0.41797 0.42578,0.15234 0.81641,0.15234 0.48437,0 0.75781,-0.15625 0.27344,-0.15625 0.27344,-0.49218 0,-0.25782 -0.14844,-0.39063 -0.14844,-0.13281 -0.57031,-0.22656 -0.15625,-0.0352 -0.41016,-0.082 -0.25,-0.0469 -0.45703,-0.10156 -0.57422,-0.15235 -0.81641,-0.44532 -0.23828,-0.29687 -0.23828,-0.72656 0,-0.26953 0.10938,-0.50781 0.11328,-0.23828 0.33984,-0.42578 0.21875,-0.1836 0.55469,-0.28907 0.33984,-0.10937 0.75781,-0.10937 0.39063,0 0.78906,0.0977 0.40235,0.0937 0.66797,0.23046 v 0.78516 h -0.0391 q -0.28125,-0.20703 -0.68359,-0.34766 -0.40235,-0.14453 -0.78907,-0.14453 -0.40234,0 -0.67968,0.15625 -0.27735,0.15235 -0.27735,0.45703 0,0.26954 0.16797,0.40625 0.16406,0.13672 0.53125,0.22266 0.20313,0.0469 0.45313,0.0937 0.2539,0.0469 0.42187,0.0859 0.51172,0.11719 0.78906,0.40234 0.27735,0.28906 0.27735,0.76563 z"
       style="font-size:8px;font-family:'Routed Gothic';text-anchor:middle;fill:#e8b923;stroke:none;stroke-width:1px;text-rendering:geometricPrecision"
       id="path10785" />
  </g>
  <g
     aria-label="LINK"
     style="font-size:8px;font-family:'Routed Gothic';text-anchor:middle;fill:#e8b923;stroke:none;stroke-width:1px;text-rendering:geometricPrecision"
     id="text106-6-1-4">
    <path
       d="M 13.679688,265 H 10 v -5.81641 h 0.773438 v 5.12891 h 2.90625 z"
       style="font-size:8px;font-family:'Routed Gothic';text-anchor:middle;fill:#e8b923;stroke:none;stroke-width:1px;text-rendering:geometricPrecision"
       id="path10788" />
    <path
       d="m 16.503906,265 h -2.296875 v -0.59375 h 0.761719 v -4.62891 h -0.761719 v -0.59375 h 2.296875 v 0.59375 h -0.761718 v 4.62891 h 0.761718 z"
       style="font-size:8px;font-family:'Routed Gothic';text-anchor:middle;fill:#e8b923;stroke:none;stroke-width:1px;text-rendering:geometricPrecision"
       id="path10790" />
    <path
       d="m 22.265625,265 h -0.957031 l -2.757813,-5.20313 V 265 h -0.722656 v -5.81641 h 1.199219 l 2.515625,4.75 v -4.75 h 0.722656 z"
       style="font-size:8px;font-family:'Routed Gothic';text-anchor:middle;fill:#e8b923;stroke:none;stroke-width:1px;text-rendering:geometricPrecision"
       id="path10792" />
    <path
       d="m 28.488281,265 h -1.003906 l -2.300781,-2.58984 -0.578125,0.61718 V 265 h -0.773438 v -5.81641 h 0.773438 v 3.03516 l 2.824218,-3.03516 h 0.9375 l -2.597656,2.73438 z"
       style="font-size:8px;font-family:'Routed Gothic';text-anchor:middle;fill:#e8b923;stroke:none;stroke-width:1px;text-rendering:geometricPrecision"
       id="path10794" />
  </g>
  <g
     aria-label="LINK"
     style="font-size:8px;font-family:'Routed Gothic';text-anchor:middle;fill:#e8b923;stroke:none;stroke-width:1px;text-rendering:geometricPrecision"
     id="text106-6-1-4-6">
    <path
       d="M 153.67969,265 H 150 v -5.81641 h 0.77344 v 5.12891 h 2.90625 z"
       style="font-size:8px;font-family:'Routed Gothic';text-anchor:middle;fill:#e8b923;stroke:none;stroke-width:1px;text-rendering:geometricPrecision"
       id="path10797" />
    <path
       d="m 156.50391,265 h -2.29688 v -0.59375 h 0.76172 v -4.62891 h -0.76172 v -0.59375 h 2.29688 v 0.59375 h -0.76172 v 4.62891 h 0.76172 z"
       style="font-size:8px;font-family:'Routed Gothic';text-anchor:middle;fill:#e8b923;stroke:none;stroke-width:1px;text-rendering:geometricPrecision"
       id="path10799" />
    <path
       d="m 162.26562,265 h -0.95703 l -2.75781,-5.20313 V 265 h -0.72266 v -5.81641 h 1.19922 l 2.51563,4.75 v -4.75 h 0.72265 z"
       style="font-size:8px;font-family:'Routed Gothic';text-anchor:middle;fill:#e8b923;stroke:none;stroke-width:1px;text-rendering:geometricPrecision"
       id="path10801" />
    <path
       d="m 168.48828,265 h -1.00391 l -2.30078,-2.58984 -0.57812,0.61718 V 265 h -0.77344 v -5.81641 h 0.77344 v 3.03516 l 2.82422,-3.03516 h 0.9375 l -2.59766,2.73438 z"
       style="font-size:8px;font-family:'Routed Gothic';text-anchor:middle;fill:#e8b923;stroke:none;stroke-width:1px;text-rendering:geometricPrecision"
       id="path10803" />
  </g>
  <g
     aria-label="LINK"
     style="font-size:8px;font-family:'Routed Gothic';text-anchor:middle;fill:#e8b923;stroke:none;stroke-width:1px;text-rendering:geometricPrecision"
     id="text106-6-1-4-2">
    <path
       d="M 293.67969,265 H 290 v -5.81641 h 0.77344 v 5.12891 h 2.90625 z"
       style="font-size:8px;font-family:'Routed Gothic';text-anchor:middle;fill:#e8b923;stroke:none;stroke-width:1px;text-rendering:geometricPrecision"
       id="path10806" />
    <path
       d="m 296.50391,265 h -2.29688 v -0.59375 h 0.76172 v -4.62891 h -0.76172 v -0.59375 h 2.29688 v 0.59375 h -0.76172 v 4.62891 h 0.76172 z"
       style="font-size:8px;font-family:'Routed Gothic';text-anchor:middle;fill:#e8b923;stroke:none;stroke-width:1px;text-rendering:geometricPrecision"
       id="path10808" />
    <path
       d="m 302.26562,265 h -0.95703 l -2.75781,-5.20313 V 265 h -0.72266 v -5.81641 h 1.19922 l 2.51563,4.75 v -4.75 h 0.72265 z"
       style="font-size:8px;font-family:'Routed Gothic';text-anchor:middle;fill:#e8b923;stroke:none;stroke-width:1px;text-rendering:geometricPrecision"
       id="path10810" />
    <path
       d="m 308.48828,265 h -1.00391 l -2.30078,-2.58984 -0.57812,0.61718 V 265 h -0.77344 v -5.81641 h 0.77344 v 3.03516 l 2.82422,-3.03516 h 0.9375 l -2.59766,2.73438 z"
       style="font-size:8px;font-family:'Routed Gothic';text-anchor:middle;fill:#e8b923;stroke:none;stroke-width:1px;text-rendering:geometricPrecision"
       id="path10812" />
  </g>
</svg>
