<?xml version="1.0" encoding="UTF-8" standalone="no"?>
<svg
   xmlns:dc="http://purl.org/dc/elements/1.1/"
   xmlns:cc="http://creativecommons.org/ns#"
   xmlns:rdf="http://www.w3.org/1999/02/22-rdf-syntax-ns#"
   xmlns:svg="http://www.w3.org/2000/svg"
   xmlns="http://www.w3.org/2000/svg"
   xmlns:xlink="http://www.w3.org/1999/xlink"
   xmlns:sodipodi="http://sodipodi.sourceforge.net/DTD/sodipodi-0.dtd"
   xmlns:inkscape="http://www.inkscape.org/namespaces/inkscape"
   height="380"
   cursor="default"
   id="SvgjsSvg1006"
   sodipodi:docname="Morphology.svg"
   inkscape:version="0.92.2 (5c3e80d, 2017-08-06)"
   width="345"
   version="1.1">
  <metadata
     id="metadata7215">
    <rdf:RDF>
      <cc:Work
         rdf:about="">
        <dc:format>image/svg+xml</dc:format>
        <dc:type
           rdf:resource="http://purl.org/dc/dcmitype/StillImage" />
        <dc:title></dc:title>
      </cc:Work>
    </rdf:RDF>
  </metadata>
  <sodipodi:namedview
     borderopacity="1"
     inkscape:zoom="2.9512404"
     inkscape:cy="65.671605"
     gridtolerance="10"
     inkscape:cx="63.648642"
     inkscape:window-height="1057"
     inkscape:measure-start="21.6858,252.097"
     inkscape:pagecheckerboard="true"
     inkscape:window-width="1920"
     guidetolerance="10"
     id="namedview7213"
     showgrid="false"
     inkscape:pageopacity="0"
     inkscape:pageshadow="2"
     bordercolor="#666666"
     inkscape:current-layer="SvgjsSvg1006"
     inkscape:window-maximized="1"
     inkscape:window-y="-8"
     inkscape:measure-end="21.0081,301.907"
     objecttolerance="10"
     pagecolor="#ffffff"
     inkscape:window-x="-8"
     visibility="visible" />
  <defs
     id="SvgjsDefs1007">
    <inkscape:perspective
       sodipodi:type="inkscape:persp3d"
       inkscape:vp_x="0 : 190 : 1"
       inkscape:vp_y="0 : 1000 : 0"
       inkscape:vp_z="450 : 190 : 1"
       inkscape:persp3d-origin="225 : 126.66667 : 1"
       id="perspective1620" />
    <linearGradient
       inkscape:collect="always"
       id="linearGradientInner">
      <stop
         style="stop-color:#3d1a30;stop-opacity:1;"
         offset="0"
         id="stop1" />
      <stop
         style="stop-color:#391727;stop-opacity:1;"
         offset="1"
         id="stop2" />
    </linearGradient>
    <linearGradient
       inkscape:collect="always"
       xlink:href="#linearGradientInner"
       id="linearGradientOuter"
       x1="0"
       y1="0"
       x2="450"
       y2="380"
       gradientUnits="userSpaceOnUse"
       gradientTransform="scale(0.76666664,1)" />
    <style
       id="Routed Gothic">@import url(file://fonts/routed-gothic.ttf);</style>
  </defs>
  <path
     d="M 0,0 H 345 V 380 H 0 Z"
     id="SvgjsRect1008"
     style="visibility:visible;fill:url(#linearGradientOuter);fill-opacity:1;stroke:none;stroke-width:0.87559509;stroke-opacity:1"
     visibility="visible"
     inkscape:connector-curvature="0" />
  <g
     aria-label="MORPHOLOGY"
     style="font-size:16px;font-family:'Routed Gothic';text-anchor:middle;fill:#e8b923;stroke:none;stroke-width:1px;text-rendering:geometricPrecision"
     id="text5">
    <path
       d="M 126.35938,18 H 124.8125 V 7.9765625 l -3.23437,6.8203125 h -0.92188 L 117.44531,7.9765625 V 18 H 116 V 6.3671875 h 2.10938 l 3.10156,6.4765625 3,-6.4765625 h 2.14844 z"
       style="font-size:16px;font-family:'Routed Gothic';text-anchor:middle;fill:#e8b923;stroke:none;stroke-width:1px;text-rendering:geometricPrecision"
       id="path10259" />
    <path
       d="m 138.17187,7.703125 q 0.71094,0.78125 1.08594,1.9140625 0.38281,1.1328125 0.38281,2.5703125 0,1.4375 -0.39062,2.578125 -0.38281,1.132813 -1.07813,1.890625 -0.71875,0.789062 -1.70312,1.1875 -0.97656,0.398437 -2.23438,0.398437 -1.22656,0 -2.23437,-0.40625 -1,-0.40625 -1.70313,-1.179687 -0.70312,-0.773437 -1.08593,-1.898437 -0.375,-1.125 -0.375,-2.570313 0,-1.421875 0.375,-2.546875 0.375,-1.1328125 1.09375,-1.9375 0.6875,-0.765625 1.70312,-1.171875 1.02344,-0.40625 2.22656,-0.40625 1.25,0 2.24219,0.4140625 1,0.40625 1.69531,1.1640625 z m -0.14062,4.484375 q 0,-2.265625 -1.01563,-3.4921875 -1.01562,-1.234375 -2.77343,-1.234375 -1.77344,0 -2.78907,1.234375 -1.00781,1.2265625 -1.00781,3.4921875 0,2.289063 1.03125,3.507813 1.03125,1.210937 2.76563,1.210937 1.73437,0 2.75781,-1.210937 1.03125,-1.21875 1.03125,-3.507813 z"
       style="font-size:16px;font-family:'Routed Gothic';text-anchor:middle;fill:#e8b923;stroke:none;stroke-width:1px;text-rendering:geometricPrecision"
       id="path10261" />
    <path
       d="m 151.71875,18 h -2.00781 l -3.89063,-4.625 h -2.17969 V 18 h -1.54687 V 6.3671875 h 3.25781 q 1.05469,0 1.75781,0.140625 0.70313,0.1328125 1.26563,0.484375 Q 149.00781,7.390625 149.35937,8 q 0.35938,0.6015625 0.35938,1.53125 0,1.257813 -0.63281,2.109375 -0.63282,0.84375 -1.74219,1.273438 z m -3.61719,-8.359375 q 0,-0.5 -0.17969,-0.8828125 -0.17187,-0.390625 -0.57812,-0.65625 -0.33594,-0.2265625 -0.79688,-0.3125 -0.46093,-0.09375 -1.08593,-0.09375 h -1.82032 v 4.3906255 h 1.5625 q 0.73438,0 1.28125,-0.125 0.54688,-0.132813 0.92969,-0.484375 0.35156,-0.328125 0.51563,-0.75 0.17187,-0.429688 0.17187,-1.085938 z"
       style="font-size:16px;font-family:'Routed Gothic';text-anchor:middle;fill:#e8b923;stroke:none;stroke-width:1px;text-rendering:geometricPrecision"
       id="path10263" />
    <path
       d="m 160.82812,9.8828125 q 0,0.7734375 -0.27343,1.4375005 -0.26563,0.65625 -0.75,1.140625 -0.60157,0.601562 -1.42188,0.90625 -0.82031,0.296875 -2.07031,0.296875 h -1.54688 V 18 h -1.54687 V 6.3671875 h 3.15625 q 1.04687,0 1.77344,0.1796875 0.72656,0.171875 1.28906,0.546875 0.66406,0.4453125 1.02344,1.109375 0.36718,0.6640625 0.36718,1.6796875 z m -1.60937,0.039063 q 0,-0.6015625 -0.21094,-1.046875 -0.21094,-0.4453125 -0.64062,-0.7265625 -0.375,-0.2421875 -0.85938,-0.34375 -0.47656,-0.109375 -1.21094,-0.109375 h -1.53125 V 12.34375 h 1.30469 q 0.9375,0 1.52344,-0.164062 0.58594,-0.171875 0.95312,-0.539063 0.36719,-0.375 0.51563,-0.789062 0.15625,-0.414063 0.15625,-0.929688 z"
       style="font-size:16px;font-family:'Routed Gothic';text-anchor:middle;fill:#e8b923;stroke:none;stroke-width:1px;text-rendering:geometricPrecision"
       id="path10265" />
    <path
       d="m 171.77344,18 h -1.54688 v -5.695312 h -5.80469 V 18 H 162.875 V 6.3671875 h 1.54687 v 4.5625005 h 5.80469 V 6.3671875 h 1.54688 z"
       style="font-size:16px;font-family:'Routed Gothic';text-anchor:middle;fill:#e8b923;stroke:none;stroke-width:1px;text-rendering:geometricPrecision"
       id="path10267" />
    <path
       d="m 183.57812,7.703125 q 0.71094,0.78125 1.08594,1.9140625 0.38281,1.1328125 0.38281,2.5703125 0,1.4375 -0.39062,2.578125 -0.38281,1.132813 -1.07813,1.890625 -0.71875,0.789062 -1.70312,1.1875 -0.97656,0.398437 -2.23438,0.398437 -1.22656,0 -2.23437,-0.40625 -1,-0.40625 -1.70313,-1.179687 -0.70312,-0.773437 -1.08593,-1.898437 -0.375,-1.125 -0.375,-2.570313 0,-1.421875 0.375,-2.546875 0.375,-1.1328125 1.09375,-1.9375 0.6875,-0.765625 1.70312,-1.171875 1.02344,-0.40625 2.22656,-0.40625 1.25,0 2.24219,0.4140625 1,0.40625 1.69531,1.1640625 z M 183.4375,12.1875 q 0,-2.265625 -1.01563,-3.4921875 -1.01562,-1.234375 -2.77343,-1.234375 -1.77344,0 -2.78907,1.234375 -1.00781,1.2265625 -1.00781,3.4921875 0,2.289063 1.03125,3.507813 1.03125,1.210937 2.76563,1.210937 1.73437,0 2.75781,-1.210937 1.03125,-1.21875 1.03125,-3.507813 z"
       style="font-size:16px;font-family:'Routed Gothic';text-anchor:middle;fill:#e8b923;stroke:none;stroke-width:1px;text-rendering:geometricPrecision"
       id="path10269" />
    <path
       d="M 194.85937,18 H 187.5 V 6.3671875 h 1.54687 V 16.625 h 5.8125 z"
       style="font-size:16px;font-family:'Routed Gothic';text-anchor:middle;fill:#e8b923;stroke:none;stroke-width:1px;text-rendering:geometricPrecision"
       id="path10271" />
    <path
       d="m 204.92187,7.703125 q 0.71094,0.78125 1.08594,1.9140625 0.38281,1.1328125 0.38281,2.5703125 0,1.4375 -0.39062,2.578125 -0.38281,1.132813 -1.07813,1.890625 -0.71875,0.789062 -1.70312,1.1875 -0.97656,0.398437 -2.23438,0.398437 -1.22656,0 -2.23437,-0.40625 -1,-0.40625 -1.70313,-1.179687 -0.70312,-0.773437 -1.08593,-1.898437 -0.375,-1.125 -0.375,-2.570313 0,-1.421875 0.375,-2.546875 0.375,-1.1328125 1.09375,-1.9375 0.6875,-0.765625 1.70312,-1.171875 1.02344,-0.40625 2.22656,-0.40625 1.25,0 2.24219,0.4140625 1,0.40625 1.69531,1.1640625 z m -0.14062,4.484375 q 0,-2.265625 -1.01563,-3.4921875 -1.01562,-1.234375 -2.77343,-1.234375 -1.77344,0 -2.78907,1.234375 -1.00781,1.2265625 -1.00781,3.4921875 0,2.289063 1.03125,3.507813 1.03125,1.210937 2.76563,1.210937 1.73437,0 2.75781,-1.210937 1.03125,-1.21875 1.03125,-3.507813 z"
       style="font-size:16px;font-family:'Routed Gothic';text-anchor:middle;fill:#e8b923;stroke:none;stroke-width:1px;text-rendering:geometricPrecision"
       id="path10273" />
    <path
       d="m 218.54687,17.140625 q -0.95312,0.4375 -2.08593,0.765625 -1.125,0.320312 -2.17969,0.320312 -1.35938,0 -2.49219,-0.375 -1.13281,-0.375 -1.92969,-1.125 -0.80468,-0.757812 -1.24218,-1.890624 -0.4375,-1.140625 -0.4375,-2.664063 0,-2.7890625 1.625,-4.3984375 1.63281,-1.6171875 4.47656,-1.6171875 0.99219,0 2.02344,0.2421875 1.03906,0.234375 2.23437,0.8046875 v 1.8359375 h -0.14062 Q 218.15625,8.8515625 217.69531,8.546875 217.23437,8.2421875 216.78906,8.0390625 216.25,7.796875 215.5625,7.640625 q -0.67969,-0.1640625 -1.54688,-0.1640625 -1.95312,0 -3.09375,1.2578125 -1.13281,1.25 -1.13281,3.390625 0,2.257813 1.1875,3.515625 1.1875,1.25 3.23438,1.25 0.75,0 1.49218,-0.148438 0.75,-0.148437 1.3125,-0.382812 v -2.851562 h -3.11718 v -1.359375 h 4.64843 z"
       style="font-size:16px;font-family:'Routed Gothic';text-anchor:middle;fill:#e8b923;stroke:none;stroke-width:1px;text-rendering:geometricPrecision"
       id="path10275" />
    <path
       d="m 229.48437,6.3671875 -4.09375,6.5312505 V 18 h -1.54687 v -4.9375 l -4.10938,-6.6953125 h 1.71094 l 3.17969,5.2031255 3.21094,-5.2031255 z"
       style="font-size:16px;font-family:'Routed Gothic';text-anchor:middle;fill:#e8b923;stroke:none;stroke-width:1px;text-rendering:geometricPrecision"
       id="path10277" />
  </g>
  <g
     aria-label="INPUT"
     style="font-size:8px;font-family:'Routed Gothic';text-anchor:middle;fill:#e8b923;stroke:none;stroke-width:1px;text-rendering:geometricPrecision"
     id="text106">
    <path
       d="M 202.29687,369.87891 H 200 v -0.59375 h 0.76172 v -4.62891 H 200 v -0.59375 h 2.29687 v 0.59375 h -0.76171 v 4.62891 h 0.76171 z"
       style="font-size:8px;font-family:'Routed Gothic';text-anchor:middle;fill:#e8b923;stroke:none;stroke-width:1px;text-rendering:geometricPrecision"
       id="path10280" />
    <path
       d="m 208.05859,369.87891 h -0.95703 l -2.75781,-5.20313 v 5.20313 h -0.72266 v -5.81641 h 1.19922 l 2.51563,4.75 v -4.75 h 0.72265 z"
       style="font-size:8px;font-family:'Routed Gothic';text-anchor:middle;fill:#e8b923;stroke:none;stroke-width:1px;text-rendering:geometricPrecision"
       id="path10282" />
    <path
       d="m 213.41016,365.82031 q 0,0.38672 -0.13672,0.71875 -0.13282,0.32813 -0.375,0.57031 -0.30078,0.30079 -0.71094,0.45313 -0.41016,0.14844 -1.03516,0.14844 h -0.77343 v 2.16797 h -0.77344 v -5.81641 h 1.57812 q 0.52344,0 0.88672,0.0898 0.36328,0.0859 0.64453,0.27344 0.33203,0.22266 0.51172,0.55469 0.1836,0.33203 0.1836,0.83984 z m -0.80469,0.0195 q 0,-0.30078 -0.10547,-0.52343 -0.10547,-0.22266 -0.32031,-0.36329 -0.1875,-0.12109 -0.42969,-0.17187 -0.23828,-0.0547 -0.60547,-0.0547 h -0.76562 v 2.32422 h 0.65234 q 0.46875,0 0.76172,-0.082 0.29297,-0.0859 0.47656,-0.26953 0.18359,-0.1875 0.25781,-0.39453 0.0781,-0.20703 0.0781,-0.46485 z"
       style="font-size:8px;font-family:'Routed Gothic';text-anchor:middle;fill:#e8b923;stroke:none;stroke-width:1px;text-rendering:geometricPrecision"
       id="path10284" />
    <path
       d="m 218.8125,367.54297 q 0,0.63281 -0.14063,1.10547 -0.13671,0.46875 -0.45312,0.78125 -0.30078,0.29687 -0.70313,0.43359 Q 217.11328,370 216.57812,370 q -0.54687,0 -0.95312,-0.14453 -0.40625,-0.14453 -0.68359,-0.42578 -0.31641,-0.32032 -0.45704,-0.77344 -0.13671,-0.45313 -0.13671,-1.11328 v -3.48047 h 0.77343 v 3.51953 q 0,0.47266 0.0625,0.74609 0.0664,0.27344 0.21875,0.4961 0.17188,0.2539 0.46485,0.38281 0.29687,0.12891 0.71093,0.12891 0.41797,0 0.71094,-0.125 0.29297,-0.12891 0.46875,-0.38672 0.15235,-0.22266 0.21485,-0.50781 0.0664,-0.28907 0.0664,-0.71485 v -3.53906 h 0.77344 z"
       style="font-size:8px;font-family:'Routed Gothic';text-anchor:middle;fill:#e8b923;stroke:none;stroke-width:1px;text-rendering:geometricPrecision"
       id="path10286" />
    <path
       d="m 224.44141,364.75 h -2.07813 v 5.12891 h -0.77344 V 364.75 h -2.07812 v -0.6875 h 4.92969 z"
       style="font-size:8px;font-family:'Routed Gothic';text-anchor:middle;fill:#e8b923;stroke:none;stroke-width:1px;text-rendering:geometricPrecision"
       id="path10288" />
  </g>
  <g
     aria-label="OUTPUT"
     style="font-size:8px;font-family:'Routed Gothic';text-anchor:middle;fill:#e8b923;stroke:none;stroke-width:1px;text-rendering:geometricPrecision"
     id="text108">
    <path
       d="m 284.66797,364.73047 q 0.35547,0.39062 0.54297,0.95703 0.1914,0.56641 0.1914,1.28516 0,0.71875 -0.19531,1.28906 -0.19141,0.5664 -0.53906,0.94531 -0.35938,0.39453 -0.85156,0.59375 Q 283.32812,370 282.69922,370 q -0.61328,0 -1.11719,-0.20313 -0.5,-0.20312 -0.85156,-0.58984 -0.35156,-0.38672 -0.54297,-0.94922 Q 280,367.69531 280,366.97266 q 0,-0.71094 0.1875,-1.27344 0.1875,-0.56641 0.54687,-0.96875 0.34375,-0.38281 0.85157,-0.58594 0.51172,-0.20312 1.11328,-0.20312 0.625,0 1.12109,0.20703 0.5,0.20312 0.84766,0.58203 z m -0.0703,2.24219 q 0,-1.13282 -0.50782,-1.7461 -0.50781,-0.61719 -1.38672,-0.61719 -0.88671,0 -1.39453,0.61719 -0.5039,0.61328 -0.5039,1.7461 0,1.14453 0.51562,1.7539 0.51563,0.60547 1.38281,0.60547 0.86719,0 1.37891,-0.60547 0.51563,-0.60937 0.51563,-1.7539 z"
       style="font-size:8px;font-family:'Routed Gothic';text-anchor:middle;fill:#e8b923;stroke:none;stroke-width:1px;text-rendering:geometricPrecision"
       id="path10291" />
    <path
       d="m 291.00781,367.54297 q 0,0.63281 -0.14062,1.10547 -0.13672,0.46875 -0.45313,0.78125 -0.30078,0.29687 -0.70312,0.43359 Q 289.30859,370 288.77344,370 q -0.54688,0 -0.95313,-0.14453 -0.40625,-0.14453 -0.68359,-0.42578 -0.31641,-0.32032 -0.45703,-0.77344 -0.13672,-0.45313 -0.13672,-1.11328 v -3.48047 h 0.77344 v 3.51953 q 0,0.47266 0.0625,0.74609 0.0664,0.27344 0.21875,0.4961 0.17187,0.2539 0.46484,0.38281 0.29687,0.12891 0.71094,0.12891 0.41797,0 0.71093,-0.125 0.29297,-0.12891 0.46875,-0.38672 0.15235,-0.22266 0.21485,-0.50781 0.0664,-0.28907 0.0664,-0.71485 v -3.53906 h 0.77344 z"
       style="font-size:8px;font-family:'Routed Gothic';text-anchor:middle;fill:#e8b923;stroke:none;stroke-width:1px;text-rendering:geometricPrecision"
       id="path10293" />
    <path
       d="m 296.63672,364.75 h -2.07813 v 5.12891 h -0.77343 V 364.75 h -2.07813 v -0.6875 h 4.92969 z"
       style="font-size:8px;font-family:'Routed Gothic';text-anchor:middle;fill:#e8b923;stroke:none;stroke-width:1px;text-rendering:geometricPrecision"
       id="path10295" />
    <path
       d="m 301.23047,365.82031 q 0,0.38672 -0.13672,0.71875 -0.13281,0.32813 -0.375,0.57031 -0.30078,0.30079 -0.71094,0.45313 -0.41015,0.14844 -1.03515,0.14844 h -0.77344 v 2.16797 h -0.77344 v -5.81641 h 1.57813 q 0.52343,0 0.88671,0.0898 0.36329,0.0859 0.64454,0.27344 0.33203,0.22266 0.51171,0.55469 0.1836,0.33203 0.1836,0.83984 z m -0.80469,0.0195 q 0,-0.30078 -0.10547,-0.52343 -0.10547,-0.22266 -0.32031,-0.36329 -0.1875,-0.12109 -0.42969,-0.17187 -0.23828,-0.0547 -0.60547,-0.0547 h -0.76562 v 2.32422 h 0.65234 q 0.46875,0 0.76172,-0.082 0.29297,-0.0859 0.47656,-0.26953 0.1836,-0.1875 0.25782,-0.39453 0.0781,-0.20703 0.0781,-0.46485 z"
       style="font-size:8px;font-family:'Routed Gothic';text-anchor:middle;fill:#e8b923;stroke:none;stroke-width:1px;text-rendering:geometricPrecision"
       id="path10297" />
    <path
       d="m 306.63281,367.54297 q 0,0.63281 -0.14062,1.10547 -0.13672,0.46875 -0.45313,0.78125 -0.30078,0.29687 -0.70312,0.43359 Q 304.93359,370 304.39844,370 q -0.54688,0 -0.95313,-0.14453 -0.40625,-0.14453 -0.68359,-0.42578 -0.31641,-0.32032 -0.45703,-0.77344 -0.13672,-0.45313 -0.13672,-1.11328 v -3.48047 h 0.77344 v 3.51953 q 0,0.47266 0.0625,0.74609 0.0664,0.27344 0.21875,0.4961 0.17187,0.2539 0.46484,0.38281 0.29687,0.12891 0.71094,0.12891 0.41797,0 0.71093,-0.125 0.29297,-0.12891 0.46875,-0.38672 0.15235,-0.22266 0.21485,-0.50781 0.0664,-0.28907 0.0664,-0.71485 v -3.53906 h 0.77344 z"
       style="font-size:8px;font-family:'Routed Gothic';text-anchor:middle;fill:#e8b923;stroke:none;stroke-width:1px;text-rendering:geometricPrecision"
       id="path10299" />
    <path
       d="m 312.26172,364.75 h -2.07813 v 5.12891 h -0.77343 V 364.75 h -2.07813 v -0.6875 h 4.92969 z"
       style="font-size:8px;font-family:'Routed Gothic';text-anchor:middle;fill:#e8b923;stroke:none;stroke-width:1px;text-rendering:geometricPrecision"
       id="path10301" />
  </g>
  <g
     transform="matrix(0.08853948,0,0,0.08190343,14.680474,336.68525)"
     id="g6">
    <g
       id="g4">
      <path
         inkscape:connector-curvature="0"
         d="m 438.327,328.191 c -0.939,-0.946 -2.216,-1.479 -3.549,-1.479 -36.364,0 -62.337,-27.428 -77.199,-81.522 -11.417,-41.552 -11.525,-83.792 -11.525,-84.218 V 124.361 C 346.053,55.788 290.266,0 221.693,0 153.12,0 97.333,55.788 97.333,124.361 v 36.615 c 0,0.421 -0.108,42.662 -11.525,84.214 -14.862,54.094 -40.835,81.522 -77.199,81.522 -1.333,0 -2.611,0.532 -3.549,1.479 -0.939,0.946 -1.461,2.228 -1.451,3.561 0.008,0.945 0.39,23.315 18.265,38.641 13.955,11.965 34.286,16.09 60.427,12.265 47.535,-6.957 58.661,2.664 72.713,26.277 19.442,32.674 56.13,34.45 66.68,34.45 11.711,0 47.239,-1.778 66.68,-34.45 14.052,-23.613 25.178,-33.234 72.713,-26.278 26.141,3.825 46.472,-0.3 60.427,-12.265 17.875,-15.326 18.257,-37.696 18.265,-38.641 0.009,-1.331 -0.513,-2.613 -1.452,-3.56 z m -23.418,34.691 c -11.664,9.937 -29.286,13.26 -52.375,9.881 -50.909,-7.45 -66.089,3.054 -82.755,31.059 -18.276,30.714 -58.085,29.578 -58.085,29.578 0,0 -39.735,1.263 -58.087,-29.578 -16.666,-28.004 -31.85,-38.51 -82.755,-31.058 -23.089,3.379 -40.711,0.055 -52.376,-9.881 -9.918,-8.45 -13.226,-19.943 -14.324,-26.362 38.057,-2.684 66.115,-33.267 81.347,-88.856 11.739,-42.843 11.835,-84.926 11.834,-86.691 V 124.363 C 107.333,61.302 158.634,10 221.693,10 c 63.059,0 114.36,51.302 114.36,114.361 v 36.607 c -10e-4,1.77 0.095,43.853 11.833,86.696 15.232,55.589 43.289,86.172 81.346,88.855 -1.099,6.426 -4.407,17.916 -14.323,26.363 z"
         id="path2"
         style="fill:#e8b923" />
    </g>
  </g>
  <path
     style="fill:#0000ff;fill-rule:evenodd;stroke-width:0.08515684"
     d="m 28.918003,343.73096 h 3.175819 v 1.84972 h -3.175819 z"
     id="rect57" />
  <path
     style="fill:#0000ff;fill-rule:evenodd;stroke-width:0.08515684"
     d="m 36.207405,343.77582 h 3.175819 v 1.84972 h -3.175819 z"
     id="rect57-7" />
  <g
     aria-label="SPECTRE"
     style="font-size:3.53999996px;font-family:'Routed Gothic';text-anchor:middle;fill:#e8b923;stroke:none;stroke-width:0.58999997px;text-rendering:geometricPrecision"
     id="text67">
    <path
       d="m 28.587055,352.79147 q 0,0.15038 -0.07087,0.29731 -0.06914,0.14692 -0.195322,0.2489 -0.138282,0.11063 -0.323233,0.17286 -0.183222,0.0622 -0.4425,0.0622 -0.278291,0 -0.501269,-0.0519 -0.22125,-0.0519 -0.451143,-0.15384 v -0.42867 h 0.0242 q 0.195323,0.16248 0.451143,0.25063 0.25582,0.0882 0.480527,0.0882 0.318047,0 0.494356,-0.11927 0.178037,-0.11927 0.178037,-0.31805 0,-0.17112 -0.0847,-0.25236 -0.08297,-0.0812 -0.254092,-0.12618 -0.129639,-0.0346 -0.281748,-0.057 -0.150381,-0.0225 -0.319776,-0.0571 -0.342246,-0.0726 -0.508183,-0.24717 -0.164209,-0.17631 -0.164209,-0.45806 0,-0.32323 0.273105,-0.52893 0.273106,-0.20742 0.693135,-0.20742 0.271377,0 0.497813,0.0519 0.226435,0.0519 0.401015,0.12791 v 0.40447 h -0.0242 q -0.146924,-0.12445 -0.387188,-0.20569 -0.238535,-0.083 -0.489169,-0.083 -0.274834,0 -0.4425,0.11408 -0.165938,0.11408 -0.165938,0.29385 0,0.16075 0.08297,0.25236 0.08297,0.0916 0.292119,0.14001 0.110625,0.0242 0.31459,0.0588 0.203965,0.0346 0.345703,0.0709 0.286933,0.0761 0.432129,0.22989 0.145195,0.15384 0.145195,0.4304 z"
       style="font-size:3.53999996px;font-family:'Routed Gothic';text-anchor:middle;fill:#e8b923;stroke:none;stroke-width:0.58999997px;text-rendering:geometricPrecision"
       id="path10306" />
    <path
       d="m 30.820297,351.73016 q 0,0.17113 -0.0605,0.31805 -0.05877,0.1452 -0.165937,0.25236 -0.133096,0.1331 -0.31459,0.20051 -0.181494,0.0657 -0.458057,0.0657 h -0.342246 v 0.95932 h -0.342246 v -2.57376 h 0.69832 q 0.231622,0 0.392373,0.0398 0.160752,0.038 0.285206,0.12099 0.146923,0.0985 0.226435,0.24545 0.08124,0.14693 0.08124,0.37163 z m -0.356074,0.009 q 0,-0.1331 -0.04667,-0.23162 -0.04667,-0.0985 -0.141738,-0.16076 -0.08297,-0.0536 -0.190137,-0.0761 -0.105439,-0.0242 -0.26792,-0.0242 h -0.338789 v 1.02847 h 0.288662 q 0.207422,0 0.337061,-0.0363 0.129639,-0.038 0.210879,-0.11927 0.08124,-0.083 0.114082,-0.17458 0.03457,-0.0916 0.03457,-0.20569 z"
       style="font-size:3.53999996px;font-family:'Routed Gothic';text-anchor:middle;fill:#e8b923;stroke:none;stroke-width:0.58999997px;text-rendering:geometricPrecision"
       id="path10308" />
    <path
       d="m 32.968842,353.52609 h -1.695674 v -2.57376 h 1.695674 v 0.30422 h -1.353428 v 0.70524 h 1.353428 v 0.30421 h -1.353428 v 0.95587 h 1.353428 z"
       style="font-size:3.53999996px;font-family:'Routed Gothic';text-anchor:middle;fill:#e8b923;stroke:none;stroke-width:0.58999997px;text-rendering:geometricPrecision"
       id="path10310" />
    <path
       d="m 35.501117,353.33941 q -0.09507,0.0415 -0.172851,0.0778 -0.07605,0.0363 -0.200508,0.0761 -0.10544,0.0328 -0.229893,0.0553 -0.122724,0.0242 -0.271377,0.0242 -0.280019,0 -0.509912,-0.0778 -0.228164,-0.0795 -0.397558,-0.24718 -0.165938,-0.16421 -0.259278,-0.41657 -0.09334,-0.25409 -0.09334,-0.58942 0,-0.31805 0.08988,-0.56869 0.08988,-0.25063 0.259278,-0.42348 0.164209,-0.16767 0.39583,-0.25582 0.233349,-0.0882 0.516826,-0.0882 0.207422,0 0.413115,0.0501 0.207422,0.0501 0.459785,0.17631 v 0.4062 h -0.02593 q -0.212608,-0.17804 -0.421758,-0.25928 -0.209151,-0.0812 -0.447686,-0.0812 -0.195322,0 -0.352617,0.064 -0.155566,0.0622 -0.278291,0.19532 -0.119268,0.12964 -0.18668,0.32842 -0.06568,0.19705 -0.06568,0.45633 0,0.27137 0.0726,0.46669 0.07433,0.19533 0.190137,0.31805 0.120996,0.12791 0.281748,0.19014 0.162481,0.0605 0.342246,0.0605 0.247178,0 0.463242,-0.0847 0.216065,-0.0847 0.404473,-0.25409 h 0.0242 z"
       style="font-size:3.53999996px;font-family:'Routed Gothic';text-anchor:middle;fill:#e8b923;stroke:none;stroke-width:0.58999997px;text-rendering:geometricPrecision"
       id="path10312" />
    <path
       d="m 37.824242,351.25655 h -0.91957 v 2.26954 h -0.342246 v -2.26954 h -0.919571 v -0.30422 h 2.181387 z"
       style="font-size:3.53999996px;font-family:'Routed Gothic';text-anchor:middle;fill:#e8b923;stroke:none;stroke-width:0.58999997px;text-rendering:geometricPrecision"
       id="path10314" />
    <path
       d="m 40.302934,353.52609 h -0.444229 l -0.860801,-1.02328 h -0.482256 v 1.02328 h -0.342246 v -2.57376 h 0.720791 q 0.23335,0 0.388916,0.0311 0.155567,0.0294 0.28002,0.10716 0.14001,0.0882 0.217793,0.22298 0.07951,0.1331 0.07951,0.33879 0,0.27829 -0.14001,0.4667 -0.14001,0.18668 -0.385459,0.28175 z m -0.800303,-1.84951 q 0,-0.11062 -0.03976,-0.19532 -0.03803,-0.0864 -0.12791,-0.1452 -0.07433,-0.0501 -0.176309,-0.0691 -0.101982,-0.0207 -0.240263,-0.0207 h -0.402745 v 0.97143 h 0.345704 q 0.16248,0 0.283476,-0.0277 0.120996,-0.0294 0.205694,-0.10717 0.07778,-0.0726 0.114082,-0.16594 0.03803,-0.0951 0.03803,-0.24026 z"
       style="font-size:3.53999996px;font-family:'Routed Gothic';text-anchor:middle;fill:#e8b923;stroke:none;stroke-width:0.58999997px;text-rendering:geometricPrecision"
       id="path10316" />
    <path
       d="m 42.330483,353.52609 h -1.695674 v -2.57376 h 1.695674 v 0.30422 h -1.353428 v 0.70524 h 1.353428 v 0.30421 h -1.353428 v 0.95587 h 1.353428 z"
       style="font-size:3.53999996px;font-family:'Routed Gothic';text-anchor:middle;fill:#e8b923;stroke:none;stroke-width:0.58999997px;text-rendering:geometricPrecision"
       id="path10318" />
  </g>
  <g
     aria-label="MODULAR"
     style="font-size:3.53999996px;font-family:'Routed Gothic';text-anchor:middle;fill:#e8b923;stroke:none;stroke-width:0.58999997px;text-rendering:geometricPrecision"
     id="text69">
    <path
       d="m 28.113442,357.06607 h -0.342246 v -2.21768 l -0.715606,1.50899 h -0.203965 l -0.710419,-1.50899 v 2.21768 H 25.82143 v -2.57376 h 0.466699 l 0.686221,1.43294 0.66375,-1.43294 h 0.475342 z"
       style="font-size:3.53999996px;font-family:'Routed Gothic';text-anchor:middle;fill:#e8b923;stroke:none;stroke-width:0.58999997px;text-rendering:geometricPrecision"
       id="path10321" />
    <path
       d="m 30.726958,354.78789 q 0.157294,0.17285 0.240263,0.42348 0.0847,0.25064 0.0847,0.56868 0,0.31805 -0.08643,0.57042 -0.0847,0.25063 -0.238535,0.4183 -0.159024,0.17458 -0.376817,0.26273 -0.216064,0.0881 -0.494355,0.0881 -0.271377,0 -0.494356,-0.0899 -0.22125,-0.0899 -0.376816,-0.261 -0.155567,-0.17113 -0.240264,-0.42003 -0.08297,-0.24891 -0.08297,-0.56869 0,-0.31458 0.08297,-0.56349 0.08297,-0.25064 0.241992,-0.42867 0.15211,-0.1694 0.376817,-0.25928 0.226435,-0.0899 0.492627,-0.0899 0.276562,0 0.496084,0.0916 0.22125,0.0899 0.375088,0.25755 z m -0.03111,0.99216 q 0,-0.50126 -0.224707,-0.77264 -0.224707,-0.27311 -0.613623,-0.27311 -0.392373,0 -0.61708,0.27311 -0.222978,0.27138 -0.222978,0.77264 0,0.50646 0.228164,0.77611 0.228164,0.26792 0.611894,0.26792 0.383731,0 0.610166,-0.26792 0.228164,-0.26965 0.228164,-0.77611 z"
       style="font-size:3.53999996px;font-family:'Routed Gothic';text-anchor:middle;fill:#e8b923;stroke:none;stroke-width:0.58999997px;text-rendering:geometricPrecision"
       id="path10323" />
    <path
       d="m 33.769145,355.78178 q 0,0.35089 -0.153838,0.6361 -0.152109,0.2852 -0.406201,0.4425 -0.176309,0.10889 -0.394102,0.15729 -0.216064,0.0484 -0.57041,0.0484 h -0.649922 v -2.57376 h 0.643008 q 0.376816,0 0.598066,0.0553 0.222979,0.0536 0.376817,0.14866 0.262734,0.1642 0.409658,0.43731 0.146924,0.27311 0.146924,0.64819 z m -0.357803,-0.005 q 0,-0.30249 -0.105439,-0.50991 -0.10544,-0.20743 -0.31459,-0.32669 -0.15211,-0.0864 -0.323233,-0.11927 -0.171123,-0.0346 -0.409658,-0.0346 h -0.321504 v 1.98606 h 0.321504 q 0.247178,0 0.430401,-0.0363 0.184951,-0.0363 0.338789,-0.13482 0.191865,-0.12272 0.286933,-0.32323 0.0968,-0.20051 0.0968,-0.50127 z"
       style="font-size:3.53999996px;font-family:'Routed Gothic';text-anchor:middle;fill:#e8b923;stroke:none;stroke-width:0.58999997px;text-rendering:geometricPrecision"
       id="path10325" />
    <path
       d="m 36.263393,356.03242 q 0,0.28002 -0.06223,0.48917 -0.0605,0.20742 -0.200508,0.3457 -0.133096,0.13137 -0.311133,0.19187 -0.178037,0.0605 -0.414844,0.0605 -0.241992,0 -0.421757,-0.0639 -0.179766,-0.064 -0.302491,-0.18841 -0.140009,-0.14174 -0.202236,-0.34224 -0.0605,-0.20051 -0.0605,-0.49263 v -1.54011 h 0.342246 v 1.55739 q 0,0.20915 0.02766,0.33015 0.02939,0.121 0.0968,0.21952 0.07606,0.11235 0.205694,0.1694 0.131367,0.057 0.314589,0.057 0.184952,0 0.31459,-0.0553 0.129639,-0.057 0.207422,-0.17112 0.06741,-0.0985 0.09507,-0.22471 0.02938,-0.12791 0.02938,-0.31631 v -1.56604 h 0.342246 z"
       style="font-size:3.53999996px;font-family:'Routed Gothic';text-anchor:middle;fill:#e8b923;stroke:none;stroke-width:0.58999997px;text-rendering:geometricPrecision"
       id="path10327" />
    <path
       d="m 38.546763,357.06607 h -1.628262 v -2.57376 h 0.342246 v 2.26954 h 1.286016 z"
       style="font-size:3.53999996px;font-family:'Routed Gothic';text-anchor:middle;fill:#e8b923;stroke:none;stroke-width:0.58999997px;text-rendering:geometricPrecision"
       id="path10329" />
    <path
       d="m 40.918286,357.06607 h -0.364717 l -0.252363,-0.71733 h -1.113164 l -0.252364,0.71733 h -0.347431 l 0.936855,-2.57376 h 0.456328 z m -0.72252,-1.01118 -0.451142,-1.26355 -0.452871,1.26355 z"
       style="font-size:3.53999996px;font-family:'Routed Gothic';text-anchor:middle;fill:#e8b923;stroke:none;stroke-width:0.58999997px;text-rendering:geometricPrecision"
       id="path10331" />
    <path
       d="m 43.438462,357.06607 h -0.444229 l -0.860801,-1.02328 h -0.482256 v 1.02328 H 41.30893 v -2.57376 h 0.720791 q 0.23335,0 0.388916,0.0311 0.155567,0.0294 0.28002,0.10717 0.14001,0.0882 0.217793,0.22298 0.07951,0.1331 0.07951,0.33879 0,0.27829 -0.14001,0.4667 -0.14001,0.18668 -0.385459,0.28175 z m -0.800303,-1.84951 q 0,-0.11063 -0.03976,-0.19532 -0.03803,-0.0864 -0.12791,-0.1452 -0.07433,-0.0501 -0.176309,-0.0691 -0.101982,-0.0207 -0.240263,-0.0207 h -0.402745 v 0.97142 h 0.345704 q 0.16248,0 0.283476,-0.0276 0.120996,-0.0294 0.205693,-0.10717 0.07778,-0.0726 0.114082,-0.16594 0.03803,-0.0951 0.03803,-0.24026 z"
       style="font-size:3.53999996px;font-family:'Routed Gothic';text-anchor:middle;fill:#e8b923;stroke:none;stroke-width:0.58999997px;text-rendering:geometricPrecision"
       id="path10333" />
  </g>
  <g
     aria-label="BAND SHIFT"
     style="font-size:8px;font-family:'Routed Gothic';text-anchor:middle;fill:#e8b923;stroke:none;stroke-width:1px;text-rendering:geometricPrecision"
     id="text108-3">
    <path
       d="m 99.593452,32.089844 q 0,0.433593 -0.164062,0.765625 -0.164063,0.332031 -0.441406,0.546875 -0.328125,0.257812 -0.722657,0.367187 -0.390625,0.109375 -0.996093,0.109375 h -2.0625 V 28.0625 h 1.722656 q 0.636719,0 0.953125,0.04687 0.316406,0.04687 0.605469,0.195312 0.320312,0.167969 0.464843,0.433594 0.144532,0.261719 0.144532,0.628906 0,0.414063 -0.210938,0.707032 -0.210937,0.289062 -0.5625,0.464843 v 0.03125 q 0.589844,0.121094 0.929688,0.519532 0.339843,0.394531 0.339843,1 z M 98.292671,29.46875 q 0,-0.210938 -0.07031,-0.355469 -0.07031,-0.144531 -0.226563,-0.234375 -0.183594,-0.105469 -0.445312,-0.128906 -0.261719,-0.02734 -0.648438,-0.02734 h -0.921875 v 1.679688 h 1 q 0.363281,0 0.578125,-0.03516 0.214844,-0.03906 0.398438,-0.15625 0.183593,-0.117187 0.257812,-0.300781 0.07813,-0.1875 0.07813,-0.441406 z m 0.496094,2.652344 q 0,-0.351563 -0.105469,-0.558594 -0.105469,-0.207031 -0.382812,-0.351563 -0.1875,-0.09766 -0.457032,-0.125 -0.265625,-0.03125 -0.648437,-0.03125 h -1.214844 v 2.164063 h 1.023438 q 0.507812,0 0.832031,-0.05078 0.324219,-0.05469 0.53125,-0.195313 0.21875,-0.152344 0.320312,-0.347656 0.101563,-0.195313 0.101563,-0.503906 z"
       style="font-size:8px;font-family:'Routed Gothic';text-anchor:middle;fill:#e8b923;stroke:none;stroke-width:1px;text-rendering:geometricPrecision"
       id="path10336" />
    <path
       d="m 105.27705,33.878906 h -0.82422 l -0.57032,-1.621094 h -2.51562 l -0.57031,1.621094 h -0.78516 l 2.11719,-5.816406 h 1.03125 z m -1.63282,-2.285156 -1.01953,-2.855469 -1.02344,2.855469 z"
       style="font-size:8px;font-family:'Routed Gothic';text-anchor:middle;fill:#e8b923;stroke:none;stroke-width:1px;text-rendering:geometricPrecision"
       id="path10338" />
    <path
       d="m 110.59736,33.878906 h -0.95703 l -2.75782,-5.203125 v 5.203125 h -0.72265 V 28.0625 h 1.19922 l 2.51562,4.75 v -4.75 h 0.72266 z"
       style="font-size:8px;font-family:'Routed Gothic';text-anchor:middle;fill:#e8b923;stroke:none;stroke-width:1px;text-rendering:geometricPrecision"
       id="path10340" />
    <path
       d="m 117.0583,30.976562 q 0,0.792969 -0.34766,1.4375 -0.34375,0.644532 -0.91797,1 -0.39844,0.246094 -0.89062,0.355469 -0.48829,0.109375 -1.28907,0.109375 h -1.46875 V 28.0625 h 1.45313 q 0.85156,0 1.35156,0.125 0.50391,0.121094 0.85156,0.335937 0.59375,0.371094 0.92578,0.988282 0.33204,0.617187 0.33204,1.464843 z m -0.8086,-0.01172 q 0,-0.683594 -0.23828,-1.152344 -0.23828,-0.46875 -0.71094,-0.738281 -0.34375,-0.195313 -0.73047,-0.269532 -0.38671,-0.07813 -0.92578,-0.07813 h -0.72656 v 4.488282 h 0.72656 q 0.5586,0 0.97266,-0.08203 0.41797,-0.08203 0.76562,-0.304687 0.4336,-0.277344 0.64844,-0.730469 0.21875,-0.453125 0.21875,-1.132812 z"
       style="font-size:8px;font-family:'Routed Gothic';text-anchor:middle;fill:#e8b923;stroke:none;stroke-width:1px;text-rendering:geometricPrecision"
       id="path10342" />
    <path
       d="m 125.35517,32.21875 q 0,0.339844 -0.16016,0.671875 -0.15625,0.332031 -0.4414,0.5625 -0.3125,0.25 -0.73047,0.390625 -0.41406,0.140625 -1,0.140625 -0.62891,0 -1.13281,-0.117188 -0.5,-0.117187 -1.01953,-0.347656 v -0.96875 h 0.0547 q 0.44141,0.367188 1.01953,0.566406 0.57813,0.199219 1.08594,0.199219 0.71875,0 1.11719,-0.269531 0.40234,-0.269531 0.40234,-0.71875 0,-0.386719 -0.1914,-0.570313 -0.1875,-0.183593 -0.57422,-0.285156 -0.29297,-0.07813 -0.63672,-0.128906 -0.33984,-0.05078 -0.72266,-0.128906 -0.77343,-0.164063 -1.14843,-0.558594 -0.3711,-0.398438 -0.3711,-1.035156 0,-0.730469 0.61719,-1.195313 0.61719,-0.46875 1.56641,-0.46875 0.61328,0 1.125,0.117188 0.51171,0.117187 0.90625,0.289062 v 0.914063 h -0.0547 q -0.33203,-0.28125 -0.875,-0.464844 -0.53906,-0.1875 -1.10547,-0.1875 -0.62109,0 -1,0.257812 -0.375,0.257813 -0.375,0.664063 0,0.363281 0.1875,0.570312 0.1875,0.207032 0.66016,0.316407 0.25,0.05469 0.71093,0.132812 0.46094,0.07813 0.78125,0.160156 0.64844,0.171875 0.97657,0.519532 0.32812,0.347656 0.32812,0.972656 z"
       style="font-size:8px;font-family:'Routed Gothic';text-anchor:middle;fill:#e8b923;stroke:none;stroke-width:1px;text-rendering:geometricPrecision"
       id="path10344" />
    <path
       d="m 131.04658,33.878906 h -0.77344 V 31.03125 h -2.90234 v 2.847656 h -0.77344 V 28.0625 h 0.77344 v 2.28125 h 2.90234 V 28.0625 h 0.77344 z"
       style="font-size:8px;font-family:'Routed Gothic';text-anchor:middle;fill:#e8b923;stroke:none;stroke-width:1px;text-rendering:geometricPrecision"
       id="path10346" />
    <path
       d="m 134.66376,33.878906 h -2.29687 v -0.59375 h 0.76172 V 28.65625 h -0.76172 V 28.0625 h 2.29687 v 0.59375 h -0.76171 v 4.628906 h 0.76171 z"
       style="font-size:8px;font-family:'Routed Gothic';text-anchor:middle;fill:#e8b923;stroke:none;stroke-width:1px;text-rendering:geometricPrecision"
       id="path10348" />
    <path
       d="m 139.70283,28.75 h -2.94141 v 1.640625 h 2.52734 v 0.6875 h -2.52734 v 2.800781 h -0.77344 V 28.0625 h 3.71485 z"
       style="font-size:8px;font-family:'Routed Gothic';text-anchor:middle;fill:#e8b923;stroke:none;stroke-width:1px;text-rendering:geometricPrecision"
       id="path10350" />
    <path
       d="m 144.85517,28.75 h -2.07812 v 5.128906 h -0.77344 V 28.75 h -2.07813 v -0.6875 h 4.92969 z"
       style="font-size:8px;font-family:'Routed Gothic';text-anchor:middle;fill:#e8b923;stroke:none;stroke-width:1px;text-rendering:geometricPrecision"
       id="path10352" />
  </g>
  <g
     aria-label="PANNING"
     style="font-size:8px;font-family:'Routed Gothic';text-anchor:middle;fill:#e8b923;stroke:none;stroke-width:1px;text-rendering:geometricPrecision"
     id="text108-3-0">
    <path
       d="m 239.33594,29.941406 q 0,0.386719 -0.13672,0.71875 -0.13281,0.328125 -0.375,0.570313 -0.30078,0.300781 -0.71094,0.453125 -0.41016,0.148437 -1.03516,0.148437 h -0.77343 V 34 h -0.77344 v -5.816406 h 1.57812 q 0.52344,0 0.88672,0.08984 0.36328,0.08594 0.64453,0.273438 0.33204,0.222656 0.51172,0.554687 0.1836,0.332032 0.1836,0.839844 z m -0.80469,0.01953 q 0,-0.300781 -0.10547,-0.523437 -0.10547,-0.222656 -0.32031,-0.363281 -0.1875,-0.121094 -0.42969,-0.171875 -0.23828,-0.05469 -0.60547,-0.05469 h -0.76562 v 2.324219 h 0.65234 q 0.46875,0 0.76172,-0.08203 0.29297,-0.08594 0.47656,-0.269532 0.1836,-0.1875 0.25781,-0.394531 0.0781,-0.207031 0.0781,-0.464844 z"
       style="font-size:8px;font-family:'Routed Gothic';text-anchor:middle;fill:#e8b923;stroke:none;stroke-width:1px;text-rendering:geometricPrecision"
       id="path10355" />
    <path
       d="m 244.75781,34 h -0.82422 l -0.57031,-1.621094 h -2.51562 L 240.27734,34 h -0.78515 l 2.11718,-5.816406 h 1.03125 z m -1.63281,-2.285156 -1.01953,-2.855469 -1.02344,2.855469 z"
       style="font-size:8px;font-family:'Routed Gothic';text-anchor:middle;fill:#e8b923;stroke:none;stroke-width:1px;text-rendering:geometricPrecision"
       id="path10357" />
    <path
       d="m 250.07812,34 h -0.95703 l -2.75781,-5.203125 V 34 h -0.72266 v -5.816406 h 1.19922 l 2.51563,4.75 v -4.75 h 0.72265 z"
       style="font-size:8px;font-family:'Routed Gothic';text-anchor:middle;fill:#e8b923;stroke:none;stroke-width:1px;text-rendering:geometricPrecision"
       id="path10359" />
    <path
       d="m 256.0625,34 h -0.95703 l -2.75781,-5.203125 V 34 H 251.625 v -5.816406 h 1.19922 l 2.51562,4.75 v -4.75 h 0.72266 z"
       style="font-size:8px;font-family:'Routed Gothic';text-anchor:middle;fill:#e8b923;stroke:none;stroke-width:1px;text-rendering:geometricPrecision"
       id="path10361" />
    <path
       d="m 259.66016,34 h -2.29688 v -0.59375 h 0.76172 v -4.628906 h -0.76172 v -0.59375 h 2.29688 v 0.59375 h -0.76172 v 4.628906 h 0.76172 z"
       style="font-size:8px;font-family:'Routed Gothic';text-anchor:middle;fill:#e8b923;stroke:none;stroke-width:1px;text-rendering:geometricPrecision"
       id="path10363" />
    <path
       d="m 265.42187,34 h -0.95703 l -2.75781,-5.203125 V 34 h -0.72266 v -5.816406 h 1.19922 l 2.51563,4.75 v -4.75 h 0.72265 z"
       style="font-size:8px;font-family:'Routed Gothic';text-anchor:middle;fill:#e8b923;stroke:none;stroke-width:1px;text-rendering:geometricPrecision"
       id="path10365" />
    <path
       d="m 271.82031,33.570312 q -0.47656,0.21875 -1.04297,0.382813 -0.5625,0.160156 -1.08984,0.160156 -0.67969,0 -1.24609,-0.1875 -0.56641,-0.1875 -0.96485,-0.5625 -0.40234,-0.378906 -0.62109,-0.945312 -0.21875,-0.570313 -0.21875,-1.332032 0,-1.394531 0.8125,-2.199218 0.8164,-0.808594 2.23828,-0.808594 0.49609,0 1.01172,0.121094 0.51953,0.117187 1.11719,0.402343 v 0.917969 h -0.0703 q -0.12109,-0.09375 -0.35156,-0.246094 -0.23047,-0.152343 -0.45312,-0.253906 -0.26954,-0.121094 -0.61329,-0.199219 -0.33984,-0.08203 -0.77343,-0.08203 -0.97657,0 -1.54688,0.628906 -0.5664,0.625 -0.5664,1.695313 0,1.128906 0.59375,1.757812 0.59375,0.625 1.61718,0.625 0.375,0 0.7461,-0.07422 0.375,-0.07422 0.65625,-0.191407 v -1.425781 h -1.5586 v -0.679687 h 2.32422 z"
       style="font-size:8px;font-family:'Routed Gothic';text-anchor:middle;fill:#e8b923;stroke:none;stroke-width:1px;text-rendering:geometricPrecision"
       id="path10367" />
  </g>
  <g
     aria-label="Y"
     style="font-size:8px;font-family:'Routed Gothic';text-anchor:middle;fill:#e8b923;stroke:none;stroke-width:1px;text-rendering:geometricPrecision"
     id="text106-6">
    <path
       d="m 78.875,174.07812 -2.046875,3.26563 v 2.55078 h -0.773438 v -2.46875 L 74,174.07812 h 0.855469 l 1.589843,2.60157 1.605469,-2.60157 z"
       style="font-size:8px;font-family:'Routed Gothic';text-anchor:middle;fill:#e8b923;stroke:none;stroke-width:1px;text-rendering:geometricPrecision"
       id="path10370" />
  </g>
  <g
     aria-label="X"
     style="font-size:8px;font-family:'Routed Gothic';text-anchor:middle;fill:#e8b923;stroke:none;stroke-width:1px;text-rendering:geometricPrecision"
     id="text106-6-5">
    <path
       d="m 144.95312,324.07812 -2.00781,2.875 2.00391,2.94141 h -0.89453 l -1.58594,-2.39453 -1.625,2.39453 H 140 l 2.02734,-2.90625 -1.98047,-2.91016 h 0.89063 l 1.56641,2.36329 1.60156,-2.36329 z"
       style="font-size:8px;font-family:'Routed Gothic';text-anchor:middle;fill:#e8b923;stroke:none;stroke-width:1px;text-rendering:geometricPrecision"
       id="path10373" />
  </g>
  <g
     aria-label="Y"
     style="font-size:8px;font-family:'Routed Gothic';text-anchor:middle;fill:#e8b923;stroke:none;stroke-width:1px;text-rendering:geometricPrecision"
     id="text106-6-6">
    <path
       d="m 218.875,174.07812 -2.04688,3.26563 v 2.55078 h -0.77343 v -2.46875 L 214,174.07812 h 0.85547 l 1.58984,2.60157 1.60547,-2.60157 z"
       style="font-size:8px;font-family:'Routed Gothic';text-anchor:middle;fill:#e8b923;stroke:none;stroke-width:1px;text-rendering:geometricPrecision"
       id="path10376" />
  </g>
  <g
     aria-label="X"
     style="font-size:8px;font-family:'Routed Gothic';text-anchor:middle;fill:#e8b923;stroke:none;stroke-width:1px;text-rendering:geometricPrecision"
     id="text106-6-5-2">
    <path
       d="m 284.95312,324.07812 -2.00781,2.875 2.00391,2.94141 h -0.89453 l -1.58594,-2.39453 -1.625,2.39453 H 280 l 2.02734,-2.90625 -1.98047,-2.91016 h 0.89063 l 1.56641,2.36329 1.60156,-2.36329 z"
       style="font-size:8px;font-family:'Routed Gothic';text-anchor:middle;fill:#e8b923;stroke:none;stroke-width:1px;text-rendering:geometricPrecision"
       id="path10379" />
  </g>
  <path
     inkscape:connector-curvature="0"
     style="stroke:#e8b923;stroke-width:0.75"
     d="m 50.924148,229.95971 -18.18652,10.5"
     id="SvgjsLine1312" />
  <path
     inkscape:connector-curvature="0"
     style="stroke:#e8b923;stroke-width:0.75"
     d="m 50.924148,229.95971 -18.09653,8.51556"
     id="SvgjsLine1313" />
  <path
     inkscape:connector-curvature="0"
     style="stroke:#e8b923;stroke-width:0.75"
     d="m 50.924148,229.95971 -18.74564,6.97144"
     id="SvgjsLine1314" />
  <path
     inkscape:connector-curvature="0"
     style="stroke:#e8b923;stroke-width:0.75"
     d="m 50.924148,229.95971 -19.26324,5.37842"
     id="SvgjsLine1315" />
  <path
     inkscape:connector-curvature="0"
     style="stroke:#e8b923;stroke-width:0.75"
     d="m 50.924148,229.95971 -19.64575,3.74762"
     id="SvgjsLine1316" />
  <path
     inkscape:connector-curvature="0"
     style="stroke:#e8b923;stroke-width:0.75"
     d="m 50.924148,229.95971 -20.88495,2.1951"
     id="SvgjsLine1317" />
  <path
     inkscape:connector-curvature="0"
     style="stroke:#e8b923;stroke-width:0.75"
     d="m 50.924148,229.95971 -19.99561,0.41885"
     id="SvgjsLine1318" />
  <path
     inkscape:connector-curvature="0"
     style="stroke:#e8b923;stroke-width:0.75"
     d="m 50.924148,229.95971 -19.96054,-1.2558"
     id="SvgjsLine1319" />
  <path
     inkscape:connector-curvature="0"
     style="stroke:#e8b923;stroke-width:0.75"
     d="m 50.924148,229.95971 -19.78546,-2.92166"
     id="SvgjsLine1320" />
  <path
     inkscape:connector-curvature="0"
     style="stroke:#e8b923;stroke-width:0.75"
     d="m 50.924148,229.95971 -19.47159,-4.56702"
     id="SvgjsLine1321" />
  <path
     inkscape:connector-curvature="0"
     style="stroke:#e8b923;stroke-width:0.75"
     d="m 50.924148,229.95971 -19.9722,-6.48935"
     id="SvgjsLine1322" />
  <path
     inkscape:connector-curvature="0"
     style="stroke:#e8b923;stroke-width:0.75"
     d="M 50.924148,229.95971 32.486888,222.2094"
     id="SvgjsLine1323" />
  <path
     inkscape:connector-curvature="0"
     style="stroke:#e8b923;stroke-width:0.75"
     d="m 50.924148,229.95971 -17.72406,-9.26593"
     id="SvgjsLine1324" />
  <path
     inkscape:connector-curvature="0"
     style="stroke:#e8b923;stroke-width:0.75"
     d="M 50.924148,229.95971 34.037578,219.24316"
     id="SvgjsLine1325" />
  <path
     inkscape:connector-curvature="0"
     style="stroke:#e8b923;stroke-width:0.75"
     d="m 50.924148,229.95971 -15.9306,-12.09198"
     id="SvgjsLine1326" />
  <path
     inkscape:connector-curvature="0"
     style="stroke:#e8b923;stroke-width:0.75"
     d="M 50.924148,229.95971 35.318098,215.90795"
     id="SvgjsLine1327" />
  <path
     inkscape:connector-curvature="0"
     style="stroke:#e8b923;stroke-width:0.75"
     d="M 50.924148,229.95971 37.233198,215.38033"
     id="SvgjsLine1328" />
  <path
     inkscape:connector-curvature="0"
     style="stroke:#e8b923;stroke-width:0.75"
     d="M 50.924148,229.95971 38.501208,214.28582"
     id="SvgjsLine1329" />
  <path
     inkscape:connector-curvature="0"
     style="stroke:#e8b923;stroke-width:0.75"
     d="M 50.924148,229.95971 39.856308,213.30126"
     id="SvgjsLine1330" />
  <path
     inkscape:connector-curvature="0"
     style="stroke:#e8b923;stroke-width:0.75"
     d="m 50.924148,229.95971 -9.63507,-17.52612"
     id="SvgjsLine1331" />
  <path
     inkscape:connector-curvature="0"
     style="stroke:#e8b923;stroke-width:0.75"
     d="m 50.924148,229.95971 -8.54147,-19.18445"
     id="SvgjsLine1332" />
  <path
     inkscape:connector-curvature="0"
     style="stroke:#e8b923;stroke-width:0.75"
     d="M 50.924148,229.95971 44.346818,211.0722"
     id="SvgjsLine1333" />
  <path
     inkscape:connector-curvature="0"
     style="stroke:#e8b923;stroke-width:0.75"
     d="m 50.924148,229.95971 -4.97379,-19.37164"
     id="SvgjsLine1334" />
  <path
     inkscape:connector-curvature="0"
     style="stroke:#e8b923;stroke-width:0.75"
     d="M 50.924148,229.95971 47.588758,210.2398"
     id="SvgjsLine1335" />
  <path
     inkscape:connector-curvature="0"
     style="stroke:#e8b923;stroke-width:0.75"
     d="m 50.924148,229.95971 -1.67355,-19.92987"
     id="SvgjsLine1336" />
  <path
     inkscape:connector-curvature="0"
     style="stroke:#e8b923;stroke-width:0.75"
     d="m 50.924148,229.95971 v -21"
     id="SvgjsLine1337" />
  <path
     inkscape:connector-curvature="0"
     style="stroke:#e8b923;stroke-width:0.75"
     d="m 50.924148,229.95971 1.67355,-19.92987"
     id="SvgjsLine1338" />
  <path
     inkscape:connector-curvature="0"
     style="stroke:#e8b923;stroke-width:0.75"
     d="m 50.924148,229.95971 3.33539,-19.71991"
     id="SvgjsLine1339" />
  <path
     inkscape:connector-curvature="0"
     style="stroke:#e8b923;stroke-width:0.75"
     d="m 50.924148,229.95971 4.97379,-19.37164"
     id="SvgjsLine1340" />
  <path
     inkscape:connector-curvature="0"
     style="stroke:#e8b923;stroke-width:0.75"
     d="m 50.924148,229.95971 6.57733,-18.88751"
     id="SvgjsLine1341" />
  <path
     inkscape:connector-curvature="0"
     style="stroke:#e8b923;stroke-width:0.75"
     d="m 50.924148,229.95971 8.54147,-19.18445"
     id="SvgjsLine1342" />
  <path
     inkscape:connector-curvature="0"
     style="stroke:#e8b923;stroke-width:0.75"
     d="m 50.924148,229.95971 9.63507,-17.52612"
     id="SvgjsLine1343" />
  <path
     inkscape:connector-curvature="0"
     style="stroke:#e8b923;stroke-width:0.75"
     d="m 50.924148,229.95971 11.06784,-16.65845"
     id="SvgjsLine1344" />
  <path
     inkscape:connector-curvature="0"
     style="stroke:#e8b923;stroke-width:0.75"
     d="m 50.924148,229.95971 12.42294,-15.67389"
     id="SvgjsLine1345" />
  <path
     inkscape:connector-curvature="0"
     style="stroke:#e8b923;stroke-width:0.75"
     d="m 50.924148,229.95971 13.69095,-14.57938"
     id="SvgjsLine1346" />
  <path
     inkscape:connector-curvature="0"
     style="stroke:#e8b923;stroke-width:0.75"
     d="m 50.924148,229.95971 15.60605,-14.05176"
     id="SvgjsLine1347" />
  <path
     inkscape:connector-curvature="0"
     style="stroke:#e8b923;stroke-width:0.75"
     d="m 50.924148,229.95971 15.9306,-12.09198"
     id="SvgjsLine1348" />
  <path
     inkscape:connector-curvature="0"
     style="stroke:#e8b923;stroke-width:0.75"
     d="m 50.924148,229.95971 16.88657,-10.71655"
     id="SvgjsLine1349" />
  <path
     inkscape:connector-curvature="0"
     style="stroke:#e8b923;stroke-width:0.75"
     d="m 50.924148,229.95971 17.72406,-9.26593"
     id="SvgjsLine1350" />
  <path
     inkscape:connector-curvature="0"
     style="stroke:#e8b923;stroke-width:0.75"
     d="m 50.924148,229.95971 18.43726,-7.75031"
     id="SvgjsLine1351" />
  <path
     inkscape:connector-curvature="0"
     style="stroke:#e8b923;stroke-width:0.75"
     d="m 50.924148,229.95971 19.9722,-6.48935"
     id="SvgjsLine1352" />
  <path
     inkscape:connector-curvature="0"
     style="stroke:#e8b923;stroke-width:0.75"
     d="m 50.924148,229.95971 19.47159,-4.56702"
     id="SvgjsLine1353" />
  <path
     inkscape:connector-curvature="0"
     style="stroke:#e8b923;stroke-width:0.75"
     d="m 50.924148,229.95971 19.78546,-2.92166"
     id="SvgjsLine1354" />
  <path
     inkscape:connector-curvature="0"
     style="stroke:#e8b923;stroke-width:0.75"
     d="m 50.924148,229.95971 19.96054,-1.2558"
     id="SvgjsLine1355" />
  <path
     inkscape:connector-curvature="0"
     style="stroke:#e8b923;stroke-width:0.75"
     d="m 50.924148,229.95971 19.99561,0.41885"
     id="SvgjsLine1356" />
  <path
     inkscape:connector-curvature="0"
     style="stroke:#e8b923;stroke-width:0.75"
     d="m 50.924148,229.95971 20.88495,2.1951"
     id="SvgjsLine1357" />
  <path
     inkscape:connector-curvature="0"
     style="stroke:#e8b923;stroke-width:0.75"
     d="m 50.924148,229.95971 19.64575,3.74762"
     id="SvgjsLine1358" />
  <path
     inkscape:connector-curvature="0"
     style="stroke:#e8b923;stroke-width:0.75"
     d="m 50.924148,229.95971 19.26324,5.37842"
     id="SvgjsLine1359" />
  <path
     inkscape:connector-curvature="0"
     style="stroke:#e8b923;stroke-width:0.75"
     d="m 50.924148,229.95971 18.74564,6.97144"
     id="SvgjsLine1360" />
  <path
     inkscape:connector-curvature="0"
     style="stroke:#e8b923;stroke-width:0.75"
     d="m 50.924148,229.95971 18.09653,8.51556"
     id="SvgjsLine1361" />
  <path
     inkscape:connector-curvature="0"
     style="stroke:#e8b923;stroke-width:0.75"
     d="m 50.924148,229.95971 18.18652,10.5"
     id="SvgjsLine1362" />
  <path
     inkscape:connector-curvature="0"
     style="fill:#988903;stroke:#583903;stroke-width:0.75"
     d="m 68.924148,229.95971 a 18,18 0 0 1 -18,18 18,18 0 0 1 -18,-18 18,18 0 0 1 18,-18 18,18 0 0 1 18,18 z"
     id="SvgjsCircle1363" />
  <g
     aria-label="SPREAD"
     style="font-size:8px;font-family:'Routed Gothic';text-anchor:middle;fill:#e8b923;stroke:none;stroke-width:1px;text-rendering:geometricPrecision"
     id="text106-69">
    <path
       d="m 10.180573,256.61734 q 0,0.33984 -0.160157,0.67188 -0.1562497,0.33203 -0.441406,0.5625 -0.3125,0.25 -0.7304687,0.39062 -0.4140625,0.14063 -1,0.14063 -0.6289063,0 -1.1328125,-0.11719 -0.5,-0.11719 -1.0195313,-0.34766 v -0.96875 h 0.054687 q 0.4414063,0.36719 1.0195313,0.56641 0.578125,0.19922 1.0859375,0.19922 0.71875,0 1.1171875,-0.26953 0.4023437,-0.26954 0.4023437,-0.71875 0,-0.38672 -0.1914062,-0.57032 -0.1875,-0.18359 -0.5742188,-0.28515 -0.2929687,-0.0781 -0.6367187,-0.12891 -0.3398438,-0.0508 -0.7226563,-0.12891 -0.7734375,-0.16406 -1.1484375,-0.55859 -0.3710937,-0.39844 -0.3710937,-1.03516 0,-0.73046 0.6171875,-1.19531 0.6171875,-0.46875 1.5664062,-0.46875 0.6132813,0 1.125,0.11719 0.5117188,0.11719 0.90625,0.28906 v 0.91406 H 9.89151 q -0.3320312,-0.28125 -0.875,-0.46484 -0.5390625,-0.1875 -1.1054687,-0.1875 -0.6210938,0 -1,0.25781 -0.375,0.25782 -0.375,0.66407 0,0.36328 0.1875,0.57031 0.1875,0.20703 0.6601562,0.3164 0.25,0.0547 0.7109375,0.13282 0.4609375,0.0781 0.78125,0.16015 0.6484375,0.17188 0.9765625,0.51953 0.3281255,0.34766 0.3281255,0.97266 z"
       style="font-size:8px;font-family:'Routed Gothic';text-anchor:middle;fill:#e8b923;stroke:none;stroke-width:1px;text-rendering:geometricPrecision"
       id="path10382" />
    <path
       d="m 15.227448,254.2189 q 0,0.38672 -0.136719,0.71875 -0.132813,0.32813 -0.375,0.57032 -0.300781,0.30078 -0.710938,0.45312 -0.410156,0.14844 -1.035156,0.14844 h -0.773437 v 2.16797 H 11.42276 v -5.81641 h 1.578125 q 0.523438,0 0.886719,0.0898 0.363281,0.0859 0.644531,0.27344 0.332031,0.22266 0.511719,0.55469 0.183594,0.33203 0.183594,0.83984 z m -0.804688,0.0195 q 0,-0.30078 -0.105469,-0.52343 -0.105468,-0.22266 -0.320312,-0.36328 -0.1875,-0.1211 -0.429688,-0.17188 -0.238281,-0.0547 -0.605468,-0.0547 h -0.765625 v 2.32422 h 0.652343 q 0.46875,0 0.761719,-0.082 0.292969,-0.0859 0.476563,-0.26953 0.183593,-0.1875 0.257812,-0.39453 0.07813,-0.20703 0.07813,-0.46485 z"
       style="font-size:8px;font-family:'Routed Gothic';text-anchor:middle;fill:#e8b923;stroke:none;stroke-width:1px;text-rendering:geometricPrecision"
       id="path10384" />
    <path
       d="m 21.063385,258.2775 h -1.003906 l -1.945313,-2.3125 h -1.089843 v 2.3125 h -0.773438 v -5.81641 h 1.628906 q 0.527344,0 0.878907,0.0703 0.351562,0.0664 0.632812,0.24219 0.316406,0.19922 0.492188,0.50391 0.179687,0.30078 0.179687,0.76562 0,0.62891 -0.316406,1.05469 -0.316406,0.42187 -0.871094,0.63672 z m -1.808594,-4.17969 q 0,-0.25 -0.08984,-0.44141 -0.08594,-0.19531 -0.289063,-0.32812 -0.167969,-0.11328 -0.398437,-0.15625 -0.230469,-0.0469 -0.542969,-0.0469 h -0.910156 v 2.19532 h 0.78125 q 0.367187,0 0.640625,-0.0625 0.273437,-0.0664 0.464843,-0.24219 0.175782,-0.16406 0.257813,-0.375 0.08594,-0.21485 0.08594,-0.54297 z"
       style="font-size:8px;font-family:'Routed Gothic';text-anchor:middle;fill:#e8b923;stroke:none;stroke-width:1px;text-rendering:geometricPrecision"
       id="path10386" />
    <path
       d="m 25.645416,258.2775 h -3.832031 v -5.81641 h 3.832031 v 0.6875 h -3.058593 v 1.59375 h 3.058593 v 0.6875 H 22.586823 V 257.59 h 3.058593 z"
       style="font-size:8px;font-family:'Routed Gothic';text-anchor:middle;fill:#e8b923;stroke:none;stroke-width:1px;text-rendering:geometricPrecision"
       id="path10388" />
    <path
       d="m 31.461823,258.2775 h -0.824219 l -0.570313,-1.6211 h -2.515625 l -0.570312,1.6211 h -0.785156 l 2.117187,-5.81641 h 1.03125 z m -1.632813,-2.28516 -1.019531,-2.85547 -1.023438,2.85547 z"
       style="font-size:8px;font-family:'Routed Gothic';text-anchor:middle;fill:#e8b923;stroke:none;stroke-width:1px;text-rendering:geometricPrecision"
       id="path10390" />
    <path
       d="m 37.258698,255.37515 q 0,0.79297 -0.347657,1.4375 -0.34375,0.64453 -0.917968,1 -0.398438,0.2461 -0.890625,0.35547 -0.488282,0.10938 -1.289063,0.10938 h -1.46875 v -5.81641 h 1.453125 q 0.851563,0 1.351563,0.125 0.503906,0.12109 0.851562,0.33594 0.59375,0.37109 0.925781,0.98828 0.332032,0.61719 0.332032,1.46484 z m -0.808594,-0.0117 q 0,-0.68359 -0.238281,-1.15234 -0.238282,-0.46875 -0.710938,-0.73828 -0.34375,-0.19531 -0.730469,-0.26953 -0.386718,-0.0781 -0.925781,-0.0781 h -0.726562 v 4.48828 h 0.726562 q 0.558594,0 0.972656,-0.082 0.417969,-0.082 0.765625,-0.30468 0.433594,-0.27735 0.648438,-0.73047 0.21875,-0.45313 0.21875,-1.13282 z"
       style="font-size:8px;font-family:'Routed Gothic';text-anchor:middle;fill:#e8b923;stroke:none;stroke-width:1px;text-rendering:geometricPrecision"
       id="path10392" />
  </g>
  <path
     style="opacity:0.981;fill:#060e08;fill-opacity:1;stroke:#e8b923;stroke-width:0.50001633;stroke-miterlimit:4;stroke-dasharray:none;stroke-opacity:1"
     d="M 89.750008,39.750023 H 190.24998 V 296.24999 H 89.750008 Z"
     id="rect4936-0" />
  <path
     style="opacity:0.981;fill:#060e08;fill-opacity:1;stroke:#e8b923;stroke-width:0.50001633;stroke-miterlimit:4;stroke-dasharray:none;stroke-opacity:1"
     d="M 229.75002,39.750023 H 330.24998 V 296.24999 H 229.75002 Z"
     id="rect4936-0-1" />
  <g
     aria-label="INV1"
     style="font-size:8px;font-family:'Routed Gothic';text-anchor:middle;fill:#e8b923;stroke:none;stroke-width:1px;text-rendering:geometricPrecision"
     id="text106-6-6-8">
    <path
       d="M 180.29687,334 H 178 v -0.59375 h 0.76172 v -4.62891 H 178 v -0.59375 h 2.29687 v 0.59375 h -0.76171 v 4.62891 h 0.76171 z"
       style="font-size:8px;font-family:'Routed Gothic';text-anchor:middle;fill:#e8b923;stroke:none;stroke-width:1px;text-rendering:geometricPrecision"
       id="path10397" />
    <path
       d="m 186.05859,334 h -0.95703 l -2.75781,-5.20313 V 334 h -0.72266 v -5.81641 h 1.19922 l 2.51563,4.75 v -4.75 h 0.72265 z"
       style="font-size:8px;font-family:'Routed Gothic';text-anchor:middle;fill:#e8b923;stroke:none;stroke-width:1px;text-rendering:geometricPrecision"
       id="path10399" />
    <path
       d="M 192.19141,328.18359 190.07422,334 h -1.03125 l -2.11719,-5.81641 h 0.82813 l 1.82421,5.11719 1.82422,-5.11719 z"
       style="font-size:8px;font-family:'Routed Gothic';text-anchor:middle;fill:#e8b923;stroke:none;stroke-width:1px;text-rendering:geometricPrecision"
       id="path10401" />
    <path
       d="m 196.52734,334 h -3.14843 v -0.59375 h 1.21093 v -3.89844 h -1.21093 v -0.53125 q 0.24609,0 0.52734,-0.0391 0.28125,-0.043 0.42578,-0.12109 0.17969,-0.0977 0.28125,-0.2461 0.10547,-0.15234 0.12109,-0.40625 h 0.60547 v 5.24219 h 1.1875 z"
       style="font-size:8px;font-family:'Routed Gothic';text-anchor:middle;fill:#e8b923;stroke:none;stroke-width:1px;text-rendering:geometricPrecision"
       id="path10403" />
  </g>
  <g
     aria-label="INV2"
     style="font-size:8px;font-family:'Routed Gothic';text-anchor:middle;fill:#e8b923;stroke:none;stroke-width:1px;text-rendering:geometricPrecision"
     id="text106-6-6-8-5">
    <path
       d="M 220.29687,334 H 218 v -0.59375 h 0.76172 v -4.62891 H 218 v -0.59375 h 2.29687 v 0.59375 h -0.76171 v 4.62891 h 0.76171 z"
       style="font-size:8px;font-family:'Routed Gothic';text-anchor:middle;fill:#e8b923;stroke:none;stroke-width:1px;text-rendering:geometricPrecision"
       id="path10406" />
    <path
       d="m 226.05859,334 h -0.95703 l -2.75781,-5.20313 V 334 h -0.72266 v -5.81641 h 1.19922 l 2.51563,4.75 v -4.75 h 0.72265 z"
       style="font-size:8px;font-family:'Routed Gothic';text-anchor:middle;fill:#e8b923;stroke:none;stroke-width:1px;text-rendering:geometricPrecision"
       id="path10408" />
    <path
       d="M 232.19141,328.18359 230.07422,334 h -1.03125 l -2.11719,-5.81641 h 0.82813 l 1.82421,5.11719 1.82422,-5.11719 z"
       style="font-size:8px;font-family:'Routed Gothic';text-anchor:middle;fill:#e8b923;stroke:none;stroke-width:1px;text-rendering:geometricPrecision"
       id="path10410" />
    <path
       d="m 236.85937,334 h -3.9375 v -0.81641 q 0.41016,-0.35156 0.82032,-0.70312 0.41406,-0.35156 0.76953,-0.69922 0.75,-0.72656 1.02734,-1.15234 0.27735,-0.42969 0.27735,-0.92579 0,-0.45312 -0.30079,-0.70703 -0.29687,-0.25781 -0.83203,-0.25781 -0.35547,0 -0.76953,0.125 -0.41406,0.125 -0.80859,0.38281 h -0.0391 v -0.82031 q 0.27734,-0.13672 0.73828,-0.25 0.46484,-0.11328 0.89843,-0.11328 0.89454,0 1.40235,0.43359 0.50781,0.42969 0.50781,1.16797 0,0.33203 -0.0859,0.6211 -0.082,0.28515 -0.24609,0.54296 -0.15234,0.24219 -0.35938,0.47657 -0.20312,0.23437 -0.49609,0.51953 -0.41797,0.41015 -0.86328,0.79687 -0.44531,0.38282 -0.83203,0.71094 h 3.1289 z"
       style="font-size:8px;font-family:'Routed Gothic';text-anchor:middle;fill:#e8b923;stroke:none;stroke-width:1px;text-rendering:geometricPrecision"
       id="path10412" />
  </g>
  <g
     style="font-style:normal;font-variant:normal;font-weight:bold;font-stretch:normal;font-size:13.33333302px;line-height:1.25;font-family:Arial;-inkscape-font-specification:'Arial Bold';text-align:center;letter-spacing:0px;word-spacing:0px;text-anchor:middle;fill:#000000;fill-opacity:1;stroke:none"
     id="text3960" />
</svg>
