<?xml version="1.0" encoding="UTF-8" standalone="no"?>
<svg
   xmlns:dc="http://purl.org/dc/elements/1.1/"
   xmlns:cc="http://creativecommons.org/ns#"
   xmlns:rdf="http://www.w3.org/1999/02/22-rdf-syntax-ns#"
   xmlns:svg="http://www.w3.org/2000/svg"
   xmlns="http://www.w3.org/2000/svg"
   xmlns:xlink="http://www.w3.org/1999/xlink"
   xmlns:sodipodi="http://sodipodi.sourceforge.net/DTD/sodipodi-0.dtd"
   xmlns:inkscape="http://www.inkscape.org/namespaces/inkscape"
   height="380"
   style="zoom: 8;"
   cursor="default"
   id="SvgjsSvg1006"
   sodipodi:docname="DelayedReaction.svg"
   inkscape:version="0.92.2 (5c3e80d, 2017-08-06)"
   width="450"
   version="1.1">
  <metadata
     id="metadata7215">
    <rdf:RDF>
      <cc:Work
         rdf:about="">
        <dc:format>image/svg+xml</dc:format>
        <dc:type
           rdf:resource="http://purl.org/dc/dcmitype/StillImage" />
        <dc:title />
      </cc:Work>
    </rdf:RDF>
  </metadata>
  <sodipodi:namedview
     borderopacity="1"
     inkscape:zoom="2.0868421"
     inkscape:cy="174.26199"
     gridtolerance="10"
     inkscape:cx="81.859614"
     inkscape:window-height="1057"
     inkscape:measure-start="21.6858,252.097"
     inkscape:pagecheckerboard="true"
     inkscape:window-width="1920"
     guidetolerance="10"
     id="namedview7213"
     showgrid="false"
     inkscape:pageopacity="0"
     inkscape:pageshadow="2"
     bordercolor="#666666"
     inkscape:current-layer="SvgjsSvg1006"
     inkscape:window-maximized="1"
     inkscape:window-y="-8"
     inkscape:measure-end="21.0081,301.907"
     objecttolerance="10"
     pagecolor="#ffffff"
     inkscape:window-x="-8"
     visibility="visible"
     showguides="false" />
  <defs
     id="SvgjsDefs1007">
    <linearGradient
       inkscape:collect="always"
       id="linearGradientInner">
      <stop
         style="stop-color:#2B1222;stop-opacity:1;"
         offset="0"
         id="stop1" />
      <stop
         style="stop-color:#190A11;stop-opacity:1;"
         offset="1"
         id="stop2" />
    </linearGradient>
    <linearGradient
       inkscape:collect="always"
       xlink:href="#linearGradientInner"
       id="linearGradientOuter"
       x1="0"
       y1="0"
       x2="450"
       y2="380"
       gradientUnits="userSpaceOnUse"
       gradientTransform="translate(-6,6)" />
    <style
       id="Routed Gothic">@import url(file://fonts/routed-gothic.ttf);</style>
  </defs>
  <path
     d="M 0,0 H 450 V 380 H 0 Z"
     id="SvgjsRect1008"
     style="visibility:visible;fill:url(#linearGradientOuter);fill-opacity:1;stroke:none;stroke-opacity:1"
     visibility="visible" />
  <text
     style="font-size:16px;font-family:'Routed Gothic';text-anchor:middle;fill:#e8b923;stroke:none;stroke-width:1px;text-rendering:geometricPrecision"
     id="text5"
     x="225"
     font-size="16px"
     y="18">DELAYED REACTION</text>
  <text
     style="font-size:8px;font-family:'Routed Gothic';text-anchor:middle;fill:#e8b923;stroke:none;stroke-width:1px;text-rendering:geometricPrecision"
     id="text70"
     x="309"
     font-size="8px"
     y="370">MIX</text>
  <text
     style="font-size:8px;font-family:'Routed Gothic';text-anchor:middle;fill:#e8b923;stroke:none;stroke-width:1px;text-rendering:geometricPrecision"
     id="text106"
     x="241.95703"
     font-size="8px"
     y="369.87891">INPUT</text>
  <text
     style="font-size:8px;font-family:'Routed Gothic';text-anchor:middle;fill:#e8b923;stroke:none;stroke-width:1px;text-rendering:geometricPrecision"
     id="text108"
     x="385"
     font-size="8px"
     y="369.87891">OUTPUT</text>
  <line
     id="SvgjsLine1312"
     x1="326.5"
     y1="341"
     x2="308.31348"
     y2="351.5"
     style="stroke:#e8b923;stroke-width:0.75" />
  <line
     id="SvgjsLine1313"
     x1="326.5"
     y1="341"
     x2="308.40347"
     y2="349.51556"
     style="stroke:#e8b923;stroke-width:0.75" />
  <line
     id="SvgjsLine1314"
     x1="326.5"
     y1="341"
     x2="307.75436"
     y2="347.97144"
     style="stroke:#e8b923;stroke-width:0.75" />
  <line
     id="SvgjsLine1315"
     x1="326.5"
     y1="341"
     x2="307.23676"
     y2="346.37842"
     style="stroke:#e8b923;stroke-width:0.75" />
  <line
     id="SvgjsLine1316"
     x1="326.5"
     y1="341"
     x2="306.85425"
     y2="344.74762"
     style="stroke:#e8b923;stroke-width:0.75" />
  <line
     id="SvgjsLine1317"
     x1="326.5"
     y1="341"
     x2="305.61505"
     y2="343.1951"
     style="stroke:#e8b923;stroke-width:0.75" />
  <line
     id="SvgjsLine1318"
     x1="326.5"
     y1="341"
     x2="306.50439"
     y2="341.41885"
     style="stroke:#e8b923;stroke-width:0.75" />
  <line
     id="SvgjsLine1319"
     x1="326.5"
     y1="341"
     x2="306.53946"
     y2="339.7442"
     style="stroke:#e8b923;stroke-width:0.75" />
  <line
     id="SvgjsLine1320"
     x1="326.5"
     y1="341"
     x2="306.71454"
     y2="338.07834"
     style="stroke:#e8b923;stroke-width:0.75" />
  <line
     id="SvgjsLine1321"
     x1="326.5"
     y1="341"
     x2="307.02841"
     y2="336.43298"
     style="stroke:#e8b923;stroke-width:0.75" />
  <line
     id="SvgjsLine1322"
     x1="326.5"
     y1="341"
     x2="306.5278"
     y2="334.51065"
     style="stroke:#e8b923;stroke-width:0.75" />
  <line
     id="SvgjsLine1323"
     x1="326.5"
     y1="341"
     x2="308.06274"
     y2="333.24969"
     style="stroke:#e8b923;stroke-width:0.75" />
  <line
     id="SvgjsLine1324"
     x1="326.5"
     y1="341"
     x2="308.77594"
     y2="331.73407"
     style="stroke:#e8b923;stroke-width:0.75" />
  <line
     id="SvgjsLine1325"
     x1="326.5"
     y1="341"
     x2="309.61343"
     y2="330.28345"
     style="stroke:#e8b923;stroke-width:0.75" />
  <line
     id="SvgjsLine1326"
     x1="326.5"
     y1="341"
     x2="310.5694"
     y2="328.90802"
     style="stroke:#e8b923;stroke-width:0.75" />
  <line
     id="SvgjsLine1327"
     x1="326.5"
     y1="341"
     x2="310.89395"
     y2="326.94824"
     style="stroke:#e8b923;stroke-width:0.75" />
  <line
     id="SvgjsLine1328"
     x1="326.5"
     y1="341"
     x2="312.80905"
     y2="326.42062"
     style="stroke:#e8b923;stroke-width:0.75" />
  <line
     id="SvgjsLine1329"
     x1="326.5"
     y1="341"
     x2="314.07706"
     y2="325.32611"
     style="stroke:#e8b923;stroke-width:0.75" />
  <line
     id="SvgjsLine1330"
     x1="326.5"
     y1="341"
     x2="315.43216"
     y2="324.34155"
     style="stroke:#e8b923;stroke-width:0.75" />
  <line
     id="SvgjsLine1331"
     x1="326.5"
     y1="341"
     x2="316.86493"
     y2="323.47388"
     style="stroke:#e8b923;stroke-width:0.75" />
  <line
     id="SvgjsLine1332"
     x1="326.5"
     y1="341"
     x2="317.95853"
     y2="321.81555"
     style="stroke:#e8b923;stroke-width:0.75" />
  <line
     id="SvgjsLine1333"
     x1="326.5"
     y1="341"
     x2="319.92267"
     y2="322.11249"
     style="stroke:#e8b923;stroke-width:0.75" />
  <line
     id="SvgjsLine1334"
     x1="326.5"
     y1="341"
     x2="321.52621"
     y2="321.62836"
     style="stroke:#e8b923;stroke-width:0.75" />
  <line
     id="SvgjsLine1335"
     x1="326.5"
     y1="341"
     x2="323.16461"
     y2="321.28009"
     style="stroke:#e8b923;stroke-width:0.75" />
  <line
     id="SvgjsLine1336"
     x1="326.5"
     y1="341"
     x2="324.82645"
     y2="321.07013"
     style="stroke:#e8b923;stroke-width:0.75" />
  <line
     id="SvgjsLine1337"
     x1="326.5"
     y1="341"
     x2="326.5"
     y2="320"
     style="stroke:#e8b923;stroke-width:0.75" />
  <line
     id="SvgjsLine1338"
     x1="326.5"
     y1="341"
     x2="328.17355"
     y2="321.07013"
     style="stroke:#e8b923;stroke-width:0.75" />
  <line
     id="SvgjsLine1339"
     x1="326.5"
     y1="341"
     x2="329.83539"
     y2="321.28009"
     style="stroke:#e8b923;stroke-width:0.75" />
  <line
     id="SvgjsLine1340"
     x1="326.5"
     y1="341"
     x2="331.47379"
     y2="321.62836"
     style="stroke:#e8b923;stroke-width:0.75" />
  <line
     id="SvgjsLine1341"
     x1="326.5"
     y1="341"
     x2="333.07733"
     y2="322.11249"
     style="stroke:#e8b923;stroke-width:0.75" />
  <line
     id="SvgjsLine1342"
     x1="326.5"
     y1="341"
     x2="335.04147"
     y2="321.81555"
     style="stroke:#e8b923;stroke-width:0.75" />
  <line
     id="SvgjsLine1343"
     x1="326.5"
     y1="341"
     x2="336.13507"
     y2="323.47388"
     style="stroke:#e8b923;stroke-width:0.75" />
  <line
     id="SvgjsLine1344"
     x1="326.5"
     y1="341"
     x2="337.56784"
     y2="324.34155"
     style="stroke:#e8b923;stroke-width:0.75" />
  <line
     id="SvgjsLine1345"
     x1="326.5"
     y1="341"
     x2="338.92294"
     y2="325.32611"
     style="stroke:#e8b923;stroke-width:0.75" />
  <line
     id="SvgjsLine1346"
     x1="326.5"
     y1="341"
     x2="340.19095"
     y2="326.42062"
     style="stroke:#e8b923;stroke-width:0.75" />
  <line
     id="SvgjsLine1347"
     x1="326.5"
     y1="341"
     x2="342.10605"
     y2="326.94824"
     style="stroke:#e8b923;stroke-width:0.75" />
  <line
     id="SvgjsLine1348"
     x1="326.5"
     y1="341"
     x2="342.4306"
     y2="328.90802"
     style="stroke:#e8b923;stroke-width:0.75" />
  <line
     id="SvgjsLine1349"
     x1="326.5"
     y1="341"
     x2="343.38657"
     y2="330.28345"
     style="stroke:#e8b923;stroke-width:0.75" />
  <line
     id="SvgjsLine1350"
     x1="326.5"
     y1="341"
     x2="344.22406"
     y2="331.73407"
     style="stroke:#e8b923;stroke-width:0.75" />
  <line
     id="SvgjsLine1351"
     x1="326.5"
     y1="341"
     x2="344.93726"
     y2="333.24969"
     style="stroke:#e8b923;stroke-width:0.75" />
  <line
     id="SvgjsLine1352"
     x1="326.5"
     y1="341"
     x2="346.4722"
     y2="334.51065"
     style="stroke:#e8b923;stroke-width:0.75" />
  <line
     id="SvgjsLine1353"
     x1="326.5"
     y1="341"
     x2="345.97159"
     y2="336.43298"
     style="stroke:#e8b923;stroke-width:0.75" />
  <line
     id="SvgjsLine1354"
     x1="326.5"
     y1="341"
     x2="346.28546"
     y2="338.07834"
     style="stroke:#e8b923;stroke-width:0.75" />
  <line
     id="SvgjsLine1355"
     x1="326.5"
     y1="341"
     x2="346.46054"
     y2="339.7442"
     style="stroke:#e8b923;stroke-width:0.75" />
  <line
     id="SvgjsLine1356"
     x1="326.5"
     y1="341"
     x2="346.49561"
     y2="341.41885"
     style="stroke:#e8b923;stroke-width:0.75" />
  <line
     id="SvgjsLine1357"
     x1="326.5"
     y1="341"
     x2="347.38495"
     y2="343.1951"
     style="stroke:#e8b923;stroke-width:0.75" />
  <line
     id="SvgjsLine1358"
     x1="326.5"
     y1="341"
     x2="346.14575"
     y2="344.74762"
     style="stroke:#e8b923;stroke-width:0.75" />
  <line
     id="SvgjsLine1359"
     x1="326.5"
     y1="341"
     x2="345.76324"
     y2="346.37842"
     style="stroke:#e8b923;stroke-width:0.75" />
  <line
     id="SvgjsLine1360"
     x1="326.5"
     y1="341"
     x2="345.24564"
     y2="347.97144"
     style="stroke:#e8b923;stroke-width:0.75" />
  <line
     id="SvgjsLine1361"
     x1="326.5"
     y1="341"
     x2="344.59653"
     y2="349.51556"
     style="stroke:#e8b923;stroke-width:0.75" />
  <line
     id="SvgjsLine1362"
     x1="326.5"
     y1="341"
     x2="344.68652"
     y2="351.5"
     style="stroke:#e8b923;stroke-width:0.75" />
  <circle
     id="SvgjsCircle1363"
     r="18"
     cx="326.5"
     cy="341"
     style="fill:#988903;stroke:#583903;stroke-width:0.75" />
  <text
     style="font-size:8px;font-family:'Routed Gothic';text-anchor:middle;fill:#e8b923;stroke:none;stroke-width:1px;text-rendering:geometricPrecision"
     id="text108-3"
     x="89.644234"
     font-size="8px"
     y="33.878906">ATTENUATION</text>
  <text
     style="font-size:8px;font-family:'Routed Gothic';text-anchor:middle;fill:#e8b923;stroke:none;stroke-width:1px;text-rendering:geometricPrecision"
     id="text108-3-0"
     x="230.57031"
     font-size="8px"
     y="34">DELAY TIME</text>
  <text
     style="font-size:8px;font-family:'Routed Gothic';text-anchor:middle;fill:#e8b923;stroke:none;stroke-width:1px;text-rendering:geometricPrecision"
     id="text108-3-5"
     x="370.71094"
     font-size="8px"
     y="33.894531">FEEDBACK</text>
  <text
     style="font-size:8px;font-family:'Routed Gothic';text-anchor:middle;fill:#e8b923;stroke:none;stroke-width:1px;text-rendering:geometricPrecision"
     id="text106-6"
     x="26.4375"
     font-size="8px"
     y="179.89453">Y</text>
  <text
     style="font-size:8px;font-family:'Routed Gothic';text-anchor:middle;fill:#e8b923;stroke:none;stroke-width:1px;text-rendering:geometricPrecision"
     id="text106-6-5"
     x="92.476562"
     font-size="8px"
     y="329.89453">X</text>
  <text
     style="font-size:8px;font-family:'Routed Gothic';text-anchor:middle;fill:#e8b923;stroke:none;stroke-width:1px;text-rendering:geometricPrecision"
     id="text106-6-6"
     x="166.4375"
     font-size="8px"
     y="179.89453">Y</text>
  <text
     style="font-size:8px;font-family:'Routed Gothic';text-anchor:middle;fill:#e8b923;stroke:none;stroke-width:1px;text-rendering:geometricPrecision"
     id="text106-6-4"
     x="306.4375"
     font-size="8px"
     y="179.89453">Y</text>
  <text
     style="font-size:8px;font-family:'Routed Gothic';text-anchor:middle;fill:#e8b923;stroke:none;stroke-width:1px;text-rendering:geometricPrecision"
     id="text106-6-5-2"
     x="232.47656"
     font-size="8px"
     y="329.89453">X</text>
  <text
     style="font-size:8px;font-family:'Routed Gothic';text-anchor:middle;fill:#e8b923;stroke:none;stroke-width:1px;text-rendering:geometricPrecision"
     id="text106-6-5-5"
     x="372.47656"
     font-size="8px"
     y="329.89453">X</text>
  <text
     style="font-size:8px;font-family:'Routed Gothic';text-anchor:middle;fill:#e8b923;stroke:none;stroke-width:1px;text-rendering:geometricPrecision"
     id="text106-6-5-2-2"
     x="193.35938"
     font-size="8px"
     y="341.88672">RANGE</text>
  <rect
     style="opacity:0.981;fill:#060e08;fill-opacity:1;stroke:#e8b923;stroke-width:0.5;stroke-miterlimit:4;stroke-dasharray:none;stroke-opacity:1"
     id="rect4936"
     width="26.429569"
     height="12.537107"
     x="180.25"
     y="302.21289" />
  <rect
     style="opacity:0.981;fill:#060e08;fill-opacity:1;stroke:#e8b923;stroke-width:0.50001633;stroke-miterlimit:4;stroke-dasharray:none;stroke-opacity:1"
     id="rect4936-0"
     width="100.49997"
     height="256.49997"
     x="39.750008"
     y="39.750023" />
  <rect
     style="opacity:0.981;fill:#060e08;fill-opacity:1;stroke:#e8b923;stroke-width:0.50001633;stroke-miterlimit:4;stroke-dasharray:none;stroke-opacity:1"
     id="rect4936-0-4"
     width="100.49997"
     height="256.49997"
     x="179.75002"
     y="39.750023" />
  <rect
     style="opacity:0.981;fill:#060e08;fill-opacity:1;stroke:#e8b923;stroke-width:0.50001633;stroke-miterlimit:4;stroke-dasharray:none;stroke-opacity:1"
     id="rect4936-0-1"
     width="100.49997"
     height="256.49997"
     x="319.75"
     y="39.750023" />
  <text
     style="font-size:8px;font-family:'Routed Gothic';text-anchor:middle;fill:#e8b923;stroke:none;stroke-width:1px;text-rendering:geometricPrecision"
     id="text106-6-1"
     x="18.898438"
     font-size="8px"
     y="220">PIN 0s</text>
  <text
     style="font-size:8px;font-family:'Routed Gothic';text-anchor:middle;fill:#e8b923;stroke:none;stroke-width:1px;text-rendering:geometricPrecision"
     id="text106-6-1-3"
     x="158.89844"
     font-size="8px"
     y="220">PIN 0s</text>
  <text
     style="font-size:8px;font-family:'Routed Gothic';text-anchor:middle;fill:#e8b923;stroke:none;stroke-width:1px;text-rendering:geometricPrecision"
     id="text106-6-1-6"
     x="298.89844"
     font-size="8px"
     y="220">PIN 0s</text>
  <text
     style="font-size:8px;font-family:'Routed Gothic';text-anchor:middle;fill:#e8b923;stroke:none;stroke-width:1px;text-rendering:geometricPrecision"
     id="text106-6-1-4"
     x="18.898438"
     font-size="8px"
     y="265">LINK</text>
  <text
     style="font-size:8px;font-family:'Routed Gothic';text-anchor:middle;fill:#e8b923;stroke:none;stroke-width:1px;text-rendering:geometricPrecision"
     id="text106-6-1-4-6"
     x="158.89844"
     font-size="8px"
     y="265">LINK</text>
  <text
     style="font-size:8px;font-family:'Routed Gothic';text-anchor:middle;fill:#e8b923;stroke:none;stroke-width:1px;text-rendering:geometricPrecision"
     id="text106-6-1-4-2"
     x="298.89844"
     font-size="8px"
     y="265">LINK</text>
  <g
     id="g1200"
     transform="translate(0.2045204,2.4103028)">
    <path
       inkscape:connector-curvature="0"
       d="m 6.7954796,357.4413 v 5.87434 l 1.3355027,0.77515 c 2.7924147,1.63436 3.9971687,2.3348 5.6221867,3.26871 0.924579,0.53234 2.297438,1.32617 3.053912,1.76511 0.756473,0.43894 1.970567,1.14872 2.708362,1.57832 0.737795,0.42026 1.942549,1.1207 2.689684,1.55964 l 1.354181,0.78449 0.02802,-5.85566 c 0.01868,-5.51946 0.01868,-5.86501 -0.140087,-5.97708 -0.09339,-0.0654 -0.625726,-0.3829 -1.195415,-0.70977 -0.560351,-0.31754 -1.737088,-0.98996 -2.614971,-1.50361 -0.868544,-0.50432 -2.073298,-1.20476 -2.661666,-1.54097 -1.036649,-0.5977 -4.109239,-2.38149 -6.537426,-3.78236 -0.6444036,-0.37357 -1.5409649,-0.89657 -2.0079239,-1.1674 -0.466959,-0.2615 -1.0179706,-0.58837 -1.2327718,-0.70978 l -0.4015847,-0.23348 z m 1.0646665,-5.03382 c 0.4109239,0.25215 1.5783214,0.92458 2.5776139,1.50361 0.999292,0.57902 2.344134,1.35418 2.988537,1.72774 0.644404,0.37357 1.821141,1.05533 2.614971,1.51295 0.79383,0.46696 1.951888,1.13938 2.568274,1.49427 0.616386,0.36423 1.587661,0.91524 2.148012,1.24211 0.56969,0.32687 1.055327,0.62573 1.083345,0.67242 0.02802,0.056 0.09339,0.0934 0.140087,0.084 0.0467,0 0.392246,0.17745 0.765813,0.39225 l 0.691099,0.39224 -0.05604,2.10132 c -0.02802,1.15806 -0.06537,2.2881 -0.09339,2.52158 -0.02802,0.23348 -0.121409,1.11136 -0.196122,1.96123 -0.168106,1.7651 -0.224141,2.12933 -0.336211,2.20404 -0.0467,0.028 -0.08405,0.028 -0.08405,0.009 0,-0.0187 -0.05604,-0.46696 -0.130749,-1.00863 -0.07471,-0.53233 -0.158766,-1.18607 -0.196123,-1.43823 -0.364228,-2.91383 -0.532333,-3.39946 -0.840526,-2.35348 -0.121409,0.43895 -0.607047,2.95118 -0.607047,3.17533 0,0.0373 -0.03736,0.0467 -0.09339,0.0187 -0.0467,-0.028 -0.09339,-0.14008 -0.09339,-0.23348 0,-0.0934 -0.0467,-0.28951 -0.102731,-0.43894 -0.102731,-0.25216 -0.102731,-0.25216 -0.177445,-0.0654 -0.0467,0.11207 -0.11207,0.54167 -0.149426,0.96193 -0.02802,0.42027 -0.07471,0.74714 -0.08405,0.7378 -0.02802,-0.028 -0.280175,-2.14801 -0.364228,-3.06325 -0.214801,-2.2881 -0.392246,-3.42748 -0.280176,-1.82114 0.12141,1.74642 0.494977,4.98712 0.588369,5.16456 0.121409,0.22414 0.186783,0 0.252158,-0.8592 0.03736,-0.44828 0.102731,-0.83119 0.149427,-0.8592 0.03736,-0.028 0.07471,0.0374 0.07471,0.14008 0,0.10273 0.0467,0.29886 0.102731,0.44828 0.140088,0.37357 0.214801,0.18679 0.45762,-1.13938 0.102731,-0.61638 0.261497,-1.39153 0.345549,-1.72774 0.149427,-0.63507 0.308193,-0.93392 0.308193,-0.57903 0,0.10273 0.03736,0.28951 0.09339,0.41092 0.0467,0.12141 0.196123,1.07401 0.326872,2.12933 0.33621,2.58696 0.364228,2.74572 0.551011,2.68035 0.130749,-0.0467 0.289515,-0.99929 0.429602,-2.63365 0.06537,-0.71912 0.130749,-1.32616 0.149427,-1.34484 0.01868,-0.0187 0.03736,1.35418 0.03736,3.05391 0,1.70907 -0.01868,3.10061 -0.0467,3.10061 -0.01868,0 -0.644403,-0.34555 -1.372859,-0.77516 -0.737796,-0.4296 -2.157351,-1.25145 -3.156643,-1.83047 -0.999292,-0.57903 -2.344134,-1.36352 -2.988538,-1.73709 -4.090561,-2.38149 -5.715578,-3.31541 -7.9196244,-4.5762 l -0.9525964,-0.55101 0.00934,-1.32617 0.00934,-1.32616 0.2708362,-0.11207 c 0.2988537,-0.13075 0.7844911,-0.63506 0.8685437,-0.9059 0.028018,-0.0934 0.1120702,-0.51365 0.1867836,-0.94326 0.084053,-0.4296 0.1867836,-0.84986 0.2334795,-0.92458 0.084053,-0.1681 0.1214094,-0.0374 0.2895146,1.27947 0.1400877,1.01797 0.1867836,1.25145 0.2428187,1.18608 0.074713,-0.0654 -0.3362105,-2.70836 -0.4389415,-2.8111 -0.1307485,-0.14942 -0.1867836,-0.0187 -0.4109239,1.04599 -0.2895146,1.34484 -0.5416724,1.82114 -1.0273098,1.9052 -0.1867836,0.028 -0.1867836,-0.028 -0.205462,-4.15594 -0.018678,-2.29744 0,-4.17461 0.028018,-4.17461 0.037357,0 0.4015847,0.20546 0.8218478,0.45762 z"
       id="path4"
       style="fill:#ffff00;fill-opacity:1;stroke:none;stroke-width:0.00933918" />
    <path
       inkscape:connector-curvature="0"
       d="m 9.7559997,356.39531 c -0.093392,0.30819 -0.1587661,0.80317 -0.2988538,2.32545 -0.074713,0.82185 -0.1774444,1.50361 -0.2334795,1.52229 -0.1494269,0.056 -0.1120702,0.20546 0.046696,0.20546 0.074713,0 0.1400877,-0.028 0.1400877,-0.0747 0,-0.0374 0.037357,-0.42027 0.093392,-0.85921 0.046696,-0.43894 0.1307485,-1.2888 0.1961228,-1.88651 0.056035,-0.60705 0.1400877,-1.08335 0.1774444,-1.05533 0.046696,0.028 0.102731,0.30819 0.1400877,0.62573 0.03736,0.32687 0.08405,0.70977 0.102731,0.86854 0.0093,0.14943 0.07471,0.7378 0.130748,1.30749 0.102731,1.1207 0.364228,3.46483 0.410924,3.68897 0.0467,0.29886 0.168105,0.56035 0.242819,0.56035 0.09339,0 0.280175,-0.60704 0.33621,-1.074 0.03736,-0.31754 0.12141,-0.93392 0.177445,-1.27013 0.01868,-0.12141 0.102731,-0.70978 0.196122,-1.29815 0.214802,-1.42889 0.270837,-1.24211 0.45762,1.49427 0.06538,0.87788 0.224141,2.23206 0.289515,2.44687 0.02802,0.0934 0.08405,0.1681 0.130748,0.1681 0.102731,0 0.494977,-1.21409 0.625725,-1.96123 0.06537,-0.42026 0.597708,-2.65232 0.737796,-3.15664 0.08405,-0.27084 0.177444,-0.46696 0.214801,-0.43894 0.09339,0.056 0.214801,0.98995 0.56969,4.33338 0.345549,3.27805 0.466959,3.4555 0.79383,1.13004 0.196123,-1.41022 0.280176,-1.60634 0.373567,-0.88722 0.11207,0.96193 0.252158,1.56898 0.410924,1.8118 0.08405,0.13075 0.392246,0.084 0.373567,-0.056 -0.04669,-0.27083 0.01868,-0.49497 0.130749,-0.43894 0.07471,0.0467 0.08405,0.0374 0.01868,-0.0374 -0.102731,-0.11207 0.130749,-2.66166 0.261497,-2.78307 0.03736,-0.0374 0.06537,0.0374 0.07471,0.15877 0,0.1214 0.01868,0.28951 0.03736,0.36422 0.01868,0.0747 0.07471,0.36423 0.130749,0.64441 0.168105,0.82184 0.289515,1.22343 0.382906,1.22343 0.09339,0 0.308193,-0.70044 0.719117,-2.42819 0.158766,-0.6444 0.336211,-1.29814 0.401585,-1.44757 0.102731,-0.2615 0.121409,-0.27084 0.186784,-0.084 0.04669,0.11207 0.102731,0.40158 0.130748,0.65374 0.03736,0.25216 0.102731,0.79383 0.149427,1.20475 0.05604,0.41093 0.121409,1.00864 0.158766,1.32617 0.02802,0.32687 0.09339,0.58837 0.130749,0.58837 0.04669,0 0.05603,-0.11207 0.03736,-0.2615 -0.08405,-0.50432 -0.233479,-1.66238 -0.280175,-2.26942 -0.07471,-0.76581 -0.252158,-1.50361 -0.392246,-1.55031 -0.158766,-0.056 -0.392245,0.63507 -0.784491,2.3348 -0.196123,0.8592 -0.364228,1.58766 -0.364228,1.60634 0,0.028 -0.03736,0.0467 -0.08405,0.0467 -0.0467,0 -0.130749,-0.24281 -0.186784,-0.54167 -0.410924,-2.17603 -0.560351,-2.40017 -0.700439,-0.99929 -0.05604,0.50432 -0.186783,1.5503 -0.298853,2.35347 -0.07471,0.523 -0.270836,0.35489 -0.364228,-0.30819 -0.01868,-0.14943 -0.09339,-0.62573 -0.177445,-1.05533 -0.22414,-1.27013 -0.280175,-1.20475 -0.56969,0.64441 -0.121409,0.77515 -0.233479,1.43823 -0.261497,1.45691 -0.06537,0.0747 -0.140087,-0.42027 -0.345549,-2.46555 -0.112071,-1.04598 -0.177445,-1.92387 -0.149427,-1.96122 0.02802,-0.028 0.01868,-0.0934 -0.02802,-0.14943 -0.03736,-0.056 -0.102731,-0.40159 -0.140088,-0.77515 -0.08405,-0.9526 -0.233479,-1.61568 -0.373567,-1.61568 -0.149427,0 -0.420263,0.89656 -0.803169,2.66167 -0.401585,1.79312 -0.653743,2.78307 -0.737795,2.87646 -0.102731,0.10273 -0.158766,-0.41092 -0.34555,-2.72704 -0.07471,-1.04599 -0.196123,-2.03594 -0.261497,-2.1947 l -0.121409,-0.28952 -0.102731,0.37357 c -0.112071,0.3829 -0.354889,1.82114 -0.438942,2.56827 -0.102731,0.9059 -0.252158,1.68106 -0.326871,1.72775 -0.130749,0.084 -0.23348,-0.6444 -0.560351,-4.01585 -0.102731,-1.08334 -0.22414,-2.16669 -0.270836,-2.4095 -0.093392,-0.523 -0.2428186,-0.7378 -0.317532,-0.4763 z"
       id="path6"
       style="fill:#0cff00;fill-opacity:1;stroke:none;stroke-width:0.00933918" />
    <path
       inkscape:connector-curvature="0"
       d="m 44.759246,353.3414 c -0.765812,0.44828 -2.007923,1.16739 -2.755058,1.59699 -0.747134,0.42027 -1.877175,1.07401 -2.521578,1.44758 -0.644404,0.37356 -1.419556,0.82185 -1.727749,0.98995 -0.308193,0.16811 -1.074005,0.60705 -1.69973,0.98061 -1.653035,0.98996 -1.905193,1.11137 -2.007924,0.9526 -0.06537,-0.0934 -0.07471,-0.084 -0.05604,0.0467 0.01868,0.11207 -0.12141,0.25215 -0.45762,0.44828 l -0.485637,0.28017 0.03736,-0.35489 c 0.02802,-0.19612 0.01868,-0.27083 -0.0093,-0.1681 -0.02802,0.10273 -0.07471,0.25216 -0.102731,0.32687 -0.03736,0.0747 -0.06537,0.17744 -0.06537,0.22414 -0.0093,0.0374 -0.34555,0.27084 -0.756474,0.49498 -0.68176,0.3829 -2.484222,1.42889 -2.549596,1.47559 -0.03736,0.0374 -0.01868,11.46851 0.01868,11.50587 0.02802,0.028 1.092684,-0.56035 2.689683,-1.49427 0.476299,-0.28018 1.625018,-0.94326 2.549597,-1.46625 0.924578,-0.53234 2.166689,-1.25145 2.755058,-1.597 0.588368,-0.34555 1.47559,-0.84053 1.961227,-1.11137 0.485638,-0.27083 0.933918,-0.52299 0.980614,-0.56035 0.102731,-0.0841 3.483514,-2.0266 4.66959,-2.68968 0.410924,-0.22414 0.80317,-0.45762 0.868544,-0.52299 0.08405,-0.0841 0.11207,-1.34485 0.09339,-5.87435 l -0.02802,-5.75293 z m 1.25145,3.53021 c -0.0093,2.20404 -0.03736,4.23064 -0.06537,4.51082 l -0.06537,0.51365 -0.607047,0.34555 -0.607046,0.35489 -0.02802,-0.51365 c -0.01868,-0.28018 -0.06537,-0.51366 -0.11207,-0.51366 -0.102731,0 -0.224141,0.77515 -0.158766,1.01797 0.03736,0.14943 -0.07471,0.24282 -0.532334,0.48564 -0.308192,0.16811 -0.840526,0.46696 -1.176736,0.67242 -0.336211,0.20546 -0.644404,0.39225 -0.68176,0.41093 -0.0467,0.028 -0.06538,-0.22414 -0.0467,-0.56969 0.0093,-0.33621 0,-0.61639 -0.03736,-0.61639 -0.09339,0 -0.196123,0.79383 -0.149427,1.07401 0.0467,0.2148 -0.02802,0.28017 -0.803169,0.70043 -0.466959,0.25216 -1.02731,0.56969 -1.242111,0.70044 l -0.401585,0.24282 v -0.52299 c 0,-0.32687 -0.03736,-0.50432 -0.09339,-0.46696 -0.0467,0.028 -0.09339,0.29885 -0.09339,0.58837 v 0.53233 l -1.195415,0.66308 -1.186075,0.66308 -0.02802,-0.41092 c -0.03736,-0.56969 -0.205462,-0.50432 -0.205462,0.084 v 0.49498 l -0.821848,0.45762 c -0.44828,0.25216 -0.989953,0.56035 -1.204754,0.6911 l -0.401585,0.22414 v -0.53234 c 0,-0.43894 -0.01868,-0.51365 -0.130748,-0.4296 -0.06537,0.056 -0.11207,0.2148 -0.08405,0.36423 0.02802,0.2148 0.01868,0.22414 -0.05604,0.0654 -0.08405,-0.17744 -0.09339,-0.17744 -0.09339,0.0187 -0.0093,0.12141 0.03736,0.2148 0.08405,0.2148 0.05604,0 0.09339,0.0934 0.09339,0.20547 0,0.17744 -0.205462,0.33621 -1.102024,0.84052 -1.456912,0.83119 -1.382198,0.81251 -1.344842,0.32687 0.02802,-0.28017 -0.0093,-0.43894 -0.11207,-0.52299 -0.130748,-0.11207 -0.149427,-0.0654 -0.149427,0.48564 v 0.60704 l -0.607046,0.38291 c -0.326872,0.2148 -0.625725,0.38291 -0.653743,0.38291 -0.02802,0 -0.0467,-0.18679 -0.0467,-0.42027 0,-0.23348 -0.02802,-0.42026 -0.06537,-0.42026 -0.06537,0 -0.06537,-1.24211 -0.02802,-7.33126 v -0.74713 l 0.821848,-0.45762 c 0.448281,-0.25216 1.298146,-0.7378 1.886515,-1.08335 0.588368,-0.34555 1.93321,-1.1207 2.988537,-1.72774 4.015848,-2.30678 4.566859,-2.62431 6.005093,-3.44616 0.812509,-0.46696 2.129333,-1.23277 2.941842,-1.70907 0.803169,-0.4763 1.494268,-0.85921 1.540964,-0.86854 0.03736,0 0.06537,1.79312 0.05604,3.98783 z m -0.196122,7.08843 c -0.06538,0.056 -0.364228,0.24282 -0.653743,0.41093 l -0.541672,0.29885 v -0.93392 -0.92458 l 0.635064,-0.33621 0.625725,-0.33621 0.02802,0.84987 c 0.01868,0.60704 -0.0093,0.88722 -0.09339,0.97127 z m -1.456912,-0.0747 -0.02802,0.92458 -1.186076,0.70044 -1.186076,0.70977 -0.02802,-0.89656 c -0.01868,-0.67242 0,-0.92458 0.09339,-0.98061 0.06537,-0.0374 0.607046,-0.35489 1.195415,-0.70978 0.588368,-0.35489 1.092684,-0.65374 1.120701,-0.65374 0.02802,-0.009 0.03736,0.40158 0.01868,0.9059 z m -2.633649,1.50361 v 0.93392 l -0.905901,0.53233 c -0.504315,0.28951 -1.055327,0.60705 -1.214093,0.70978 l -0.308193,0.18678 v -0.92458 l 0.0093,-0.91524 1.186076,-0.70978 c 0.653743,-0.39224 1.195415,-0.71911 1.214093,-0.72845 0.0093,0 0.01868,0.41092 0.01868,0.91524 z m -2.614971,1.56898 v 0.91524 l -0.728456,0.39224 c -0.392245,0.22414 -0.943257,0.53234 -1.204754,0.6911 l -0.494976,0.28952 v -0.92458 l 0.0093,-0.91524 1.13938,-0.67242 c 0.625725,-0.36423 1.167397,-0.67242 1.214093,-0.67242 0.03736,-0.009 0.06537,0.40158 0.06537,0.89656 z m -2.61497,1.49427 v 0.91524 l -0.635064,0.34555 c -0.34555,0.19612 -0.887222,0.50431 -1.204754,0.68176 l -0.588369,0.33621 v -0.91524 l 0.0093,-0.91524 1.13938,-0.67242 c 0.625725,-0.36423 1.167398,-0.67242 1.214094,-0.67242 0.03736,-0.009 0.06537,0.40158 0.06537,0.89656 z m -2.633649,1.50361 v 0.92458 l -1.186076,0.65374 -1.176736,0.66308 -0.0467,-0.85921 c -0.02802,-0.46695 -0.0467,-0.8592 -0.03736,-0.86854 0.0093,-0.028 2.400169,-1.42889 2.428187,-1.42889 0.01868,0 0.02802,0.41092 0.01868,0.91524 z m -2.801754,2.5029 c -0.06537,0.056 -0.364228,0.24282 -0.653742,0.41092 l -0.541673,0.29885 v -0.94325 -0.94326 l 0.635064,-0.31753 0.625726,-0.31753 0.02802,0.84986 c 0.01868,0.59771 -0.0093,0.87788 -0.09339,0.96194 z"
       id="path8"
       style="fill:#ffff00;fill-opacity:1;stroke:none;stroke-width:0.00933918" />
  </g>
  <text
     style="font-size:8px;font-family:'Routed Gothic';text-anchor:middle;fill:#e8b923;stroke:none;stroke-width:1px;text-rendering:geometricPrecision"
     id="text104-0"
     x="27.015625"
     font-size="8px"
     y="352.35678">
    <tspan
       style="font-style:normal;font-variant:normal;font-weight:normal;font-stretch:normal;font-size:5.33333349px;font-family:'Megi Sans';-inkscape-font-specification:'Megi Sans'"
       id="tspan1358">FREQENCY DOMAIN</tspan>
  </text>
</svg>
